<svg width="165" height="166" viewBox="0 0 165 166" fill="none" xmlns="http://www.w3.org/2000/svg">
<g clip-path="url(#clip0_474_521)">
<path fill-rule="evenodd" clip-rule="evenodd" d="M24.3932 12.7092C25.6404 10.2403 28.346 8.97866 31.039 9.61024L69.0699 18.5297C69.955 18.7373 70.7108 19.362 71.1084 20.2148L88.0948 56.642C88.7901 58.1332 88.209 59.8758 86.7969 60.5342L27.5628 88.1556C26.1506 88.814 24.4422 88.1391 23.7469 86.6479L6.76059 50.2207C6.36295 49.3679 6.37019 48.3874 6.78012 47.5759L24.3932 12.7092ZM32.7549 79.1605L76.5688 58.7297L46.9886 51.7922C46.7741 51.7419 46.5536 51.8447 46.4542 52.0414L32.7549 79.1605ZM80.4727 53.6475L56.4404 48.0111L68.3293 27.6059L80.4727 53.6475ZM64.0324 23.3461L50.4764 46.6124L48.0253 46.0375C46.5823 45.6991 45.1356 45.9043 43.9117 46.5475C42.8515 47.1047 41.9584 47.9905 41.3795 49.1365L40.2443 51.3837L13.7077 46.8128L29.4679 15.6141C29.5176 15.5158 29.5975 15.4409 29.6919 15.3969C29.7863 15.3529 29.895 15.3397 30.0023 15.3649L64.0324 23.3461ZM14.2089 52.8427L37.4823 56.8514L26.3523 78.8842L14.2089 52.8427Z" fill="#571D1D"/>
<path d="M41.7642 43.0193C41.9298 43.0436 42.0931 43.0224 42.2398 42.9623C42.4127 42.8914 42.5625 42.7667 42.6659 42.5988C42.6787 42.5777 42.7183 42.5124 42.742 42.4728C42.7892 42.3936 42.8571 42.2783 42.942 42.1305C43.1118 41.835 43.3497 41.409 43.6262 40.8807C44.1783 39.8261 44.8887 38.3553 45.5164 36.6975C46.1422 35.0444 46.6976 33.1746 46.9208 31.3272C47.1427 29.4899 47.0472 27.5822 46.2729 25.9218C44.8379 22.8445 41.2882 21.4939 38.3598 22.8594C36.4902 23.7312 35.3059 25.5087 35.0674 27.4809C33.4033 26.3959 31.2804 26.1606 29.4108 27.0324C26.4824 28.398 25.2353 31.9854 26.6703 35.0627C27.4445 36.7231 28.8445 38.0225 30.3946 39.0335C31.9532 40.05 33.7426 40.8264 35.4112 41.4096C37.0847 41.9944 38.668 42.3956 39.8307 42.6506C40.4131 42.7783 40.8924 42.8699 41.2279 42.9298C41.3957 42.9598 41.5277 42.9818 41.6187 42.9966C41.6642 43.0039 41.7642 43.0193 41.7642 43.0193Z" fill="#571D1D"/>
<path fill-rule="evenodd" clip-rule="evenodd" d="M124.315 79.6103C127.008 78.9787 129.713 80.2404 130.961 82.7092L148.574 117.576C148.984 118.387 148.991 119.368 148.593 120.221L131.607 156.648C130.912 158.139 129.203 158.814 127.791 158.156L68.5569 130.534C67.1447 129.876 66.5637 128.133 67.259 126.642L84.2453 90.2148C84.6429 89.3621 85.3987 88.7374 86.2838 88.5298L124.315 79.6103ZM78.7849 128.73L122.599 149.161L108.9 122.041C108.8 121.845 108.58 121.742 108.365 121.792L78.7849 128.73ZM129.001 148.884L117.871 126.851L141.145 122.843L129.001 148.884ZM141.646 116.813L115.109 121.384L113.974 119.137C113.306 117.814 112.219 116.837 110.939 116.313C109.831 115.859 108.578 115.744 107.328 116.038L104.877 116.612L91.3214 93.3461L125.351 85.3649C125.459 85.3398 125.567 85.3529 125.662 85.3969C125.756 85.4409 125.836 85.5158 125.886 85.6142L141.646 116.813ZM87.0244 97.606L98.9134 118.011L74.8811 123.648L87.0244 97.606Z" fill="#571D1D"/>
<path d="M112.262 112.4C112.35 112.543 112.471 112.654 112.611 112.728C112.777 112.815 112.968 112.849 113.163 112.821C113.188 112.817 113.263 112.805 113.309 112.798C113.4 112.783 113.532 112.761 113.7 112.731C114.035 112.671 114.515 112.58 115.097 112.452C116.26 112.197 117.843 111.796 119.516 111.211C121.185 110.628 122.974 109.851 124.533 108.835C126.083 107.824 127.483 106.524 128.257 104.864C129.692 101.787 128.445 98.1993 125.517 96.8337C123.647 95.9619 121.524 96.1972 119.86 97.2822C119.622 95.31 118.437 93.5325 116.568 92.6607C113.639 91.2952 110.09 92.6458 108.655 95.7231C107.88 97.3835 107.785 99.2912 108.007 101.129C108.23 102.976 108.785 104.846 109.411 106.499C110.039 108.157 110.749 109.627 111.301 110.682C111.578 111.21 111.816 111.636 111.986 111.932C112.07 112.08 112.138 112.195 112.186 112.274C112.209 112.314 112.262 112.4 112.262 112.4Z" fill="#571D1D"/>
</g>
<defs>
<clipPath id="clip0_474_521">
<rect width="165" height="166" fill="white"/>
</clipPath>
</defs>
</svg>
