<svg width="123" height="114" viewBox="0 0 123 114" fill="none" xmlns="http://www.w3.org/2000/svg">
<path fill-rule="evenodd" clip-rule="evenodd" d="M116.694 89.8587C118.913 88.0386 121.637 85.5977 122.192 82.6195C122.538 80.786 122.233 79.1235 121.405 78.3299C120.607 77.5676 119.327 77.6077 117.667 79.0763C114.818 81.5964 112.185 84.178 109.254 86.4606C109.681 88.8953 110.694 91.1646 112.275 92.9945C113.838 92.0088 115.344 90.9698 116.694 89.8587Z" fill="#FBB754"/>
<path d="M121.405 78.3299C120.607 77.5676 119.327 77.6077 117.667 79.0763C113.403 82.8516 109.683 86.8156 104.606 89.6016C93.1517 95.8819 76.1549 90.3399 76.1549 90.3399L73.2024 97.3604C73.2024 97.3604 89.4583 101.056 100.912 98.1005C106.479 96.6621 112.273 93.4899 116.694 89.8587C118.913 88.0386 121.637 85.5977 122.192 82.6195C122.538 80.786 122.233 79.1235 121.405 78.3299Z" fill="white" stroke="#0C0D0C" stroke-width="0.816"/>
<path fill-rule="evenodd" clip-rule="evenodd" d="M75.7883 47.11C75.7883 47.11 79.1081 67.4108 79.1143 67.4331C81.631 82.8297 77.2472 105.549 60.1915 110.887C42.2578 116.502 17.3527 111.311 12.7679 90.6774C11.0207 82.8252 8.89387 73.3647 9.88661 65.2964C10.7842 57.9815 12.8595 52.0249 11.1276 44.5241C7.8032 30.1141 10.0182 18.6618 10.0182 18.6618C10.0182 18.6618 12.421 2.31242 13.8977 4.15741C15.3788 6.00241 19.6264 10.1646 20.7357 11.6396C21.8415 13.1171 46.5972 7.9452 57.6839 10.1646C57.6839 10.1646 65.0708 -0.923811 66.9193 1.29304C68.7678 3.51162 68.7678 9.42008 68.7678 13.4871C68.7678 13.4871 72.4648 31.5925 72.4648 35.286C72.4648 38.9794 75.7883 47.11 75.7883 47.11Z" fill="white"/>
<path d="M36.3654 93.2221C33.7172 89.9521 31.9211 85.9979 31.2006 81.8498C30.9862 80.6062 30.8732 79.2986 31.3082 78.1154C31.7441 76.9314 32.8614 75.9191 34.1219 75.9751C35.209 76.0276 36.1288 76.8469 36.6679 77.7881C37.2079 78.7336 37.4507 79.8136 37.7993 80.8419C38.8562 83.9643 40.9582 86.7237 43.6866 88.5722" stroke="#0C0D0C" stroke-width="0.816"/>
<path d="M58.1892 87.8467C61.252 84.3845 61.0919 79.1983 62.8559 74.9276C63.4706 73.4366 64.8112 71.8292 66.3706 72.2437C67.5973 72.5703 68.1622 73.9659 68.4389 75.2033C69.55 80.184 68.7679 85.5615 66.286 90.0253" stroke="#0C0D0C" stroke-width="0.816"/>
<path fill-rule="evenodd" clip-rule="evenodd" d="M71.1278 25.837C70.0702 19.8742 68.7679 13.4871 68.7679 13.4871C68.7679 9.42008 68.7679 3.51162 66.9194 1.29304C65.0708 -0.923811 57.6839 10.1646 57.6839 10.1646C53.3678 9.29815 46.9833 9.55883 40.7261 10.1077C48.5072 11.764 62.2848 15.9824 71.1278 25.837Z" fill="#FBB754"/>
<path fill-rule="evenodd" clip-rule="evenodd" d="M31.7584 11.0375C25.7868 11.7154 21.1957 12.2571 20.7358 11.6398C19.6265 10.1648 15.3789 6.00263 13.8978 4.15763C12.4211 2.31264 10.0183 18.662 10.0183 18.662C10.0183 18.662 8.91263 24.4335 9.45173 32.9262C15.3388 22.3813 24.6615 15.2665 31.7584 11.0375Z" fill="#FBB754"/>
<path fill-rule="evenodd" clip-rule="evenodd" d="M69.6094 66.3779C69.6094 66.3779 75.7439 72.1334 79.7237 77.5633C79.8332 74.0228 79.6259 70.574 79.1144 67.4329C79.1121 67.4205 78.4143 63.1737 77.6644 58.571C75.5873 61.7895 72.7344 65.274 69.6094 66.3779Z" fill="#FBB754"/>
<path fill-rule="evenodd" clip-rule="evenodd" d="M18.6212 66.3778C15.6421 65.3237 12.9173 62.107 10.8695 59.0193C10.5244 61.0466 10.1525 63.1086 9.88656 65.2962C9.48183 68.5751 9.60721 72.0835 9.99948 75.6231C13.8584 70.8479 18.6212 66.3778 18.6212 66.3778Z" fill="#FBB754"/>
<path fill-rule="evenodd" clip-rule="evenodd" d="M38.9763 28.4886L37.9409 30.2865C37.4872 31.071 38.0529 32.0496 38.9603 32.0496H41.0322C41.9368 32.0496 42.5034 31.071 42.0498 30.2865L41.0135 28.4886C40.5606 27.704 39.43 27.704 38.9763 28.4886L37.9409 30.2865C37.4872 31.071 38.0529 32.0496 38.9603 32.0496H41.0322C41.9368 32.0496 42.5034 31.071 42.0498 30.2865L41.0135 28.4886C40.5606 27.704 39.43 27.704 38.9763 28.4886Z" fill="#0C0D0C"/>
<path d="M34.0731 33.5842C34.0731 35.4896 35.6174 37.0303 37.5202 37.0303C38.6419 37.0303 39.6284 36.4868 40.26 35.6587C40.8907 36.4868 41.8781 37.0303 42.9999 37.0303C44.9035 37.0303 46.4478 35.4896 46.4478 33.5842C46.4478 33.5592 46.442 33.5379 46.442 33.5156" stroke="#0C0D0C" stroke-width="0.816"/>
<path d="M32.8676 29.7065C32.357 28.3668 30.8759 27.4033 29.1226 27.4247C27.3675 27.4469 25.9149 28.4512 25.4371 29.8034" stroke="#0C0D0C" stroke-width="0.816"/>
<path d="M56.5577 29.7065C56.0426 28.3668 54.5642 27.4033 52.81 27.4247C51.0575 27.4469 49.6049 28.4512 49.1262 29.8034" stroke="#0C0D0C" stroke-width="0.816"/>
<path d="M23.4757 34.5664L16.5647 33.0132" stroke="#0C0D0C" stroke-width="0.816"/>
<path d="M24.0353 40.6826L17.5264 43.4732" stroke="#0C0D0C" stroke-width="0.816"/>
<path d="M23.3529 37.5603L16.8403 38.1625" stroke="#0C0D0C" stroke-width="0.816"/>
<path d="M58.5094 34.5664L65.416 33.0132" stroke="#0C0D0C" stroke-width="0.816"/>
<path d="M57.9473 40.6826L64.4562 43.4732" stroke="#0C0D0C" stroke-width="0.816"/>
<path d="M58.6313 37.5603L65.1466 38.1625" stroke="#0C0D0C" stroke-width="0.816"/>
<path fill-rule="evenodd" clip-rule="evenodd" d="M61.0072 10.5315C61.0072 10.5315 64.0576 4.43359 65.1625 4.7111C66.2734 4.98953 65.4417 11.64 65.4417 11.64L61.0072 10.5315Z" fill="#0C0D0C"/>
<path fill-rule="evenodd" clip-rule="evenodd" d="M18.0778 12.7473C18.0778 12.7473 15.0292 6.65012 13.9198 6.92948C12.8133 7.20526 13.6441 13.8548 13.6441 13.8548L18.0778 12.7473Z" fill="#0C0D0C"/>
<path d="M75.7883 47.11C75.7883 47.11 79.1081 67.4108 79.1143 67.4331C81.631 82.8297 77.2472 105.549 60.1915 110.887C42.2578 116.502 17.3527 111.311 12.7679 90.6774C11.0207 82.8252 8.89387 73.3647 9.88661 65.2964C10.7842 57.9815 12.8595 52.0249 11.1276 44.5241C7.8032 30.1141 10.0182 18.6618 10.0182 18.6618C10.0182 18.6618 12.421 2.31242 13.8977 4.15741C15.3788 6.00241 19.6264 10.1646 20.7357 11.6396C21.8415 13.1171 46.5972 7.9452 57.6839 10.1646C57.6839 10.1646 65.0708 -0.923811 66.9193 1.29304C68.7678 3.51162 68.7678 9.42008 68.7678 13.4871C68.7678 13.4871 72.4648 31.5925 72.4648 35.286C72.4648 38.9794 75.7883 47.11 75.7883 47.11Z" stroke="#0C0D0C" stroke-width="0.816"/>
<path fill-rule="evenodd" clip-rule="evenodd" d="M67.7324 38.0175C71.5797 37.1547 74.599 34.3249 77.4919 31.6447C79.0645 30.1946 81.22 28.6575 83.1593 29.5488C84.2988 30.0434 84.942 31.2746 85.0994 32.4773C85.2212 33.7102 84.942 34.9076 84.5435 36.0764C84.1733 37.2187 83.7152 38.3254 83.1913 39.4053C82.5135 40.8517 81.6816 42.2083 80.7245 43.5008C78.0478 47.1 74.4139 50.0596 70.2276 51.6564C70.1049 51.7196 70.4091 51.8111 70.3495 51.6884L67.7324 38.0175Z" fill="white"/>
<path d="M67.7324 38.0175C71.5797 37.1547 74.599 34.3249 77.4919 31.6447C79.0645 30.1946 81.22 28.6575 83.1593 29.5488C84.2988 30.0434 84.942 31.2746 85.0994 32.4773C85.2212 33.7102 84.942 34.9076 84.5435 36.0764C84.1733 37.2187 83.7152 38.3254 83.1913 39.4053C82.5135 40.8517 81.6816 42.2083 80.7245 43.5008C78.2702 46.7967 75.0162 49.5543 71.272 51.2267" stroke="#0C0D0C" stroke-width="0.816"/>
<path fill-rule="evenodd" clip-rule="evenodd" d="M18.4371 45.4261C16.6198 46.5336 14.2206 45.8557 12.4637 44.6878C10.9862 43.7626 9.72393 42.4985 8.24629 41.5752C7.93764 41.3929 7.6005 41.2051 7.25978 41.0503C5.35078 40.159 2.70347 40.2542 1.53276 42.0404C0.42618 43.7315 1.22584 46.0088 2.27464 47.7638C2.61178 48.351 2.9819 48.9034 3.41062 49.4274C6.85862 54.1687 12.188 57.5865 18.0048 58.6344C17.9123 58.2644 17.4221 58.0473 17.0521 58.2021L18.4371 45.4261Z" fill="white"/>
<path d="M18.4371 45.4261C16.6198 46.5336 14.2206 45.8557 12.4637 44.6878C10.9862 43.7626 9.72393 42.4985 8.24629 41.5752C7.93764 41.3929 7.6005 41.2051 7.25978 41.0503C5.35078 40.159 2.70347 40.2542 1.53276 42.0404C0.42618 43.7315 1.22584 46.0088 2.27464 47.7638C2.61178 48.351 2.9819 48.9034 3.41062 49.4274C6.48757 53.6573 11.0574 56.833 16.1385 58.21" stroke="#0C0D0C" stroke-width="0.816"/>
<path fill-rule="evenodd" clip-rule="evenodd" d="M62.2064 31.4572C62.2375 32.0185 61.0606 32.5399 59.5795 32.6181C58.0984 32.6911 56.877 32.2943 56.8458 31.7329C56.8175 31.1681 57.9943 30.6513 59.4755 30.5748C60.9566 30.4965 62.1779 30.8923 62.2064 31.4572Z" fill="#FFECCB"/>
<path fill-rule="evenodd" clip-rule="evenodd" d="M28.5097 32.8158C28.5409 33.3808 27.364 33.902 25.8846 33.9767C24.4035 34.0524 23.1812 33.6565 23.151 33.0916C23.1225 32.5304 24.2995 32.0126 25.7805 31.9343C27.2599 31.8587 28.483 32.2546 28.5097 32.8158Z" fill="#FFECCB"/>
</svg>
