<svg width="102" height="117" viewBox="0 0 102 117" fill="none" xmlns="http://www.w3.org/2000/svg">
<path fill-rule="evenodd" clip-rule="evenodd" d="M43.9844 95.5419C49.7931 113.263 78.8255 116.825 89.9799 102.596C92.7205 99.1003 94.1941 94.6627 97.3593 91.5435C97.94 90.9662 98.6648 90.4128 99.48 90.464C100.933 90.5603 101.546 92.386 101.495 93.8391C101.231 101.465 93.5536 108.194 87.3868 111.621C80.0526 115.697 71.3532 116.863 63.1014 115.721C57.4189 114.933 51.8063 113.041 47.1973 109.62C42.5884 106.203 39.0574 101.16 38.0913 95.5052L43.9844 95.5419Z" fill="#F3CAAE"/>
<path fill-rule="evenodd" clip-rule="evenodd" d="M92.3802 104.551C89.9014 105.489 88.0757 107.764 87.2546 110.282C87.0712 110.844 86.9297 111.379 86.8121 111.903C87.0021 111.804 87.1975 111.725 87.3868 111.62C90.4343 109.926 93.8486 107.421 96.556 104.403C95.1934 104.024 93.7037 104.048 92.3802 104.551Z" fill="#B89373"/>
<path fill-rule="evenodd" clip-rule="evenodd" d="M54.315 109.797C55.4516 110.561 56.7964 110.952 58.1292 111.268C59.549 111.605 61.0711 111.867 62.4371 111.361C62.8131 111.22 63.1381 110.995 63.4535 110.747C59.3622 109.975 55.4491 108.467 52.1696 106.19C52.1729 106.289 52.1372 106.362 52.1457 106.467C52.2633 107.833 53.1774 109.033 54.315 109.797Z" fill="#B89373"/>
<path d="M43.9844 95.5419C49.7931 113.263 78.8255 116.825 89.9799 102.596C92.7205 99.1003 94.1941 94.6627 97.3593 91.5435C97.94 90.9662 98.6648 90.4128 99.48 90.464C100.933 90.5603 101.546 92.386 101.495 93.8391C101.231 101.465 93.5536 108.194 87.3868 111.621C80.0526 115.697 71.3532 116.863 63.1014 115.721C57.4189 114.933 51.8063 113.041 47.1973 109.62C42.5884 106.203 39.0574 101.16 38.0913 95.5052L43.9844 95.5419Z" stroke="#0C0D0C" stroke-width="0.816"/>
<path fill-rule="evenodd" clip-rule="evenodd" d="M56.1347 95.1595C92.5824 83.3912 73.2215 25.2965 73.2215 25.2965C73.2215 25.2965 74.3615 11.2514 72.842 10.4907C71.3233 9.7327 63.3487 18.0859 63.3487 18.0859C55.7562 15.4272 32.975 11.6309 32.975 11.6309C32.5955 2.1367 29.9367 1 29.9367 1C29.9367 1 4.87787 20.7456 1.46103 48.4571C-1.95659 76.1747 14.7481 89.0823 14.7481 89.0823C14.7481 89.0823 28.9348 103.943 56.1347 95.1595Z" fill="#F3CAAE"/>
<path d="M16.6489 45.043C16.6489 45.043 22.3441 46.5617 24.2388 52.2562C26.1404 57.9506 36.3893 56.0525 32.975 48.4573C29.5572 40.8648 21.5861 37.447 21.5861 37.447" stroke="#0C0D0C" stroke-width="0.816"/>
<path fill-rule="evenodd" clip-rule="evenodd" d="M24.6208 10.3969C24.6208 10.3969 28.3242 4.13124 29.1786 4.98557C30.0296 5.84 30.6009 11.2514 30.6009 11.2514L24.6208 10.3969Z" fill="#0C0D0C"/>
<path fill-rule="evenodd" clip-rule="evenodd" d="M65.7396 18.9199C65.7396 18.9199 70.5141 13.4266 71.203 14.4218C71.8852 15.4178 71.4674 20.8419 71.4674 20.8419L65.7396 18.9199Z" fill="#0C0D0C"/>
<path fill-rule="evenodd" clip-rule="evenodd" d="M49.92 26.4306C50.1393 27.6465 50.5877 28.8191 50.7046 30.0495C50.8759 31.8189 50.3557 33.6113 50.6056 35.3713C51.0294 38.349 53.6618 40.6598 56.5499 41.5083C59.4381 42.3559 62.5395 41.9986 65.4873 41.406C67.8007 40.9361 70.1201 40.3137 72.1265 39.0772C73.6879 38.1179 75.0325 36.728 75.7838 35.0763C74.4996 29.1593 73.2214 25.2964 73.2214 25.2964C73.2214 25.2964 73.2513 24.8846 73.2965 24.2408C73.1822 24.0634 73.0679 23.8827 72.9502 23.7113C71.6269 21.7287 70.2522 19.6959 68.2696 18.375C67.1714 17.6441 65.929 17.1718 64.6874 16.7267C63.8782 17.5299 63.3487 18.0858 63.3487 18.0858C61.6338 17.4872 59.1252 16.8255 56.3001 16.1672C52.0586 17.3014 48.9061 20.7395 49.92 26.4306Z" fill="#B89373"/>
<path fill-rule="evenodd" clip-rule="evenodd" d="M12.2275 66.8101C12.5669 64.8369 12.2394 62.8151 11.9145 60.8419C11.5078 58.375 11.1019 55.9116 10.696 53.4505C10.4436 51.9191 10.1758 50.3373 9.31543 49.0463C7.61596 46.4746 4.88129 45.25 2.04778 45.0632C1.83373 46.1889 1.60176 47.3051 1.46102 48.4571C0.10098 59.4853 1.93945 68.1276 4.63144 74.5894C8.35532 73.6327 11.5743 70.597 12.2275 66.8101Z" fill="#B89373"/>
<path fill-rule="evenodd" clip-rule="evenodd" d="M66.0621 65.9522C65.4003 66.9124 65.09 68.0883 65.0542 69.2523C64.9424 72.4294 66.6871 75.3347 68.3695 78.0275C69.4525 79.7628 70.6224 81.5526 72.3909 82.5546C76.0908 76.5233 77.7519 69.2463 78.2149 61.9214C74.2438 62.0536 70.3274 62.8876 68.4019 63.9458C67.4937 64.4454 66.6512 65.1012 66.0621 65.9522Z" fill="#B89373"/>
<path fill-rule="evenodd" clip-rule="evenodd" d="M21.3447 22.5532C22.5905 21.4796 23.595 19.9388 23.4654 18.2999C23.3546 16.904 22.4609 15.7034 22.0098 14.374C21.6218 13.2304 21.5732 12.0009 21.2543 10.8335C21.1554 10.4728 21.0113 10.1291 20.8578 9.78638C17.5339 13.4718 13.7973 18.1916 10.4436 23.7538C13.8843 25.5437 18.4028 25.1011 21.3447 22.5532Z" fill="#B89373"/>
<path fill-rule="evenodd" clip-rule="evenodd" d="M45.2088 92.6928C43.7772 90.5388 41.3281 89.1643 38.7716 88.755C36.2144 88.3457 33.5676 88.8453 31.191 89.8738C29.9904 90.3947 28.835 91.053 27.8603 91.9288C26.9343 92.7619 26.0918 94.058 25.4846 95.4966C30.977 97.5234 38.567 98.7991 48.1482 97.115C46.7855 96.0107 46.1988 94.1782 45.2088 92.6928Z" fill="#B89373"/>
<path d="M56.1347 95.1595C92.5824 83.3912 73.2215 25.2965 73.2215 25.2965C73.2215 25.2965 74.3615 11.2514 72.842 10.4907C71.3233 9.7327 63.3487 18.0859 63.3487 18.0859C55.7562 15.4272 32.975 11.6309 32.975 11.6309C32.5955 2.1367 29.9367 1 29.9367 1C29.9367 1 4.87787 20.7456 1.46103 48.4571C-1.95659 76.1747 14.7481 89.0823 14.7481 89.0823C14.7481 89.0823 28.9348 103.943 56.1347 95.1595Z" stroke="#0C0D0C" stroke-width="0.816"/>
<path fill-rule="evenodd" clip-rule="evenodd" d="M66.1132 81.2014C66.2633 83.3553 67.7223 85.1836 69.2717 86.6852C70.1526 87.5635 71.1033 88.3941 71.9398 89.2962C72.5597 89.9639 73.131 90.6827 73.5676 91.4954C73.8345 92.0095 74.0511 92.5664 74.0844 93.1283C74.1841 94.8858 72.5171 96.3414 70.8116 96.7447C68.6637 97.247 66.4262 96.558 64.5971 95.2703C64.2177 95.0205 63.839 94.7442 63.5047 94.4219C61.5554 92.6474 60.2738 90.2496 59.0885 87.8764C58.9922 87.6684 58.8694 87.4339 58.7968 87.1994L66.1132 81.2014Z" fill="#F3CAAE"/>
<path fill-rule="evenodd" clip-rule="evenodd" d="M16.4654 82.6931C16.8713 84.7874 15.9061 86.9081 14.7958 88.7064C14.3235 89.4645 13.8186 90.2226 13.3428 90.9807C12.6905 92.0431 12.1337 93.1286 11.8454 94.3352C11.692 94.8827 11.6348 95.4574 11.7244 96.0108C12.068 97.7281 14.0079 98.7182 15.7407 98.673C18.1078 98.6124 20.2677 97.2046 21.7182 95.3099C21.8564 95.1231 22.0124 94.9185 22.1479 94.6994C23.589 92.5096 24.2541 89.9283 24.7922 87.3831C24.8587 87.0675 24.9124 86.7725 24.9124 86.463L16.4654 82.6931Z" fill="#F3CAAE"/>
<path fill-rule="evenodd" clip-rule="evenodd" d="M64.8103 50.5745C67.1356 47.4767 70.5499 45.2144 74.307 44.2789C76.6204 43.7008 79.1598 43.6377 81.3044 44.6788C83.6714 45.8249 85.9943 49.0916 84.1772 51.649C82.8384 53.5352 79.7788 53.3783 77.7519 52.9724C77.1951 52.8606 76.6383 52.6987 76.0703 52.6688C74.5867 52.587 73.1703 53.4328 72.223 54.5729C71.2721 55.7131 70.7188 57.1234 70.2344 58.5252L64.8103 50.5745Z" fill="#F3CAAE"/>
<path d="M64.8103 50.5745C67.1356 47.4767 70.5499 45.2144 74.307 44.2789C76.6204 43.7008 79.1598 43.6377 81.3044 44.6788C83.6714 45.8249 85.9943 49.0916 84.1772 51.649C82.8383 53.5352 79.7788 53.3783 77.7519 52.9724C77.1951 52.8606 76.6383 52.6987 76.0703 52.6688C74.5867 52.587 73.1703 53.4328 72.223 54.5729C71.2721 55.7131 70.7188 57.1234 70.2344 58.5252" stroke="#0C0D0C" stroke-width="0.816"/>
<path fill-rule="evenodd" clip-rule="evenodd" d="M15.7407 98.6728C18.1078 98.6122 20.2677 97.2044 21.7182 95.3097C20.5901 94.6241 14.4804 91.5526 13.3428 90.9805C12.6905 92.0429 12.1337 93.1284 11.8454 94.335C11.692 94.8825 11.6348 95.4572 11.7244 96.0105C12.068 97.7279 14.0079 98.718 15.7407 98.6728Z" fill="#B89373"/>
<path d="M16.4654 82.6931C16.8713 84.7874 15.9061 86.9081 14.7958 88.7064C14.3235 89.4645 13.8186 90.2226 13.3428 90.9807C12.6905 92.0431 12.1337 93.1286 11.8454 94.3352C11.692 94.8827 11.6348 95.4574 11.7244 96.0108C12.068 97.7281 14.0079 98.7182 15.7407 98.673C18.1078 98.6124 20.2677 97.2046 21.7182 95.3099C21.8564 95.1231 22.0124 94.9185 22.1479 94.6994C23.589 92.5096 24.2541 89.9283 24.7922 87.3831C24.8587 87.0675 24.9124 86.7725 24.9124 86.463" stroke="#0C0D0C" stroke-width="0.816"/>
<path fill-rule="evenodd" clip-rule="evenodd" d="M70.8117 96.7449C72.5171 96.3416 74.1842 94.886 74.0845 93.1285C74.0512 92.5666 73.8346 92.0097 73.5677 91.4956C73.1311 90.6829 72.5598 89.9641 71.9398 89.2964L71.7983 89.4346C70.9558 90.8339 65.3637 94.7444 64.5971 95.2705C66.4262 96.5582 68.6637 97.2472 70.8117 96.7449Z" fill="#B89373"/>
<path d="M66.1132 81.2014C66.2633 83.3553 67.7223 85.1836 69.2717 86.6852C70.1526 87.5635 71.1033 88.3941 71.9398 89.2962C72.5597 89.9639 73.131 90.6827 73.5676 91.4954C73.8345 92.0095 74.0511 92.5664 74.0844 93.1283C74.1841 94.8858 72.5171 96.3414 70.8116 96.7447C68.6637 97.247 66.4262 96.558 64.5971 95.2703C64.2177 95.0205 63.839 94.7442 63.5047 94.4219C61.5554 92.6473 60.2738 90.2496 59.0885 87.8764C58.9922 87.6684 58.8694 87.4339 58.7968 87.1994" stroke="#0C0D0C" stroke-width="0.816"/>
<path d="M64.1783 31.8726L72.9025 30.9192" stroke="#0C0D0C" stroke-width="0.816"/>
<path d="M62.6324 39.3274L70.2608 43.6711" stroke="#0C0D0C" stroke-width="0.816"/>
<path d="M63.9106 35.5786L71.8493 37.2244" stroke="#0C0D0C" stroke-width="0.816"/>
<path d="M22.8583 23.5315L16.2761 17.7253" stroke="#0C0D0C" stroke-width="0.816"/>
<path d="M19.826 30.516L11.0874 29.6616" stroke="#0C0D0C" stroke-width="0.816"/>
<path d="M20.9423 26.7138L13.5057 23.4829" stroke="#0C0D0C" stroke-width="0.816"/>
<path fill-rule="evenodd" clip-rule="evenodd" d="M45.092 28.4618C44.9351 29.1415 42.7606 29.2198 42.7606 29.2198C42.7606 29.2198 40.8378 28.1966 40.9947 27.5171C41.1482 26.84 42.1919 26.5031 43.326 26.7615C44.4567 27.0208 45.2481 27.7813 45.092 28.4618Z" fill="#0C0D0C"/>
<path d="M38.1219 30.1162C37.9924 32.2216 38.8314 34.0115 40.2963 34.3934C41.1602 34.616 42.0743 34.3039 42.8716 33.6295C43.2357 34.6075 43.882 35.323 44.7459 35.5488C46.2108 35.931 47.814 34.7789 48.7314 32.8773" stroke="#0C0D0C" stroke-width="0.816"/>
<path d="M53.5024 25.7808C53.794 27.2218 55.1208 28.4429 56.8927 28.7166C58.6673 28.9879 60.3011 28.2238 61.008 26.9396" stroke="#0C0D0C" stroke-width="0.816"/>
<path d="M27.6864 21.6086C27.978 23.0438 29.3048 24.2648 31.0768 24.5386C32.8487 24.8123 34.4817 24.0457 35.1919 22.7606" stroke="#0C0D0C" stroke-width="0.816"/>
<path fill-rule="evenodd" clip-rule="evenodd" d="M60.1058 32.52C60.0631 33.2746 58.7517 33.8162 57.1784 33.7257C55.6052 33.6354 54.3661 32.9473 54.4113 32.1891C54.4497 31.4311 55.7646 30.8922 57.3353 30.9825C58.9111 31.073 60.151 31.7619 60.1058 32.52Z" fill="#FBE6D8"/>
<path fill-rule="evenodd" clip-rule="evenodd" d="M31.3446 28.3228C31.2994 29.0808 29.9904 29.6223 28.4146 29.5293C26.8439 29.4389 25.6015 28.7534 25.6433 27.9953C25.6885 27.2398 26.9973 26.6984 28.5741 26.7862C30.1439 26.8792 31.3863 27.5647 31.3446 28.3228Z" fill="#FBE6D8"/>
</svg>
