<svg width="73" height="114" viewBox="0 0 73 114" fill="none" xmlns="http://www.w3.org/2000/svg">
<path fill-rule="evenodd" clip-rule="evenodd" d="M61.5786 76.3874C64.1306 79.6143 65.7032 83.8531 65.633 87.9777C65.5644 92.0345 63.8345 95.7542 61.2253 98.8092C57.7455 102.882 53.3756 104.009 48.9378 106.757C43.1287 110.351 46.3664 114.067 51.7652 112.753C56.9673 111.491 62.6344 108.278 66.0981 104.161C71.2678 98.0256 77.403 84.4624 63.192 68.9595L61.5786 76.3874Z" fill="white"/>
<path fill-rule="evenodd" clip-rule="evenodd" d="M68.1279 87.9208C67.4122 89.1532 67.8256 90.7343 69.0557 91.45C69.1668 91.5179 70.0537 92.013 71.5723 92.6825C71.8931 90.9379 72.0158 89.0769 71.8877 87.1179C71.779 87.0585 71.6673 87.0014 71.6542 86.9929C70.4186 86.2826 68.849 86.6914 68.1279 87.9208Z" fill="#AFB0B0"/>
<path fill-rule="evenodd" clip-rule="evenodd" d="M64.4846 98.0126C63.9756 99.343 64.6342 100.834 65.9647 101.348C66.095 101.4 66.7158 101.637 67.7138 101.995C68.6147 100.663 69.4661 99.117 70.1741 97.3894C68.7265 96.878 67.8635 96.5456 67.8234 96.5294C66.5038 96.0235 64.999 96.6821 64.4846 98.0126Z" fill="#AFB0B0"/>
<path fill-rule="evenodd" clip-rule="evenodd" d="M61.9056 102.262C60.6731 102.975 60.2536 104.556 60.9693 105.788C61.0317 105.892 61.4104 106.526 62.1123 107.48C63.5653 106.452 64.8787 105.298 66.014 104.058C65.6353 103.53 65.4394 103.206 65.4286 103.19C64.7106 101.96 63.1349 101.544 61.9056 102.262Z" fill="#AFB0B0"/>
<path d="M61.5786 76.3874C64.1306 79.6143 65.7032 83.8531 65.633 87.9777C65.5644 92.0345 63.8345 95.7542 61.2253 98.8092C57.7455 102.882 53.3756 104.009 48.9378 106.757C43.1287 110.351 46.3664 114.067 51.7652 112.753C56.9673 111.491 62.6344 108.278 66.0981 104.161C71.2678 98.0256 77.403 84.4624 63.192 68.9595L61.5786 76.3874Z" stroke="#0C0D0C" stroke-width="0.816"/>
<path fill-rule="evenodd" clip-rule="evenodd" d="M46.0078 100.801C89.7415 84.6914 49.8818 17.4794 49.8818 17.4794C48.9162 8.11405 46.6549 0.686962 44.0681 1.01016C41.486 1.33176 37.9352 13.2815 37.9352 13.2815C29.5386 14.5733 17.2649 18.1273 17.2649 18.1273C17.2649 18.1273 10.4826 10.0515 7.25263 10.3724C4.02573 10.6963 6.60782 26.1992 6.60782 26.1992C6.60782 26.1992 7.25264 46.8694 14.6835 58.1713C14.6835 58.1713 4.34654 78.1968 11.4512 93.0525C18.5575 107.908 33.7372 105.323 46.0078 100.801Z" fill="white"/>
<path fill-rule="evenodd" clip-rule="evenodd" d="M8.54521 22.3251C8.54521 22.3251 6.92863 13.2814 8.86913 13.9262C10.8057 14.5732 14.0326 19.7406 14.0326 19.7406L8.54521 22.3251Z" fill="#AFB0B0"/>
<path fill-rule="evenodd" clip-rule="evenodd" d="M40.6638 13.7413C40.6638 13.7413 43.8283 5.11868 45.1749 6.65348C46.5222 8.18828 46.7043 14.2796 46.7043 14.2796L40.6638 13.7413Z" fill="#AFB0B0"/>
<path fill-rule="evenodd" clip-rule="evenodd" d="M43.4581 30.4687C42.1115 30.9361 41.3988 32.4053 41.8693 33.7496C42.2395 34.8162 43.2383 35.4857 44.3041 35.4857C44.5872 35.4857 44.8733 35.4394 45.1533 35.3414C49.6049 33.7935 53.0794 31.3117 55.6939 28.8167C54.8502 26.9911 54.0419 25.3237 53.3185 23.8784C51.0626 26.3109 47.8172 28.9501 43.4581 30.4687Z" fill="#AFB0B0"/>
<path fill-rule="evenodd" clip-rule="evenodd" d="M42.683 42.5706C42.8704 43.8524 43.9725 44.7771 45.2319 44.7771C45.3577 44.7771 45.4849 44.7691 45.6129 44.747C46.0788 44.6791 53.7427 43.5146 60.5119 40.5113C59.9111 38.8462 59.2903 37.2381 58.6679 35.6926C53.7126 37.9207 47.6213 39.2326 44.8594 39.6406C43.4504 39.8527 42.4763 41.1615 42.683 42.5706Z" fill="#AFB0B0"/>
<path fill-rule="evenodd" clip-rule="evenodd" d="M49.7653 58.3264C48.4103 57.8891 46.9572 58.6125 46.5053 59.9622C46.0541 61.3142 46.786 62.778 48.138 63.2269C48.4349 63.3279 53.4573 64.9545 61.5215 64.9545C62.9961 64.9545 64.5934 64.8836 66.267 64.7563C66.1197 63.0503 65.9161 61.3443 65.6407 59.6329C56.1127 60.3185 49.9389 58.3842 49.7653 58.3264Z" fill="#AFB0B0"/>
<path fill-rule="evenodd" clip-rule="evenodd" d="M45.0121 70.5869C44.7831 71.9937 45.7387 73.3187 47.1423 73.547C47.6945 73.6365 56.5261 75.0463 66.1521 75.3016C66.3564 73.6095 66.4683 71.8896 66.4814 70.1435C57.0267 69.8959 48.1079 68.4729 47.9722 68.4506C46.5762 68.2254 45.2404 69.1802 45.0121 70.5869Z" fill="#AFB0B0"/>
<path fill-rule="evenodd" clip-rule="evenodd" d="M46.685 76.2348C45.7302 75.182 44.1028 75.098 43.0447 76.0497C41.9865 77.0022 41.9017 78.6349 42.8542 79.6962C43.1642 80.0417 49.5586 86.9683 61.0017 89.7224C62.0305 88.2308 62.8766 86.6505 63.5892 85.0124C52.8611 82.8737 46.7559 76.3088 46.685 76.2348Z" fill="#AFB0B0"/>
<path fill-rule="evenodd" clip-rule="evenodd" d="M22.4732 28.5176C22.8619 28.5176 23.2537 28.4282 23.6262 28.2431C24.9026 27.606 25.417 26.0558 24.78 24.7794C23.7704 22.7603 23.2051 19.7131 22.9051 16.5872C20.5844 17.1942 18.7588 17.7024 17.8665 17.9554C18.2421 21.2748 18.9246 24.619 20.1602 27.0893C20.6121 27.9955 21.5261 28.5176 22.4732 28.5176Z" fill="#AFB0B0"/>
<path fill-rule="evenodd" clip-rule="evenodd" d="M34.5501 25.7287C35.2389 25.7287 35.9245 25.4541 36.4358 24.9127C37.4099 23.8731 37.3583 22.238 36.3163 21.2639C34.2046 19.2857 33.1434 16.7506 32.6428 14.2664C30.9507 14.6227 29.237 15.0145 27.5989 15.4086C28.2868 18.7389 29.7807 22.211 32.7871 25.0299C33.2853 25.4973 33.9193 25.7287 34.5501 25.7287Z" fill="#AFB0B0"/>
<path fill-rule="evenodd" clip-rule="evenodd" d="M30.3931 31.4237C30.4772 31.9844 28.856 32.7024 28.856 32.7024C28.856 32.7024 27.0875 32.5088 27.0027 31.9458C26.9156 31.3828 27.6066 30.8113 28.5398 30.6671C29.4761 30.5229 30.306 30.8607 30.3931 31.4237Z" fill="#0C0D0C"/>
<path d="M24.3149 34.46C24.8532 36.095 26.0317 37.1972 27.2557 37.0445C27.9768 36.955 28.5784 36.4437 28.9756 35.6894C29.5471 36.321 30.2512 36.6719 30.9754 36.5817C32.1994 36.4267 33.0701 35.0693 33.1897 33.3525" stroke="#0C0D0C" stroke-width="0.816"/>
<path d="M33.8213 28.0525C34.4746 29.0535 35.8512 29.5788 37.2742 29.2525C38.6995 28.9232 39.7059 27.8481 39.8587 26.6619" stroke="#0C0D0C" stroke-width="0.816"/>
<path d="M17.7601 31.0233C18.4133 32.0244 19.79 32.5497 21.2129 32.2204C22.639 31.8942 23.6485 30.8197 23.7951 29.6335" stroke="#0C0D0C" stroke-width="0.816"/>
<path fill-rule="evenodd" clip-rule="evenodd" d="M21.4852 34.2372C21.651 34.9876 20.7178 35.8314 19.4036 36.1221C18.0894 36.4137 16.887 36.0381 16.7212 35.2869C16.5554 34.5365 17.4886 33.6896 18.8028 33.4019C20.1193 33.1104 21.3194 33.4829 21.4852 34.2372Z" fill="#E5DFFD"/>
<path fill-rule="evenodd" clip-rule="evenodd" d="M43.1372 29.3914C43.3007 30.1418 42.3698 30.9855 41.0556 31.2763C39.7391 31.5678 38.539 31.1922 38.3732 30.441C38.2074 29.6906 39.1375 28.8469 40.4517 28.5561C41.769 28.2646 42.9683 28.6402 43.1372 29.3914Z" fill="#E5DFFD"/>
<path d="M52.72 22.7279L57.767 18.8076" stroke="#0C0D0C" stroke-width="0.816"/>
<path d="M53.8568 24.3876L59.4731 21.615" stroke="#0C0D0C" stroke-width="0.816"/>
<path d="M54.7384 26.1721L60.7896 25.2473" stroke="#0C0D0C" stroke-width="0.816"/>
<path d="M8.30301 40.3369L2.50781 43.0301" stroke="#0C0D0C" stroke-width="0.816"/>
<path d="M7.56256 38.4651L1.47357 39.912" stroke="#0C0D0C" stroke-width="0.816"/>
<path d="M7.10599 36.5278L1 36.0759" stroke="#0C0D0C" stroke-width="0.816"/>
<path fill-rule="evenodd" clip-rule="evenodd" d="M20.3808 60.9825C20.0075 59.2055 19.7306 57.3584 20.144 55.5922C20.5605 53.8291 21.8145 52.1555 23.5776 51.7367C24.8293 51.4375 26.1566 51.7915 27.4246 51.5624C29.5548 51.1791 31.2284 49.2094 33.3886 49.1546C34.817 49.1191 36.1559 49.9768 37.0235 51.1113C37.8889 52.2481 38.3485 53.6386 38.7049 55.0207C40.5937 62.3237 39.9836 70.2467 37.0043 77.1733C35.9353 79.6552 33.9817 82.3515 31.2908 82.1448C25.4633 81.7013 21.3109 65.4141 20.3808 60.9825Z" fill="#E5DFFD"/>
<path d="M46.0078 100.801C89.7415 84.6914 49.8818 17.4794 49.8818 17.4794C48.9162 8.11405 46.6549 0.686962 44.0681 1.01016C41.486 1.33176 37.9352 13.2815 37.9352 13.2815C29.5386 14.5733 17.2649 18.1273 17.2649 18.1273C17.2649 18.1273 10.4826 10.0515 7.25263 10.3724C4.02573 10.6963 6.60782 26.1992 6.60782 26.1992C6.60782 26.1992 7.25264 46.8694 14.6835 58.1713C14.6835 58.1713 4.34654 78.1968 11.4512 93.0525C18.5575 107.908 33.7372 105.323 46.0078 100.801Z" stroke="#0C0D0C" stroke-width="0.816"/>
<path fill-rule="evenodd" clip-rule="evenodd" d="M32.504 93.7458C30.9808 96.0287 29.0874 98.0609 26.924 99.7477C25.8219 100.605 24.6411 101.386 23.7681 102.469C22.8919 103.549 22.3636 105.037 22.8187 106.354C23.3323 107.845 25.0059 108.705 26.5839 108.702C28.165 108.7 29.6581 108.003 31.0186 107.203C35.1517 104.762 38.6069 101.179 40.8898 96.9565L32.504 93.7458Z" fill="white"/>
<path d="M32.504 93.7458C30.9808 96.0287 29.0874 98.0609 26.924 99.7477C25.8219 100.605 24.6411 101.386 23.7681 102.469C22.8919 103.549 22.3636 105.037 22.8187 106.354C23.3323 107.845 25.0059 108.705 26.5839 108.702C28.165 108.7 29.6581 108.003 31.0186 107.203C35.1517 104.762 38.6069 101.179 40.8898 96.9565" stroke="#0C0D0C" stroke-width="0.816"/>
<path fill-rule="evenodd" clip-rule="evenodd" d="M14.1144 89.4985C14.136 93.6209 11.1898 97.0815 8.44719 100.162C7.66359 101.04 6.83069 102.085 6.99419 103.25C7.15769 104.406 8.31918 105.227 9.48378 105.339C10.643 105.448 11.7883 105.002 12.8225 104.46C16.607 102.485 19.6326 99.1006 21.1751 95.1202L14.1144 89.4985Z" fill="white"/>
<path d="M14.1144 89.4985C14.136 93.6209 11.1898 97.0815 8.44719 100.162C7.66359 101.04 6.83069 102.085 6.99419 103.25C7.15769 104.406 8.31918 105.227 9.48378 105.339C10.643 105.448 11.7883 105.002 12.8225 104.46C16.607 102.485 19.6326 99.1006 21.1751 95.1202" stroke="#0C0D0C" stroke-width="0.816"/>
<path fill-rule="evenodd" clip-rule="evenodd" d="M14.898 57.6353C10.1039 59.929 6.24301 64.1084 4.34111 69.0683C3.86291 70.3169 3.49812 71.6473 3.63692 72.9808C3.77272 74.3112 4.49072 75.6416 5.69622 76.2162C7.70682 77.1764 10.1124 75.7041 11.3394 73.8461C12.5665 71.9851 13.1241 69.7346 14.4275 67.9229C15.7718 66.0511 17.8966 64.7562 20.1795 64.4161L14.898 57.6353Z" fill="white"/>
<path d="M14.898 57.6353C10.1039 59.929 6.24301 64.1084 4.34111 69.0683C3.86291 70.3169 3.49812 71.6473 3.63692 72.9808C3.77272 74.3112 4.49072 75.6416 5.69622 76.2162C7.70682 77.1764 10.1124 75.7041 11.3394 73.8461C12.5665 71.9851 13.1241 69.7346 14.4275 67.9229C15.7718 66.0511 17.8966 64.7562 20.1795 64.4161" stroke="#0C0D0C" stroke-width="0.816"/>
<path fill-rule="evenodd" clip-rule="evenodd" d="M42.7046 50.6431C39.1321 52.5697 36.1343 55.5513 34.1938 59.1184C33.1033 61.1213 32.3328 63.4906 33.0053 65.6701C33.6794 67.8497 36.2947 69.4955 38.3239 68.4559C39.5293 67.8389 40.2019 66.5 40.5142 65.1804C40.8243 63.8608 40.8682 62.4841 41.233 61.1784C42.2233 57.6761 45.7788 55.0778 49.4167 55.2035C49.1206 55.1865 48.8267 55.1734 48.5298 55.1595L42.7046 50.6431Z" fill="white"/>
<path d="M42.7046 50.6431C39.1321 52.5697 36.1343 55.5513 34.1938 59.1184C33.1033 61.1213 32.3328 63.4906 33.0053 65.6701C33.6794 67.8497 36.2947 69.4955 38.3239 68.4559C39.5293 67.8389 40.2019 66.5 40.5142 65.1804C40.8243 63.8608 40.8682 62.4841 41.233 61.1784C42.2233 57.6761 45.7788 55.0778 49.4167 55.2035C49.1206 55.1865 48.8267 55.1734 48.5298 55.1595" stroke="#0C0D0C" stroke-width="0.816"/>
</svg>
