<svg width="79" height="112" viewBox="0 0 79 112" fill="none" xmlns="http://www.w3.org/2000/svg">
<path fill-rule="evenodd" clip-rule="evenodd" d="M60.4916 106.774C73.3961 105.509 80.4831 98.9293 76.9407 82.4824C73.3961 66.0325 68.5897 50.0915 68.5897 50.0915L67.83 47.3081C79.4697 33.1356 66.8173 12.8926 66.8173 12.8926L67.3248 1L57.9619 6.5669C39.7419 1.5059 24.0531 11.3748 24.0531 11.3748L15.4491 10.1092L18.4863 20.99C18.4863 20.99 11.4 45.5342 28.6074 50.0915C28.6074 50.0915 23.8002 66.0325 20.2586 82.4824C16.7139 98.9293 23.8002 105.509 36.7055 106.774C39.2267 107.019 42.2801 107.076 45.5609 107.002L60.4916 106.774Z" fill="#FFC866"/>
<path fill-rule="evenodd" clip-rule="evenodd" d="M20.7638 97.6646C-13.3987 74.3829 7.09797 37.1871 7.09797 37.1871C7.09797 37.1871 8.11057 34.1476 11.147 35.6662C14.185 37.1871 12.1605 41.9943 10.1352 48.573C8.11057 55.1518 2.79667 75.6477 20.2586 86.7815L20.7638 97.6646Z" fill="#FFC866"/>
<path fill-rule="evenodd" clip-rule="evenodd" d="M6.43857 67.9151C7.12957 65.9183 6.92597 63.728 6.52417 61.6548C6.12537 59.5817 5.53848 57.5271 5.48218 55.4162C5.42668 53.2907 4.91688 49.2293 3.65438 45.6699C1.59738 52.1808 -0.194928 61.7088 2.06557 71.678C4.07927 71.5153 5.77217 69.8417 6.43857 67.9151Z" fill="#E3790E"/>
<path d="M20.7638 97.6646C-13.3987 74.3829 7.09797 37.1871 7.09797 37.1871C7.09797 37.1871 8.11057 34.1476 11.147 35.6662C14.185 37.1871 12.1605 41.9943 10.1352 48.573C8.11057 55.1518 2.79667 75.6477 20.2586 86.7815L20.7638 97.6646Z" stroke="#0C0D0C" stroke-width="0.816"/>
<path fill-rule="evenodd" clip-rule="evenodd" d="M46.0052 20.2958C46.1509 21.158 43.6691 22.3041 43.6691 22.3041C43.6691 22.3041 40.9481 22.0511 40.7993 21.1881C40.6504 20.3258 41.6978 19.4281 43.1354 19.1805C44.5722 18.933 45.8563 19.4335 46.0052 20.2958Z" fill="#0C0D0C"/>
<path fill-rule="evenodd" clip-rule="evenodd" d="M60.9983 7.57651L65.3003 4.79541L65.0473 10.6152L60.9983 7.57651Z" fill="#DC3F10"/>
<path fill-rule="evenodd" clip-rule="evenodd" d="M19.2775 17.2403L18.0643 12.2642L23.4754 14.4136L19.2775 17.2403Z" fill="#DC3F10"/>
<path d="M31.1262 21.8276C31.1262 21.8276 33.4716 20.484 35.4853 21.6563C35.4853 21.6563 32.4675 23.1664 31.7972 24.5076" stroke="#0C0D0C" stroke-width="0.816"/>
<path d="M57.4536 17.3497C57.4536 17.3497 54.8661 16.5738 53.1685 18.168C53.1685 18.168 56.4494 18.9601 57.4042 20.1162" stroke="#0C0D0C" stroke-width="0.816"/>
<path d="M40.5231 25.8412C41.1695 27.683 42.3973 28.9077 43.5819 28.7033C44.2799 28.5838 44.8275 27.9876 45.1622 27.1254C45.7661 27.8272 46.4803 28.2051 47.1798 28.0856C48.3644 27.8843 49.1164 26.3202 49.1087 24.3689" stroke="#0C0D0C" stroke-width="0.816"/>
<path fill-rule="evenodd" clip-rule="evenodd" d="M61.6252 48.6793C59.0083 50.7416 57.6 54.3873 58.5695 57.5733C58.9258 58.7487 59.569 59.813 60.2061 60.8604C61.9954 63.8096 63.7831 66.7558 65.574 69.7058C67.0332 72.1137 68.8664 74.7714 71.6584 75.1223C72.8754 75.275 74.0284 74.9295 75.075 74.3117C71.9167 61.1326 68.5896 50.0914 68.5896 50.0914L67.8299 47.308C68.0373 47.0519 68.2201 46.7936 68.4145 46.5383C66.1879 46.3308 63.8626 46.9185 61.6252 48.6793Z" fill="#E3790E"/>
<path fill-rule="evenodd" clip-rule="evenodd" d="M27.7003 63.7364C30.1212 62.9991 32.4566 61.7906 34.1464 59.908C36.0436 57.7909 36.9876 55.0136 37.8854 52.3143C38.8047 49.5501 39.6994 46.4019 38.3103 43.839C36.6629 40.7995 32.3717 40.0923 29.1649 41.3764C26.2796 42.5279 24.0052 44.4814 22.4427 46.8646C24.0314 48.2822 26.0459 49.4113 28.6073 50.0915C28.6073 50.0915 26.8712 55.8543 24.7194 64.0025C24.8127 64.0249 24.8975 64.0627 24.9932 64.0766C25.8994 64.2154 26.821 64.0056 27.7003 63.7364Z" fill="#E3790E"/>
<path fill-rule="evenodd" clip-rule="evenodd" d="M30.2725 95.5612C29.3246 94.5979 28.2564 93.7464 27.4405 92.669C25.8015 90.5056 25.3619 87.6898 24.3454 85.1701C23.2371 82.4306 21.9484 81.1272 20.6272 80.8064C20.5031 81.364 20.3781 81.9193 20.2586 82.4823C16.9638 97.7708 22.8631 104.524 34.0724 106.417C34.0963 106.3 34.1411 106.186 34.1603 106.069C34.7665 102.241 32.9988 98.3145 30.2725 95.5612Z" fill="#E3790E"/>
<path fill-rule="evenodd" clip-rule="evenodd" d="M37.3117 11.138C38.5464 11.5568 39.8799 11.5484 41.1587 11.8067C42.4605 12.0682 43.6907 12.6042 44.9902 12.8764C47.7004 13.4449 50.6412 12.7754 52.8415 11.0941C54.4511 9.86469 55.6311 8.10159 56.2157 6.16429C47.4189 4.15359 39.3385 5.4647 33.4716 7.2988C34.1727 9.048 35.537 10.5334 37.3117 11.138Z" fill="#E3790E"/>
<path d="M60.4916 106.774C73.3961 105.509 80.4831 98.9293 76.9407 82.4824C73.3961 66.0325 68.5897 50.0915 68.5897 50.0915L67.83 47.3081C79.4697 33.1356 66.8173 12.8926 66.8173 12.8926L67.3248 1L57.9619 6.5669C39.7419 1.5059 24.0531 11.3748 24.0531 11.3748L15.4491 10.1092L18.4863 20.99C18.4863 20.99 11.4 45.5342 28.6074 50.0915C28.6074 50.0915 23.8002 66.0325 20.2586 82.4824C16.7139 98.9293 23.8002 105.509 36.7055 106.774C39.2267 107.019 42.2801 107.076 45.5609 107.002L60.4916 106.774Z" stroke="#0C0D0C" stroke-width="0.816"/>
<path d="M58.5094 24.6657L65.5101 21.8413" stroke="#0C0D0C" stroke-width="0.816"/>
<path d="M58.9683 31.1951L66.2944 33.0099" stroke="#0C0D0C" stroke-width="0.816"/>
<path d="M59.1519 27.7948L66.1055 27.3074" stroke="#0C0D0C" stroke-width="0.816"/>
<path d="M29.8051 28.5892L22.3224 27.5989" stroke="#0C0D0C" stroke-width="0.816"/>
<path d="M30.9843 35.032L24.34 38.6098" stroke="#0C0D0C" stroke-width="0.816"/>
<path d="M29.9623 31.7827L23.1036 33.0399" stroke="#0C0D0C" stroke-width="0.816"/>
<path fill-rule="evenodd" clip-rule="evenodd" d="M57.0124 101.21L63.9776 103.005C62.5076 106.679 60.5502 110.325 58.4531 110.811C56.0885 111.386 56.3322 106.08 57.0124 101.21Z" fill="#E3790E"/>
<path d="M58.4531 93.374C58.4531 93.374 57.5847 97.1554 57.0124 101.21C56.3322 106.08 56.0885 111.386 58.4531 110.811C60.5502 110.325 62.5076 106.679 63.9776 103.005C65.5556 99.0874 66.5621 95.1425 66.5621 95.1425" stroke="#0C0D0C" stroke-width="0.816"/>
<path fill-rule="evenodd" clip-rule="evenodd" d="M50.9119 101.21L43.9459 103.005C45.4152 106.679 47.3765 110.325 49.4696 110.811C51.8374 111.386 51.5921 106.08 50.9119 101.21Z" fill="#E3790E"/>
<path d="M49.4696 93.374C49.4696 93.374 50.3419 97.1554 50.9119 101.21C51.5921 106.08 51.8374 111.386 49.4696 110.811C47.3765 110.325 45.4152 106.679 43.9459 103.005C42.3672 99.0874 41.363 95.1425 41.363 95.1425" stroke="#0C0D0C" stroke-width="0.816"/>
<path fill-rule="evenodd" clip-rule="evenodd" d="M60.18 20.8018C60.2964 21.2838 59.3277 21.934 58.0151 22.2525C56.6993 22.5734 55.5386 22.4399 55.4214 21.961C55.3049 21.4766 56.2744 20.8296 57.5901 20.5079C58.902 20.1871 60.0627 20.3205 60.18 20.8018Z" fill="#E3790E"/>
<path fill-rule="evenodd" clip-rule="evenodd" d="M36.0198 25.5365C36.1371 26.0178 35.1668 26.6679 33.8518 26.9864C32.5392 27.3073 31.3777 27.1769 31.2612 26.6949C31.144 26.2113 32.1142 25.5635 33.4292 25.2426C34.7419 24.921 35.9034 25.0545 36.0198 25.5365Z" fill="#E3790E"/>
</svg>
