<svg width="114" height="98" viewBox="0 0 114 98" fill="none" xmlns="http://www.w3.org/2000/svg">
<path fill-rule="evenodd" clip-rule="evenodd" d="M89.5468 91.61L85.0607 91.9094C85.0607 92.949 84.4024 93.7711 82.763 94.208C79.0707 95.1921 74.8334 92.5628 71.3059 89.3396C47.3209 91.7992 0.720016 95.983 2.41697 59.2291C4.11392 22.4753 47.3209 27.725 47.3209 27.725C46.9112 23.0215 48.4697 15.119 48.4697 15.119C48.4697 15.119 48.1137 0.652336 51.8899 1.00639C55.6895 1.33693 61.4052 8.22513 63.6766 11.4239C63.6766 11.4239 83.8309 9.01899 97.886 12.8761C97.886 12.8761 106.063 2.59307 110.028 5.48952C113.993 8.4172 108.798 18.9761 108.798 18.9761C108.798 18.9761 120.749 41.2633 106.335 68.8002C106.335 68.8002 111.862 82.4486 100.402 91.5798C93.4312 97.1318 89.8452 95.1364 89.5468 91.61Z" fill="white"/>
<path fill-rule="evenodd" clip-rule="evenodd" d="M57.9071 11.7368C57.9071 11.7368 54.9882 4.25389 52.827 4.69078C50.6669 5.12867 51.9777 13.9496 51.9777 13.9496L57.9071 11.7368Z" fill="#AFB0B0"/>
<path d="M75.4897 33.5941C75.9287 35.1183 77.2461 36.2263 78.8085 36.2058C79.7253 36.1921 80.5523 35.7863 81.1607 35.1456C81.7859 35.7689 82.6217 36.1501 83.5394 36.1365C85.1008 36.116 86.3841 34.974 86.785 33.436" stroke="#0C0D0C" stroke-width="0.816"/>
<path fill-rule="evenodd" clip-rule="evenodd" d="M84.4493 27.876C84.3458 29.0084 80.8515 29.61 80.8515 29.61C80.8515 29.61 77.525 28.3822 77.6285 27.25C77.7338 26.1217 79.3429 25.3473 81.228 25.5199C83.1093 25.6915 84.5497 26.7477 84.4493 27.876Z" fill="#0C0D0C"/>
<path d="M62.6848 26.7955L53.6873 22.9424" stroke="#0C0D0C" stroke-width="0.816"/>
<path d="M61.9046 35.2527L52.3561 37.3992" stroke="#0C0D0C" stroke-width="0.816"/>
<path d="M61.7612 30.8389L52.7598 30.009" stroke="#0C0D0C" stroke-width="0.816"/>
<path d="M83.5081 88.5449L89.8179 89.1261" stroke="#0C0D0C" stroke-width="0.816"/>
<path fill-rule="evenodd" clip-rule="evenodd" d="M98.3796 93.0309C92.7456 96.7233 89.8179 94.7825 89.5468 91.61C89.5205 91.4998 89.5205 91.3896 89.5205 91.2804C89.462 90.0204 89.8452 88.5449 90.6654 87.2068C91.4886 87.9704 95.9444 92.1814 98.2684 92.8662L98.3796 93.0309Z" fill="#F4F4F4"/>
<path fill-rule="evenodd" clip-rule="evenodd" d="M82.7894 87.3989C83.9655 88.9028 84.8696 90.3237 85.0344 91.4998C85.0608 91.6345 85.0608 91.7719 85.0608 91.9095C85.0608 92.9491 84.4025 93.7712 82.7631 94.2081C80.522 94.807 78.0585 94.0707 75.6799 92.6496C76.4191 92.2127 81.5332 89.0091 82.7631 87.4262L82.7894 87.3989Z" fill="#F4F4F4"/>
<path d="M63.6766 80.5597C63.6766 80.5597 66.9553 85.3725 71.3059 89.3397H71.3322C72.7004 90.6232 74.1751 91.772 75.6798 92.6497C78.0585 94.0707 80.5219 94.807 82.763 94.2082C84.4024 93.7713 85.0607 92.9491 85.0607 91.9096C85.0607 91.772 85.0607 91.6345 85.0343 91.4999C84.8695 90.3238 83.9654 88.9028 82.7893 87.399C79.6178 83.3771 74.2326 78.7847 74.1751 76.8684" stroke="#0C0D0C" stroke-width="0.816"/>
<path fill-rule="evenodd" clip-rule="evenodd" d="M93.4575 43.4098C92.6647 44.3216 92.1068 45.4188 91.6699 46.5442C90.8127 48.7492 90.4704 51.4642 91.9546 53.3046C92.5368 54.0204 93.3366 54.5256 94.1723 54.9107C97.4247 56.4117 101.42 56.1708 104.464 54.2886C107.759 52.2483 111.865 45.8255 108.544 42.2229C105.21 38.6106 96.3744 40.0657 93.4575 43.4098Z" fill="#FFAA52"/>
<path fill-rule="evenodd" clip-rule="evenodd" d="M87.6919 17.3525C87.2853 18.6701 86.9829 20.0217 86.8259 21.4085C86.0857 27.8899 87.527 35.0219 92.3379 39.4328C95.1311 41.9861 98.7755 43.3962 102.425 44.4076C105.932 45.3819 109.749 45.9864 113.261 45.3301C114.503 29.6414 108.798 18.9762 108.798 18.9762C108.798 18.9762 113.993 8.4173 110.028 5.48962C106.064 2.59317 97.886 12.8762 97.886 12.8762C96.3335 12.4499 94.701 12.1125 93.0343 11.8268C92.9202 12.88 92.4627 13.9225 91.5314 14.9163C90.5679 15.9452 89.2308 16.7399 87.6919 17.3525Z" fill="#AFB0B0"/>
<path fill-rule="evenodd" clip-rule="evenodd" d="M63.4348 16.3997C65.4057 18.236 68.2194 18.8457 70.907 19.0621C75.1631 19.4025 82.5855 19.3957 87.6919 17.3525C89.2308 16.74 90.5679 15.9453 91.5315 14.9164C92.4628 13.9226 92.9202 12.88 93.0343 11.8268C79.615 9.53202 63.6767 11.4241 63.6767 11.4241C63.0749 10.5814 62.2275 9.4736 61.2434 8.3042C60.5744 11.1764 61.2844 14.3965 63.4348 16.3997Z" fill="#FFAA52"/>
<path d="M97.8948 27.9834L107.447 25.8359" stroke="#0C0D0C" stroke-width="0.816"/>
<path d="M97.1195 36.4397L106.117 40.2929" stroke="#0C0D0C" stroke-width="0.816"/>
<path d="M98.0635 32.1255L107.068 32.9543" stroke="#0C0D0C" stroke-width="0.816"/>
<path fill-rule="evenodd" clip-rule="evenodd" d="M20.2775 32.8958C18.7386 33.9939 17.6405 35.9268 18.093 37.7573C18.1944 38.1533 18.3622 38.5522 18.2949 38.9549C18.2208 39.3918 17.8785 39.7419 17.5021 39.9828C16.5746 40.5788 15.419 40.6782 14.4115 41.1219C13.4031 41.5627 12.4727 42.6423 12.856 43.6751C13.1817 44.5626 14.2564 44.8825 15.1878 45.0443C21.8604 46.1931 28.8519 45.4228 35.1138 42.8461C36.8381 42.14 38.6121 41.198 39.4615 39.5391C40.1403 38.2148 40.1139 36.6534 40.0671 35.1632C40.0505 34.6063 40.03 34.0281 39.795 33.519C39.5327 32.9514 39.0315 32.531 38.5146 32.18C33.4111 28.7188 25.2064 29.3801 20.2775 32.8958Z" fill="#FFAA52"/>
<path fill-rule="evenodd" clip-rule="evenodd" d="M29.8397 75.2094C31.1339 75.5575 32.4368 76.1349 33.2433 77.2087C34.7754 79.2449 33.8412 82.393 31.839 83.9759C29.8397 85.5586 27.1384 85.9165 24.5851 85.9233C21.874 85.9296 19.1082 85.586 16.6486 84.444C13.5347 82.9987 7.7155 76.6235 12.8901 74.5316C14.6094 73.8373 18.4694 74.7725 20.3009 74.7491C23.4959 74.7042 26.7083 74.3736 29.8397 75.2094Z" fill="#AFB0B0"/>
<path fill-rule="evenodd" clip-rule="evenodd" d="M28.2648 43.7609C29.2517 42.8081 30.0992 41.669 30.5185 40.3652C31.0286 38.7794 30.8872 37.0659 30.6629 35.4177C30.2737 32.5554 29.4701 30.4499 28.3515 28.9529C19.195 31.0799 9.24755 36.0818 4.77896 47.4795C6.96552 48.3025 9.53623 48.5016 11.9089 48.4947C17.7312 48.4811 24.0712 47.8004 28.2648 43.7609Z" fill="#AFB0B0"/>
<path fill-rule="evenodd" clip-rule="evenodd" d="M18.6148 76.7445C21.1172 67.6064 11.8641 54.3296 2.41407 59.9888C2.10098 71.1466 6.32085 78.454 13.0198 83.1293C15.6851 81.9356 17.8423 79.5687 18.6148 76.7445Z" fill="#FFAA52"/>
<path fill-rule="evenodd" clip-rule="evenodd" d="M100.912 14.6304C100.912 14.6304 105.146 7.80871 107.193 8.63367C109.238 9.45976 106.341 17.8887 106.341 17.8887L100.912 14.6304Z" fill="#AFB0B0"/>
<path d="M96.3832 75.5264C96.3832 75.5264 99.3908 79.6029 92.9904 84.5541C92.0063 85.3178 91.2135 86.2227 90.6653 87.2068C89.8452 88.5449 89.4619 90.0204 89.5205 91.2804C89.5205 91.3896 89.5205 91.4997 89.5468 91.61C89.8179 94.7825 92.7456 96.7232 98.3795 93.0309C99.0076 92.6495 99.6893 92.1571 100.402 91.5798C111.862 82.4486 106.335 68.8002 106.335 68.8002C120.749 41.2633 108.798 18.9761 108.798 18.9761C108.798 18.9761 113.993 8.4172 110.028 5.48952C106.063 2.59307 97.886 12.8761 97.886 12.8761C83.8309 9.01899 63.6766 11.4239 63.6766 11.4239C61.4052 8.22513 55.6895 1.33693 51.8899 1.00639C48.1137 0.652336 48.4697 15.119 48.4697 15.119C48.4697 15.119 46.9112 23.0215 47.3209 27.725C47.3209 27.725 4.11392 22.4753 2.41697 59.2291C0.720016 95.983 47.3209 91.7992 71.3059 89.3396" stroke="#0C0D0C" stroke-width="0.816"/>
<path fill-rule="evenodd" clip-rule="evenodd" d="M2.50377 66.6399C4.72144 78.2892 15.7524 91.8958 30.5516 95.7148C49.5991 100.635 68.4338 84.5434 56.1771 68.5699C53.4854 65.0669 48.0602 64.5754 47.2634 68.7075C46.9318 70.4415 49.0412 73.3282 49.3367 75.1206C50.5753 82.6964 45.1237 85.2348 37.6007 85.7302C14.4554 87.2478 6.46822 58.1008 6.46822 58.1008C6.46822 58.1008 5.4608 53.483 3.11921 54.0438C0.776609 54.6046 0.754215 57.4533 2.50377 66.6399Z" fill="white"/>
<path fill-rule="evenodd" clip-rule="evenodd" d="M44.3444 87.9569C42.9489 87.4849 41.4275 87.637 39.9764 87.8808C37.195 88.3519 34.395 89.2433 32.2583 91.063C33.5349 92.4021 33.727 94.5417 32.863 96.1587C38.5613 97.1359 44.0977 96.3069 48.698 94.2218C48.614 93.4095 48.4532 92.6049 48.1479 91.8442C47.4487 90.1102 46.1184 88.5556 44.3444 87.9569Z" fill="#AFB0B0"/>
<path fill-rule="evenodd" clip-rule="evenodd" d="M32.2583 91.0631C32.1842 90.988 32.1579 90.8778 32.077 90.8056C30.7799 89.6666 28.9289 89.4052 27.2028 89.4325C25.458 89.4599 22.6806 90.2382 20.6471 91.4387C23.688 93.314 27.0077 94.8032 30.5517 95.7179C31.3241 95.9179 32.0946 96.0281 32.863 96.1588C33.7271 94.5418 33.535 92.4022 32.2583 91.0631Z" fill="#FFAA52"/>
<path d="M2.50377 66.6399C4.72144 78.2892 15.7524 91.8958 30.5516 95.7148C49.5991 100.635 68.4338 84.5434 56.1771 68.5699C53.4854 65.0669 48.0602 64.5754 47.2634 68.7075C46.9318 70.4415 49.0412 73.3282 49.3367 75.1206C50.5753 82.6964 45.1237 85.2348 37.6007 85.7302C14.4554 87.2478 6.46822 58.1008 6.46822 58.1008C6.46822 58.1008 5.4608 53.483 3.11921 54.0438C0.776609 54.6046 0.754215 57.4533 2.50377 66.6399Z" stroke="#0C0D0C" stroke-width="0.816"/>
<path d="M88.515 25.437C88.8778 26.9438 90.0237 28.0654 91.428 28.0995C92.8286 28.1306 94.0291 27.0648 94.4591 25.5785" stroke="#0C0D0C" stroke-width="0.816"/>
<path d="M67.2607 26.2974C67.8254 27.7427 69.1155 28.6955 70.5102 28.5374C71.9008 28.3785 72.9424 27.1575 73.1667 25.6265" stroke="#0C0D0C" stroke-width="0.816"/>
</svg>
