<svg width="85" height="119" viewBox="0 0 85 119" fill="none" xmlns="http://www.w3.org/2000/svg">
<path fill-rule="evenodd" clip-rule="evenodd" d="M67.3424 96.2439C67.3424 96.2439 72.3139 82.066 69.5088 62.8002C66.7007 43.5336 65.9742 11.3633 79.0615 10.5442C79.0615 10.5442 84.8783 9.36342 84.1518 16.995C83.4229 24.6295 74.3353 15.1779 73.9705 32.6289C73.6088 50.0777 82.6447 97.4925 61.5881 107.775L67.3424 96.2439Z" fill="#F3CAAE"/>
<path fill-rule="evenodd" clip-rule="evenodd" d="M70.1883 36.166C69.8945 36.6257 70.0364 37.2542 70.3572 37.6954C71.1053 38.7265 72.5314 38.9301 73.8016 39.0042C73.9104 39.0119 74.0168 39.0042 74.1232 39.0096C74.0631 37.8126 74.0168 36.6773 73.9898 35.6169C73.3828 35.6223 72.7735 35.6223 72.1558 35.5837C71.4377 35.5428 70.5693 35.5567 70.1883 36.166Z" fill="#B89373"/>
<path fill-rule="evenodd" clip-rule="evenodd" d="M71.6197 42.2117C71.2195 42.6552 71.3452 43.401 71.7447 43.8468C72.1419 44.2933 72.7327 44.5077 73.3065 44.6851C73.6929 44.8016 74.0931 44.8532 74.4849 44.9489C74.4171 43.9694 74.3569 43.0254 74.2998 42.0999C74.0168 42.0459 73.7283 42.005 73.4484 41.9503C72.8144 41.8253 72.0524 41.7358 71.6197 42.2117Z" fill="#B89373"/>
<path fill-rule="evenodd" clip-rule="evenodd" d="M71.3529 50.6161C71.3421 50.8968 71.5218 51.1444 71.7092 51.3534C72.6023 52.3545 73.7746 52.9808 75.0425 53.3995C74.9716 52.2843 74.9037 51.1822 74.8328 50.0994C74.1934 50.0693 73.5571 50.023 72.9201 49.9359C72.2807 49.8518 71.3884 49.9744 71.3529 50.6161Z" fill="#B89373"/>
<path d="M66.9946 96.6657C66.9946 96.6657 72.3139 82.066 69.5088 62.8002C66.7007 43.5336 65.9742 11.3633 79.0615 10.5442C79.0615 10.5442 84.8783 9.36342 84.1518 16.995C83.4229 24.6295 74.3353 15.1779 73.9705 32.6289C73.6088 50.0777 82.6447 97.4925 61.5881 107.775" stroke="#0C0D0C" stroke-width="0.816"/>
<path fill-rule="evenodd" clip-rule="evenodd" d="M55.5045 13.6192C57.9833 23.1796 57.2321 49.9412 56.6799 51.0896C56.3806 51.7096 61.6267 70.3368 66.494 87.2573C70.4336 100.954 60.1544 114.606 45.9001 114.606H27.7604C13.5663 114.606 3.27626 101.052 7.12866 87.3907C8.56546 82.2943 10.0132 77.3043 11.2641 73.2637C15.7728 58.7349 11.2591 52.194 11.2591 52.194C6.50896 47.305 3.58368 40.6306 3.58368 33.2768C3.58368 22.2109 10.2095 12.6883 19.7074 8.4626L24.1806 1L28.1718 9.0318C28.1718 9.0318 41.7265 7.6004 47.6474 10.2774L55.2488 4.2732L55.5045 13.6192Z" fill="#F3CAAE"/>
<path fill-rule="evenodd" clip-rule="evenodd" d="M50.1605 11.3633L53.4314 8.09009V12.9983L50.1605 11.3633Z" fill="#0C0D0C"/>
<path fill-rule="evenodd" clip-rule="evenodd" d="M23.6249 4.82007L24.8959 9.54557H21.6251L23.6249 4.82007Z" fill="#0C0D0C"/>
<path fill-rule="evenodd" clip-rule="evenodd" d="M31.2788 19.1669C31.1778 19.7569 29.3144 19.9335 29.3144 19.9335C29.3144 19.9335 27.6107 19.1499 27.7118 18.5599C27.812 17.9691 28.6936 17.6267 29.6785 17.7925C30.661 17.9614 31.3791 18.5761 31.2788 19.1669Z" fill="#0C0D0C"/>
<path d="M24.1856 20.1787C24.1826 21.9934 24.9908 23.4896 26.2695 23.7457C27.0207 23.8953 27.7904 23.5822 28.4406 22.9621C28.8 23.7866 29.39 24.3689 30.1443 24.5208C31.4199 24.7738 32.7426 23.7048 33.4337 22.0289" stroke="#0C0D0C" stroke-width="0.816"/>
<path d="M35.8307 16.9355C36.1485 18.1571 37.3485 19.1389 38.8856 19.2862C40.4181 19.4328 41.7832 18.6955 42.3277 17.5586" stroke="#0C0D0C" stroke-width="0.816"/>
<path d="M18.7738 14.5601C19.0946 15.7795 20.2978 16.7613 21.8295 16.9086C23.3666 17.0551 24.7324 16.3178 25.2762 15.1802" stroke="#0C0D0C" stroke-width="0.816"/>
<path fill-rule="evenodd" clip-rule="evenodd" d="M44.1232 31.7612C44.1425 32.716 45.2631 33.2026 46.1971 33.4047C48.2509 33.8505 50.3595 34.0572 52.4627 34.0163C54.0707 33.9839 55.7166 33.7795 57.1997 33.1919C57.1727 31.4018 57.121 29.6009 57.0501 27.8132C53.4615 28.5204 49.8235 29.3148 46.2973 30.0336C45.307 30.2372 44.0993 30.7516 44.1232 31.7612Z" fill="#B89373"/>
<path fill-rule="evenodd" clip-rule="evenodd" d="M44.572 41.537C43.9959 42.0352 43.6797 42.9167 44.0499 43.58C44.39 44.1901 45.1489 44.4099 45.8346 44.5379C48.0172 44.9544 50.2646 45.0307 52.4712 44.7608C54.1008 44.5626 55.7382 44.1515 57.1611 43.3625C57.1966 41.8061 57.2244 40.1032 57.2321 38.2908C53.8039 39.3767 50.3842 39.9181 46.6644 40.6878C45.9194 40.8428 45.1489 41.0387 44.572 41.537Z" fill="#B89373"/>
<path fill-rule="evenodd" clip-rule="evenodd" d="M46.5588 52.3931C46.7269 53.0463 47.391 53.4242 48.0056 53.6857C50.7598 54.8472 53.8718 55.1379 56.7886 54.4963C56.9714 54.4577 57.1534 54.3952 57.3354 54.3466C56.8596 52.4285 56.6066 51.237 56.6799 51.0897C56.7585 50.9261 56.8403 50.1973 56.919 49.1145C54.1934 49.5849 51.3714 49.4816 48.6751 50.178C47.5737 50.4611 46.2757 51.2909 46.5588 52.3931Z" fill="#B89373"/>
<path fill-rule="evenodd" clip-rule="evenodd" d="M51.9352 69.1315C51.1678 69.3844 50.4713 70.0292 50.422 70.8321C50.351 72.1023 51.7878 72.8751 53.018 73.199C55.4829 73.8492 58.0782 74.0181 60.6063 73.7019C61.2457 73.6209 61.8928 73.4898 62.5051 73.2862C62.0401 71.6342 61.5827 70.0099 61.1446 68.4536C58.3365 68.489 55.1212 68.9819 54.3345 68.9572C53.5262 68.9325 52.6995 68.8785 51.9352 69.1315Z" fill="#B89373"/>
<path fill-rule="evenodd" clip-rule="evenodd" d="M51.7308 78.8585C51.1292 78.9888 50.3811 79.3289 50.4466 79.9436C50.4898 80.374 50.931 80.6377 51.3282 80.809C53.9998 81.9519 56.9876 82.0005 59.8906 82.0306C61.5418 82.0499 63.4083 81.9381 64.7201 81.0727C64.2682 79.4924 63.8216 77.9253 63.3813 76.3689C62.9216 76.5594 62.4288 76.8039 61.8712 76.9697C58.5733 77.96 55.088 78.1266 51.7308 78.8585Z" fill="#B89373"/>
<path fill-rule="evenodd" clip-rule="evenodd" d="M55.8531 87.899C54.9739 88.0818 53.9072 88.5577 53.9427 89.4531C53.9782 90.3701 55.1212 90.7504 56.032 90.8483C58.1028 91.072 60.2006 91.0851 62.2737 90.8892C63.9443 90.7318 65.6858 90.3724 66.9452 89.2842C66.8203 88.6094 66.6899 87.9322 66.494 87.2574C66.3251 86.672 66.1562 86.082 65.9881 85.4966C65.7567 85.6192 65.5091 85.7419 65.2284 85.8344C62.1326 86.8733 59.0414 87.2358 55.8531 87.899Z" fill="#B89373"/>
<path fill-rule="evenodd" clip-rule="evenodd" d="M28.419 13.2437C28.5902 13.4149 28.8602 13.4311 29.0992 13.4064C30.5029 13.2514 31.5449 12.0544 32.31 10.8683C32.5737 10.468 33.1398 9.60339 33.5748 8.69409C31.8989 8.74579 30.4543 8.83829 29.488 8.91469C28.7429 10.0114 28.22 11.2847 28.2285 12.6043C28.2315 12.8326 28.2586 13.0833 28.419 13.2437Z" fill="#B89373"/>
<path fill-rule="evenodd" clip-rule="evenodd" d="M34.1463 13.5213C34.5003 13.445 34.7965 13.2028 35.0656 12.9553C36.3151 11.7876 37.2344 10.2944 37.7758 8.67254C36.8125 8.65094 35.8716 8.64784 34.9708 8.66174C34.3422 10.1225 33.8741 11.7907 33.2293 13.1072C33.3596 13.4473 33.7869 13.5969 34.1463 13.5213Z" fill="#B89373"/>
<path fill-rule="evenodd" clip-rule="evenodd" d="M38.3882 13.0338C38.4129 13.3932 38.7715 13.6624 39.1309 13.6948C39.4903 13.7303 39.8412 13.5837 40.159 13.4063C41.585 12.6012 42.5483 11.1867 43.3913 9.78215C43.5031 9.59705 43.5818 9.38495 43.6419 9.16755C42.5784 8.99085 41.4516 8.87135 40.3117 8.78955C39.697 10.0221 39.188 11.5098 38.6681 12.3073C38.5239 12.5279 38.3689 12.7701 38.3882 13.0338Z" fill="#B89373"/>
<path d="M55.5045 13.6192C57.9833 23.1796 57.2321 49.9412 56.6799 51.0896C56.3806 51.7096 61.6267 70.3368 66.494 87.2573C70.4336 100.954 60.1544 114.606 45.9001 114.606H27.7604C13.5663 114.606 3.27626 101.052 7.12866 87.3907C8.56546 82.2943 10.0132 77.3043 11.2641 73.2637C15.7728 58.7349 11.2591 52.194 11.2591 52.194C6.50896 47.305 3.58368 40.6306 3.58368 33.2768C3.58368 22.2109 10.2095 12.6883 19.7074 8.4626L24.1806 1L28.1718 9.0318C28.1718 9.0318 41.7265 7.6004 47.6474 10.2774L55.2488 4.2732L55.5045 13.6192Z" stroke="#0C0D0C" stroke-width="0.816"/>
<path fill-rule="evenodd" clip-rule="evenodd" d="M9.83577 97.5203C9.83577 97.5203 7.47189 102.972 6.89729 107.695C6.56259 110.634 6.92738 113.301 9.01668 114.149C11.1068 114.998 12.984 113.029 14.4694 110.332C16.831 105.971 18.2894 99.7021 18.2894 99.7021L9.83577 97.5203Z" fill="#F3CAAE"/>
<path fill-rule="evenodd" clip-rule="evenodd" d="M14.4694 110.332C12.984 113.029 11.1068 114.998 9.01668 114.149C6.92738 113.301 6.56259 110.634 6.89729 107.695C7.89609 108.15 12.4102 110.213 14.4694 110.332Z" fill="#B89373"/>
<path d="M9.83577 97.5203C9.83577 97.5203 7.47189 102.972 6.89729 107.695C6.56259 110.634 6.92738 113.301 9.01668 114.149C11.1068 114.998 12.984 113.029 14.4694 110.332C16.831 105.971 18.2894 99.7021 18.2894 99.7021" stroke="#0C0D0C" stroke-width="0.816"/>
<path fill-rule="evenodd" clip-rule="evenodd" d="M44.3684 21.9064C44.3684 22.5596 43.2694 23.0902 41.9143 23.0902C40.5592 23.0902 39.4625 22.5596 39.4625 21.9064C39.4625 21.2562 40.5592 20.7256 41.9143 20.7256C43.2694 20.7256 44.3684 21.2562 44.3684 21.9064Z" fill="#B89373"/>
<path fill-rule="evenodd" clip-rule="evenodd" d="M19.4679 19.7268C19.4679 20.3801 18.3712 20.9076 17.0161 20.9076C15.661 20.9076 14.5597 20.3801 14.5597 19.7268C14.5597 19.0743 15.661 18.5437 17.0161 18.5437C18.3712 18.5437 19.4679 19.0743 19.4679 19.7268Z" fill="#B89373"/>
<path d="M49.3993 17.0034L60.2554 14.783" stroke="#0C0D0C" stroke-width="0.816"/>
<path d="M49.8944 20.4587H60.7505" stroke="#0C0D0C" stroke-width="0.816"/>
<path d="M49.8944 23.9116L60.0078 27.1223" stroke="#0C0D0C" stroke-width="0.816"/>
<path d="M11.349 16.4597L0.489807 14.2393" stroke="#0C0D0C" stroke-width="0.816"/>
<path d="M10.8561 19.915H0" stroke="#0C0D0C" stroke-width="0.816"/>
<path d="M10.8561 23.3679L0.737305 26.5755" stroke="#0C0D0C" stroke-width="0.816"/>
<path fill-rule="evenodd" clip-rule="evenodd" d="M19.8427 112.427C20.6919 112.699 25.388 114.185 27.9323 114.033L28.0241 114.092C26.5094 116.487 24.6592 118.304 22.539 118.214C20.2978 118.124 19.6908 115.578 19.8427 112.427Z" fill="#B89373"/>
<path d="M22.2675 100.219C22.2675 100.219 20.0255 107.157 19.8427 112.427C19.6908 115.578 20.2978 118.124 22.539 118.215C24.6592 118.304 26.5094 116.487 28.0241 114.092C30.7505 109.731 32.3531 103.492 32.3531 103.492" stroke="#0C0D0C" stroke-width="0.816"/>
</svg>
