<svg width="109" height="94" viewBox="0 0 109 94" fill="none" xmlns="http://www.w3.org/2000/svg">
<path fill-rule="evenodd" clip-rule="evenodd" d="M60.1545 70.9763C60.7629 75.3144 60.2174 79.9004 58.6661 83.8162C58.2135 84.9699 57.6645 86.153 57.7273 87.4289C57.7868 89.0361 58.8502 90.3414 60.0333 90.6452C61.2189 90.9764 62.4605 90.4636 63.462 89.5826C64.6777 88.5518 65.5587 87.0942 66.1955 85.3941C67.1677 82.9024 67.6211 79.9005 67.8647 77.0741C68.0153 75.1649 68.1374 73.253 68.1692 71.3111L60.1545 70.9763Z" fill="#B6B2B1"/>
<path fill-rule="evenodd" clip-rule="evenodd" d="M66.1955 85.3938C65.5587 87.094 64.6777 88.5516 63.462 89.5824C62.4605 90.4634 61.2189 90.9761 60.0333 90.6449C58.8502 90.3411 57.7868 89.0359 57.7273 87.4287C57.6645 86.1528 58.2135 84.9697 58.6661 83.8159C58.6661 83.8159 62.0672 85.9377 66.1654 85.3938H66.1955Z" fill="#FEFBF5"/>
<path d="M60.1545 70.9763C60.7629 75.3144 60.2174 79.9004 58.6661 83.8162C58.2135 84.9699 57.6645 86.153 57.7273 87.4289C57.7868 89.0361 58.8502 90.3414 60.0333 90.6452C61.2189 90.9764 62.4605 90.4636 63.462 89.5826C64.6777 88.5518 65.5587 87.0942 66.1955 85.3941C67.1677 82.9024 67.6211 79.9005 67.8647 77.0741C68.0153 75.1649 68.1374 73.253 68.1692 71.3111" stroke="#0C0D0C" stroke-width="0.816"/>
<path fill-rule="evenodd" clip-rule="evenodd" d="M96.4868 31.2446C96.2338 31.6877 99.8328 37.1599 100.121 37.7337C102.646 42.7689 104.739 48.0534 106.097 53.5264C107.514 59.2395 108.155 65.2881 107.047 71.1157C105.972 76.7779 102.596 83.9649 97.3781 86.9849C96.1219 87.7127 94.5009 86.559 94.0381 85.345C93.2619 83.2963 94.9811 80.8503 96.1253 79.323C101.587 72.0363 105.231 57.8345 97.5803 46.1778C97.5803 46.1778 93.5725 36.3408 96.4868 31.2446Z" fill="#B6B2B1"/>
<path d="M96.4868 31.2446C96.2338 31.6877 99.8328 37.1599 100.121 37.7337C102.646 42.7689 104.739 48.0534 106.097 53.5264C107.514 59.2395 108.155 65.2881 107.047 71.1157C105.972 76.7779 102.596 83.9649 97.3781 86.9849C96.1219 87.7127 94.5009 86.559 94.0381 85.345C93.2619 83.2963 94.9811 80.8503 96.1253 79.323C101.587 72.0363 105.231 57.8345 97.5803 46.1778C97.5803 46.1778 93.5725 36.3408 96.4868 31.2446Z" stroke="#0C0D0C" stroke-width="0.816"/>
<path fill-rule="evenodd" clip-rule="evenodd" d="M60.4273 84.0589C36.5125 88.1475 17.4468 79.3233 7.97895 64.3902C-1.49056 49.457 1.42271 17.401 1.42271 17.401C1.42271 17.401 1.78751 4.65502 4.33687 5.38038C6.88623 6.11165 12.3481 11.5735 12.3481 11.5735C12.3481 11.5735 27.6469 7.93321 38.2109 8.65935C38.2109 8.65935 41.8513 0.648125 45.4933 1.01203C45.4933 1.01203 48.0428 5.02072 48.0428 10.8483C48.0428 10.8483 47.6813 22.5023 70.9914 24.6878C70.9914 24.6878 93.5726 20.6791 99.7649 33.0621C105.956 45.4467 103.044 76.7748 60.4273 84.0589Z" fill="#B6B2B1"/>
<path fill-rule="evenodd" clip-rule="evenodd" d="M4.51672 16.0374L5.06571 8.65942L9.70759 13.5758L4.51672 16.0374Z" fill="#0C0D0C"/>
<path fill-rule="evenodd" clip-rule="evenodd" d="M40.8516 8.93566L43.8552 3.74219L45.2207 10.5712L40.8516 8.93566Z" fill="#0C0D0C"/>
<path fill-rule="evenodd" clip-rule="evenodd" d="M26.8434 65.7651C27.9575 63.7104 28.3783 61.1388 27.3622 59.0359C25.7171 55.6364 20.9978 54.4955 19.5841 50.992C19.2228 50.0946 19.1187 49.1137 18.8278 48.1939C17.3196 43.4136 11.6108 41.5981 6.67812 40.7144C4.92373 40.3996 3.1419 40.0313 1.41675 39.5254C2.12571 48.3694 3.90419 57.9647 7.97902 64.3902C10.5559 68.4582 13.8659 72.0451 17.7731 75.0686C19.3595 73.8304 20.8592 72.4427 22.3082 71.0678C24.0032 69.4622 25.7283 67.8206 26.8434 65.7651Z" fill="#FEFBF5"/>
<path fill-rule="evenodd" clip-rule="evenodd" d="M48.4257 26.5436C47.9042 28.9286 48.6415 31.7575 50.7496 32.9957C53.9055 34.8482 58.4562 32.4975 61.391 34.683C62.458 35.4728 63.0687 36.7204 63.8931 37.7666C66.9879 41.6987 73.0107 42.3475 77.5993 40.3539C83.5335 37.777 87.1204 31.2413 87.0551 24.8064C79.1841 23.2559 70.9914 24.6877 70.9914 24.6877C61.8436 23.829 56.3783 21.5137 53.0676 19.0159C52.7207 19.4306 52.3765 19.8444 52.0384 20.2479C50.4673 22.1211 48.9479 24.1542 48.4257 26.5436Z" fill="#FEFBF5"/>
<path fill-rule="evenodd" clip-rule="evenodd" d="M93.398 51.645C87.98 52.3007 83.8596 57.4786 83.1773 62.8973C82.8004 65.8838 83.4173 71.1744 85.3257 74.819C93.2027 69.5474 97.8265 62.9205 100.192 56.3291C99.6884 55.3172 99.3382 54.1772 98.6207 53.3012C97.4117 51.83 95.2917 51.4179 93.398 51.645Z" fill="#FEFBF5"/>
<path d="M60.4273 84.0589C36.5125 88.1475 17.4468 79.3233 7.97895 64.3902C-1.49056 49.457 1.42271 17.401 1.42271 17.401C1.42271 17.401 1.78751 4.65502 4.33687 5.38038C6.88623 6.11165 12.3481 11.5735 12.3481 11.5735C12.3481 11.5735 27.6469 7.93321 38.2109 8.65935C38.2109 8.65935 41.8513 0.648125 45.4933 1.01203C45.4933 1.01203 48.0428 5.02072 48.0428 10.8483C48.0428 10.8483 47.6813 22.5023 70.9914 24.6878C70.9914 24.6878 93.5726 20.6791 99.7649 33.0621C105.956 45.4467 103.044 76.7748 60.4273 84.0589Z" stroke="#0C0D0C" stroke-width="0.816"/>
<path fill-rule="evenodd" clip-rule="evenodd" d="M19.4662 74.3947C22.6513 77.9163 22.2427 81.9946 23.0351 86.6967H23.0643C23.0643 86.9118 23.1237 87.1252 23.1556 87.3334C23.5505 89.4311 24.5821 91.9203 26.7365 92.1294C28.4057 92.3143 29.9234 90.855 30.3795 89.2151C30.6523 88.2481 30.623 87.2457 30.5008 86.2441C30.4096 85.5437 30.2581 84.8778 30.1076 84.2111C29.2558 80.5044 28.2242 76.8322 27.0385 73.1919L19.4662 74.3947Z" fill="#B6B2B1"/>
<path fill-rule="evenodd" clip-rule="evenodd" d="M30.5895 73.9819C32.3834 77.5019 33.4151 81.4485 33.5045 85.4209C33.5045 85.8494 33.5045 86.2443 33.5363 86.6703C33.5363 87.5771 33.5656 88.4909 33.8091 89.371C34.1111 90.6763 34.9 91.9205 36.1149 92.4367C37.9682 93.1955 40.1227 91.9205 41.0038 90.1299C41.5191 89.1276 41.6998 88.0357 41.729 86.912C41.729 86.0318 41.6405 85.1525 41.5191 84.2989C41.033 80.8118 40.0608 77.3814 38.6936 74.1609L30.5895 73.9819Z" fill="#B6B2B1"/>
<path fill-rule="evenodd" clip-rule="evenodd" d="M41.7291 86.9119C41.6999 88.0356 41.5191 89.1275 41.0038 90.1298C40.1227 91.9204 37.9683 93.1954 36.115 92.4365C34.9001 91.9204 34.1111 90.6762 33.8091 89.3709C33.5656 88.4908 33.5364 87.577 33.5364 86.6702C34.2333 86.7596 40.1227 87.4556 41.6697 86.9119H41.7291Z" fill="#FEFBF5"/>
<path d="M30.5895 73.9819C32.3834 77.5019 33.4151 81.4485 33.5045 85.4209C33.5045 85.8494 33.5045 86.2443 33.5363 86.6703C33.5363 87.5771 33.5656 88.4909 33.8091 89.371C34.1111 90.6763 34.9 91.9205 36.1149 92.4367C37.9682 93.1955 40.1227 91.9205 41.0038 90.1299C41.5191 89.1276 41.6998 88.0357 41.729 86.912C41.729 86.0318 41.6405 85.1525 41.5191 84.2989C41.033 80.8118 40.0608 77.3814 38.6936 74.1609" stroke="#0C0D0C" stroke-width="0.816"/>
<path fill-rule="evenodd" clip-rule="evenodd" d="M30.5008 86.2441C30.6231 87.2457 30.6523 88.2481 30.3795 89.2151C29.9235 90.8551 28.4057 92.3144 26.7365 92.1294C24.5821 91.9203 23.5505 89.4311 23.1556 87.3335C23.1237 87.1253 23.0643 86.9118 23.0643 86.6967C24.0031 86.818 27.4335 87.182 30.469 86.2441H30.5008Z" fill="#FEFBF5"/>
<path d="M20.5116 75.6905C21.8393 78.3156 22.2368 81.2882 22.6514 84.162C23.0171 86.6898 23.3631 91.7989 26.7366 92.1294C28.4058 92.3143 29.9235 90.855 30.3796 89.2151C30.6524 88.2481 30.6231 87.2457 30.5009 86.2441C30.4097 85.5437 30.2582 84.8778 30.1077 84.2111C29.2559 80.5044 28.2243 76.8322 27.0386 73.1919" stroke="#0C0D0C" stroke-width="0.816"/>
<path fill-rule="evenodd" clip-rule="evenodd" d="M69.7171 72.0691C70.3254 76.4107 69.7755 80.9907 68.2285 84.9055C67.7717 86.0593 67.2271 87.2458 67.2899 88.5208C67.3492 90.1298 68.4102 91.4351 69.5957 91.7353C70.7779 92.0717 72.0229 91.5554 73.0245 90.6761C74.2402 89.6436 75.1178 88.1879 75.7579 86.4869C76.7276 83.9986 77.1837 80.9907 77.4271 78.1711C77.5777 76.2584 77.6998 74.3457 77.7292 72.4004L69.7171 72.0691Z" fill="#B6B2B1"/>
<path fill-rule="evenodd" clip-rule="evenodd" d="M75.7579 86.4869C75.1178 88.1879 74.2402 89.6436 73.0245 90.6761C72.0229 91.5554 70.7779 92.0717 69.5957 91.7353C68.4102 91.4351 67.3492 90.1298 67.2899 88.5208C67.2271 87.2458 67.7717 86.0593 68.2285 84.9055C68.2285 84.9055 71.6289 87.0341 75.7261 86.4869H75.7579Z" fill="#FEFBF5"/>
<path d="M69.7171 72.0691C70.3254 76.4107 69.7755 80.9907 68.2285 84.9055C67.7717 86.0593 67.2271 87.2458 67.2899 88.5208C67.3492 90.1298 68.4102 91.4351 69.5957 91.7353C70.7779 92.0717 72.0229 91.5554 73.0245 90.6761C74.2402 89.6436 75.1178 88.1879 75.7579 86.4869C76.7276 83.9986 77.1837 80.9906 77.4271 78.1711C77.5777 76.2584 77.6998 74.3457 77.7292 72.4004" stroke="#0C0D0C" stroke-width="0.816"/>
<path fill-rule="evenodd" clip-rule="evenodd" d="M24.0625 17.9437L23.5643 19.4864C23.345 20.1567 23.9377 20.8158 24.632 20.6696L26.2179 20.3331C26.9087 20.1834 27.1849 19.3402 26.7099 18.8153L25.6216 17.6134C25.1474 17.0851 24.2818 17.2667 24.0625 17.9437L23.5643 19.4864C23.345 20.1567 23.9377 20.8158 24.632 20.6696L26.2179 20.3331C26.9087 20.1834 27.1849 19.3402 26.7099 18.8153L25.6216 17.6134C25.1474 17.0851 24.2818 17.2667 24.0625 17.9437Z" fill="#0C0D0C"/>
<path d="M21.1396 22.6389C21.452 24.0965 22.8863 25.0258 24.3413 24.7126C25.2008 24.5336 25.8684 23.9537 26.2144 23.2164C26.8313 23.7498 27.677 24.0044 28.5366 23.8204C29.9907 23.5106 30.9216 22.078 30.6111 20.6214C30.6076 20.6033 30.599 20.5878 30.5955 20.5688" stroke="#0C0D0C" stroke-width="0.816"/>
<path d="M19.5901 19.8722C18.9758 18.9266 17.6895 18.4302 16.3498 18.7365C15.0137 19.0367 14.0654 20.0417 13.9192 21.1585" stroke="#0C0D0C" stroke-width="0.816"/>
<path d="M37.7136 16.0043C37.1027 15.0656 35.8122 14.5683 34.4725 14.8695C33.1363 15.175 32.1882 16.1808 32.0427 17.2915" stroke="#0C0D0C" stroke-width="0.816"/>
<path d="M12.4375 26.1762L6.89746 26.1116" stroke="#0C0D0C" stroke-width="0.816"/>
<path d="M13.8633 30.7646L9.34009 33.9585" stroke="#0C0D0C" stroke-width="0.816"/>
<path d="M12.8317 28.4883L7.94714 30.0095" stroke="#0C0D0C" stroke-width="0.816"/>
<path d="M41.6998 19.3704L46.7323 17.0508" stroke="#0C0D0C" stroke-width="0.816"/>
<path d="M42.266 24.1431L47.702 25.2108" stroke="#0C0D0C" stroke-width="0.816"/>
<path d="M42.2806 21.6411L47.3613 21.0371" stroke="#0C0D0C" stroke-width="0.816"/>
<path fill-rule="evenodd" clip-rule="evenodd" d="M15.4722 22.067C15.5557 22.4576 14.7882 22.9523 13.7592 23.1683C12.731 23.3843 11.8301 23.2406 11.7492 22.849C11.6667 22.4576 12.435 21.9654 13.4632 21.7502C14.4923 21.5352 15.3897 21.6738 15.4722 22.067Z" fill="#FEFBF5"/>
<path fill-rule="evenodd" clip-rule="evenodd" d="M40.0608 17.0119C40.1399 17.4024 39.3733 17.8989 38.3442 18.1132C37.3161 18.3291 36.4178 18.1862 36.3343 17.7957C36.2518 17.4024 37.0192 16.912 38.0474 16.6961C39.0765 16.4801 39.9781 16.6204 40.0608 17.0119Z" fill="#FEFBF5"/>
</svg>
