<svg width="111" height="113" viewBox="0 0 111 113" fill="none" xmlns="http://www.w3.org/2000/svg">
<path fill-rule="evenodd" clip-rule="evenodd" d="M52.1893 104.494C17.6188 98.733 19.7205 63.9328 19.7205 63.9328L17.0675 60.6101C17.0675 60.6101 8.74637 57.8965 9.29429 68.8715C9.84478 79.8466 22.8306 126.582 76.8822 108.473L52.1893 104.494Z" fill="#AFB0B0"/>
<path fill-rule="evenodd" clip-rule="evenodd" d="M33.499 104.129C32.4153 102.84 30.4943 102.672 29.2057 103.754C29.1306 103.815 28.8454 104.059 28.428 104.428C30.0414 105.647 31.781 106.766 33.6537 107.763C34.3916 106.663 34.3916 105.196 33.499 104.129Z" fill="#9D9E9E"/>
<path fill-rule="evenodd" clip-rule="evenodd" d="M26.3834 91.7572C25.3947 90.3944 23.4892 90.0903 22.1265 91.0745C21.9242 91.2205 20.5364 92.2394 18.5297 93.9064C19.6514 95.5622 20.9019 97.1781 22.2829 98.7354C24.2938 97.0528 25.6531 96.0496 25.705 96.0167C27.0643 95.0229 27.372 93.1234 26.3834 91.7572Z" fill="#9D9E9E"/>
<path fill-rule="evenodd" clip-rule="evenodd" d="M21.3815 80.4133C20.5865 78.9286 18.744 78.3651 17.2577 79.1577C17.0054 79.295 15.1292 80.3104 12.4286 82.0811C13.1235 83.9193 13.9565 85.8342 14.927 87.7639C17.9403 85.7271 20.062 84.5717 20.125 84.5388C21.6079 83.749 22.1705 81.9014 21.3815 80.4133Z" fill="#9D9E9E"/>
<path d="M52.5193 104.574C17.9481 98.8126 19.7205 63.9328 19.7205 63.9328L17.0675 60.6101C17.0675 60.6101 8.74637 57.8965 9.29429 68.8715C9.84478 79.8466 22.8306 126.582 76.8822 108.473" stroke="#0C0D0C" stroke-width="0.816"/>
<path d="M57.5126 70.2497C55.4282 72.768 52.9929 74.9932 50.2959 76.8434C48.8725 77.8225 47.2652 78.844 46.795 80.505C46.1963 82.6394 47.9281 84.8984 50.0461 85.5448C52.166 86.1912 54.4638 85.5992 56.4945 84.7187C62.7668 81.9896 67.7003 76.35 69.5669 69.7676" stroke="#0C0D0C" stroke-width="0.816"/>
<path d="M52.0043 75.3647L58.7752 83.2304" stroke="#0C0D0C" stroke-width="0.816"/>
<path fill-rule="evenodd" clip-rule="evenodd" d="M34.2931 82.5902L31.1527 84.8767L30.7863 73.1698L27.8602 70.6093C23.1055 68.079 19.6903 64.4512 17.2517 60.5183C10.849 50.3055 11.0331 38.0498 11.0331 38.0498L1.15466 32.9287L7.74054 28.1723L12.4943 25.2462C12.4943 25.2462 19.476 -0.819871 58.9558 1.1012C92.9791 2.74753 117.308 41.3423 107.797 80.1212C103.346 98.1686 90.4782 106.705 76.8822 108.473C61.2726 110.485 44.6891 103.565 38.836 91.8273L34.2931 82.5902Z" fill="#AFB0B0"/>
<path fill-rule="evenodd" clip-rule="evenodd" d="M36.6963 44.7699C37.3419 44.5132 38.6373 46.2631 38.6373 46.2631C38.6373 46.2631 38.8836 48.4253 38.2346 48.681C37.5856 48.9342 36.7163 48.2662 36.291 47.187C35.865 46.1076 36.0473 45.0257 36.6963 44.7699Z" fill="#0C0D0C"/>
<path d="M43.1924 51.7382C44.9691 50.601 45.9258 48.8726 45.3718 47.4614C45.0443 46.6318 44.2545 46.0744 43.2424 45.8298C43.818 44.9613 44.0203 44.0159 43.6928 43.1872C43.1388 41.7786 41.2636 41.1564 39.1877 41.5349" stroke="#0C0D0C" stroke-width="0.816"/>
<path d="M39.3425 60.7958C40.3639 59.7415 40.6206 57.9578 39.8429 56.3418C39.0659 54.7292 37.5087 53.8149 36.0491 53.955" stroke="#0C0D0C" stroke-width="0.816"/>
<path fill-rule="evenodd" clip-rule="evenodd" d="M42.4181 54.8028C43.0671 54.4096 44.2544 55.1865 45.0702 56.5337C45.8834 57.8818 46.0208 59.2931 45.3718 59.6862C44.7228 60.0768 43.5345 59.3026 42.7179 57.9544C41.9065 56.6046 41.7691 55.196 42.4181 54.8028Z" fill="#D1D1D1"/>
<path d="M52.6741 53.293L58.4952 59.5979" stroke="#0C0D0C" stroke-width="0.816"/>
<path d="M50.5836 55.0032L54.9347 62.1948" stroke="#0C0D0C" stroke-width="0.816"/>
<path d="M48.2952 56.3875L50.2249 64.3716" stroke="#0C0D0C" stroke-width="0.816"/>
<path fill-rule="evenodd" clip-rule="evenodd" d="M11.3069 35.2151L5.27155 31.9227L11.5809 28.6301L11.3069 35.2151Z" fill="#0C0D0C"/>
<path fill-rule="evenodd" clip-rule="evenodd" d="M38.6814 77.0359L33.1835 81.1631L32.8041 74.0571L38.6814 77.0359Z" fill="#0C0D0C"/>
<path d="M32.4689 41.8607C33.1057 40.5437 32.7869 38.7669 31.5424 37.4767C30.298 36.1908 28.5352 35.8123 27.1931 36.4034" stroke="#0C0D0C" stroke-width="0.816"/>
<path fill-rule="evenodd" clip-rule="evenodd" d="M32.2269 33.3521C32.8758 32.9589 34.0606 33.7333 34.8765 35.0839C35.6922 36.4312 35.8271 37.8397 35.1781 38.2329C34.529 38.6262 33.3408 37.8518 32.5285 36.5046C31.7127 35.1539 31.5779 33.7454 32.2269 33.3521Z" fill="#D1D1D1"/>
<path d="M35.19 32.8216L29.369 26.52" stroke="#0C0D0C" stroke-width="0.816"/>
<path d="M37.2797 31.1115L32.9295 23.9199" stroke="#0C0D0C" stroke-width="0.816"/>
<path d="M39.5689 29.7277L37.6392 21.7402" stroke="#0C0D0C" stroke-width="0.816"/>
<path fill-rule="evenodd" clip-rule="evenodd" d="M54.6988 23.8652C54.3394 25.508 55.3807 27.1335 57.0243 27.493C57.2447 27.5414 57.4616 27.5629 57.6793 27.5629C59.0811 27.5629 60.3436 26.5908 60.653 25.1667C62.8057 15.3289 62.6509 7.01559 62.034 1.35434C61.0159 1.23859 59.9919 1.15299 58.9558 1.10111C57.8937 1.04934 56.8662 1.02773 55.8516 1.01562C56.4912 6.10386 56.8161 14.1795 54.6988 23.8652Z" fill="#9D9E9E"/>
<path fill-rule="evenodd" clip-rule="evenodd" d="M67.0452 32.7056C67.6407 33.3036 68.4211 33.5992 69.2014 33.5992C69.9809 33.5992 70.7612 33.3036 71.3566 32.7056C78.6588 25.4043 81.6515 15.8439 82.8899 9.10941C81.0743 7.9022 79.1886 6.80815 77.2391 5.85059C76.4181 11.6613 74.0321 21.4074 67.0452 28.3952C65.8544 29.5868 65.8544 31.5165 67.0452 32.7056Z" fill="#9D9E9E"/>
<path fill-rule="evenodd" clip-rule="evenodd" d="M79.4686 34.7186C77.831 35.1083 76.819 36.752 77.2097 38.3888C77.5433 39.7913 78.7928 40.7333 80.1711 40.7333C80.4071 40.7333 80.6413 40.7056 80.8797 40.6511C88.3557 38.8701 94.9614 31.7242 99.234 25.9749C98.0673 24.1575 96.8194 22.4145 95.4912 20.7527C91.5912 26.3041 85.4945 33.2858 79.4686 34.7186Z" fill="#9D9E9E"/>
<path fill-rule="evenodd" clip-rule="evenodd" d="M82.952 73.6027C82.1811 75.0969 82.7671 76.9349 84.2621 77.7093C84.8307 78.0022 95.3901 83.386 106.388 84.6935C106.912 83.2365 107.398 81.7303 107.797 80.1212C107.907 79.664 107.993 79.2095 108.094 78.755C97.9308 77.8225 87.1908 72.3566 87.0577 72.2892C85.5601 71.5175 83.7255 72.106 82.952 73.6027Z" fill="#9D9E9E"/>
<path fill-rule="evenodd" clip-rule="evenodd" d="M74.2801 84.9348C73.4047 86.3711 73.8576 88.2454 75.2921 89.1269C75.8935 89.4924 86.1789 95.6963 97.707 98.632C99.2824 97.0773 100.726 95.3092 102.042 93.3613C90.4039 91.1085 78.6209 84.0145 78.4722 83.9228C77.0308 83.0475 75.1572 83.4959 74.2801 84.9348Z" fill="#9D9E9E"/>
<path fill-rule="evenodd" clip-rule="evenodd" d="M65.7412 93.9223C64.6783 95.2272 64.8684 97.1448 66.1725 98.2119C66.6132 98.5715 72.7617 103.528 81.2644 107.641C84.1309 106.94 86.9265 105.913 89.5734 104.532C78.8827 100.629 70.1554 93.5904 70.031 93.4928C68.7305 92.4281 66.8094 92.6208 65.7412 93.9223Z" fill="#9D9E9E"/>
<path d="M53.47 34.7573C58.5902 37.6843 62.6155 46.0988 62.6155 46.0988C72.4938 71.7068 41.7638 77.1942 41.7638 77.1942L34.841 82.1943L34.2931 82.5902M34.2931 82.5902L31.1527 84.8767L30.7863 73.1698L27.8602 70.6093C23.1055 68.079 19.6903 64.4512 17.2517 60.5183C10.849 50.3055 11.0331 38.0498 11.0331 38.0498L1.15466 32.9287L7.74054 28.1723L12.4943 25.2462C12.4943 25.2462 19.476 -0.819871 58.9558 1.1012C92.9791 2.74753 117.308 41.3423 107.797 80.1212C103.346 98.1686 90.4782 106.705 76.8822 108.473C61.2726 110.485 44.6891 103.565 38.836 91.8273L34.2931 82.5902ZM34.2931 82.5902L34.2638 82.4985" stroke="#0C0D0C" stroke-width="0.816"/>
</svg>
