<svg width="88" height="116" viewBox="0 0 88 116" fill="none" xmlns="http://www.w3.org/2000/svg">
<path fill-rule="evenodd" clip-rule="evenodd" d="M75.9556 58.9466C76.9096 47.1411 76.2271 34.9161 71.5078 24.0522C66.787 13.1884 57.5189 3.84169 45.9556 1.26799C43.3055 0.680288 39.7779 0.911693 38.867 3.46989C38.2292 5.25919 39.3876 7.2652 40.9602 8.3311C42.5335 9.3985 44.4485 9.78951 46.2502 10.3942C56.0173 13.6589 62.5305 23.2956 65.0116 33.2895C67.4904 43.2856 66.6397 53.7577 66.0057 64.0369C65.8376 66.7578 65.7312 69.6708 67.1425 72.0008C68.6256 74.4603 71.5957 75.2115 73.8462 73.6713C72.5528 69.7071 75.5993 63.3589 75.9556 58.9466Z" fill="white"/>
<path d="M75.9556 58.9466C76.9096 47.1411 76.2271 34.9161 71.5078 24.0522C66.787 13.1884 57.5189 3.84169 45.9556 1.26799C43.3055 0.680288 39.7779 0.911693 38.867 3.46989C38.2292 5.25919 39.3876 7.2652 40.9602 8.3311C42.5335 9.3985 44.4485 9.78951 46.2502 10.3942C56.0173 13.6589 62.5305 23.2956 65.0116 33.2895C67.4904 43.2856 66.6397 53.7577 66.0057 64.0369C65.8376 66.7578 65.7312 69.6708 67.1425 72.0008C68.6256 74.4603 71.5957 75.2115 73.8462 73.6713C72.5528 69.7071 75.5993 63.3589 75.9556 58.9466Z" stroke="#0C0D0C" stroke-width="0.816"/>
<path fill-rule="evenodd" clip-rule="evenodd" d="M38.9111 109.942C38.9111 109.942 6.70056 111.67 1.74536 78.2255C-3.20994 44.785 17.2305 27.4858 42.6293 26.3321C68.0273 25.179 89.09 41.9013 87.2298 79.3786C85.3718 116.861 38.9111 109.942 38.9111 109.942Z" fill="white"/>
<path d="M38.9111 109.942C38.9111 109.942 6.70056 111.67 1.74536 78.2255C-3.20994 44.785 17.2305 27.4858 42.6293 26.3321C68.0273 25.179 89.0901 41.9013 87.2298 79.3786C85.3719 116.861 38.9111 109.942 38.9111 109.942Z" stroke="#0C0D0C" stroke-width="0.816"/>
<path fill-rule="evenodd" clip-rule="evenodd" d="M18.6411 98.9944C19.6406 103.156 21.1199 108.528 24.2157 112.037C25.1458 113.106 26.2479 113.999 27.5213 114.655C31.1685 116.477 36.0204 114.17 33.5794 109.597C33.4414 109.355 33.3373 109.147 33.2339 108.937C31.0305 104.571 32.2351 104.293 32.2351 104.293L18.6411 98.9944Z" fill="white"/>
<path fill-rule="evenodd" clip-rule="evenodd" d="M33.5793 109.597C36.0203 114.17 31.1684 116.477 27.5212 114.655C26.2478 113.999 25.1457 113.106 24.2156 112.037L24.3536 111.899C24.3536 111.899 30.5506 110.66 33.1644 108.974L33.2338 108.938C33.3372 109.147 33.4413 109.355 33.5793 109.597Z" fill="#B6B2B1"/>
<path d="M18.6411 98.9944C19.6406 103.156 21.1199 108.528 24.2157 112.037C25.1458 113.106 26.2479 113.999 27.5213 114.655C31.1685 116.477 36.0204 114.17 33.5794 109.597C33.4414 109.355 33.3373 109.147 33.2339 108.937C31.0305 104.571 32.2351 104.293 32.2351 104.293" stroke="#0C0D0C" stroke-width="0.816"/>
<path fill-rule="evenodd" clip-rule="evenodd" d="M67.6816 98.9944C66.6505 103.295 65.1026 108.908 61.7615 112.419C60.9378 113.31 59.9738 114.102 58.837 114.655C55.1913 116.477 50.3363 114.17 52.7811 109.597C52.9192 109.319 53.0557 109.044 53.193 108.805C55.2923 104.571 54.0884 104.293 54.0884 104.293L67.6816 98.9944Z" fill="white"/>
<path fill-rule="evenodd" clip-rule="evenodd" d="M53.193 108.805C53.5732 109.009 59.3545 111.765 61.7615 112.419C60.9378 113.311 59.9738 114.102 58.837 114.655C55.1913 116.477 50.3363 114.171 52.7811 109.597C52.9192 109.319 53.0557 109.044 53.193 108.805Z" fill="#B6B2B1"/>
<path d="M67.6816 98.9944C66.6505 103.295 65.1026 108.908 61.7615 112.419C60.9378 113.31 59.9738 114.102 58.837 114.655C55.1913 116.477 50.3363 114.17 52.7811 109.597C52.9192 109.319 53.0557 109.044 53.193 108.805C55.2923 104.571 54.0884 104.293 54.0884 104.293" stroke="#0C0D0C" stroke-width="0.816"/>
<path fill-rule="evenodd" clip-rule="evenodd" d="M57.2005 104.53C69.9245 100.188 75.4775 91.2558 78.9474 79.1102C84.2489 60.5562 73.2062 32.2876 73.2062 32.2876C73.2062 32.2876 70.1135 29.1942 66.1385 42.0038C66.1385 42.0038 55.0957 39.795 44.0538 40.6819H41.9598C30.914 39.795 19.8713 42.0038 19.8713 42.0038C15.8962 29.1942 12.8035 32.2876 12.8035 32.2876C12.8035 32.2876 1.76389 60.5547 7.06229 79.1071C10.1072 89.768 16.5233 99.5243 26.939 103.404C35.2075 106.482 48.6257 107.76 57.2005 104.53Z" fill="white"/>
<path fill-rule="evenodd" clip-rule="evenodd" d="M68.854 42.7958C68.854 42.7958 70.9179 34.5381 71.9491 35.5685C72.9833 36.6028 74.6353 43.4136 74.6353 43.4136L68.854 42.7958Z" fill="#B6B2B1"/>
<path fill-rule="evenodd" clip-rule="evenodd" d="M17.8498 42.7958C17.8498 42.7958 15.7844 34.5381 14.754 35.5685C13.7205 36.6028 12.0677 43.4136 12.0677 43.4136L17.8498 42.7958Z" fill="#B6B2B1"/>
<path fill-rule="evenodd" clip-rule="evenodd" d="M50.1914 48.5825C48.655 49.7232 46.8063 50.3602 44.9407 50.7751C44.0476 50.9772 43.0511 51.0914 41.9992 51.1291C41.9884 53.7491 42.5282 56.4053 43.7792 59.0391C47.4804 66.8418 55.948 71.7793 64.5605 72.4596C68.8671 72.8036 73.4137 72.1195 76.939 69.6222C78.3095 68.6504 79.4764 67.3562 80.3379 65.8978C80.2315 61.885 79.7641 57.8444 79.0939 53.9967C77.9062 52.6909 76.4532 51.5757 74.9492 50.6502C71.9892 48.8254 68.7214 47.4889 65.9418 45.3995C64.414 44.2511 63.072 42.866 61.9267 41.3343C59.7741 41.0466 56.9475 40.7412 53.7831 40.5808C53.9111 43.6257 52.6478 46.7569 50.1914 48.5825Z" fill="#FFAA52"/>
<path fill-rule="evenodd" clip-rule="evenodd" d="M41.9992 51.1293C43.0511 51.0916 44.0476 50.9774 44.9407 50.7753C46.8063 50.3604 48.655 49.7234 50.1914 48.5827C52.6478 46.7571 53.9111 43.6259 53.7831 40.581C50.7436 40.4314 47.401 40.4121 44.0538 40.682H41.9598C36.5148 40.2432 31.0783 40.5617 26.9598 40.9913C26.6019 48.3459 35.4019 51.3684 41.9992 51.1293Z" fill="#B6B2B1"/>
<path d="M57.2005 104.53C69.9245 100.188 75.4775 91.2558 78.9474 79.1102C84.2489 60.5562 73.2062 32.2876 73.2062 32.2876C73.2062 32.2876 70.1135 29.1942 66.1385 42.0038C66.1385 42.0038 55.0957 39.795 44.0538 40.6819H41.9598C30.914 39.795 19.8713 42.0038 19.8713 42.0038C15.8962 29.1942 12.8035 32.2876 12.8035 32.2876C12.8035 32.2876 1.76389 60.5547 7.06229 79.1071C10.1072 89.768 16.5233 99.5243 26.939 103.404C35.2075 106.482 48.6257 107.76 57.2005 104.53Z" stroke="#0C0D0C" stroke-width="0.816"/>
<path fill-rule="evenodd" clip-rule="evenodd" d="M41.4831 61.0846L40.4203 62.9248C39.956 63.7292 40.5375 64.7365 41.4677 64.7365H43.5932C44.5226 64.7365 45.1056 63.7292 44.6398 62.9248L43.577 61.0846C43.1127 60.2794 41.9489 60.2794 41.4831 61.0846L40.4203 62.9248C39.956 63.7292 40.5375 64.7365 41.4677 64.7365H43.5932C44.5226 64.7365 45.1056 63.7292 44.6398 62.9248L43.577 61.0846C43.1127 60.2794 41.9489 60.2794 41.4831 61.0846Z" fill="#0C0D0C"/>
<path d="M36.4507 66.3082C36.4507 68.2649 38.0341 69.8489 39.9899 69.8489C41.1407 69.8489 42.1564 69.2905 42.8012 68.4391C43.4475 69.2905 44.4624 69.8489 45.6124 69.8489C47.5682 69.8489 49.1547 68.2649 49.1547 66.3082C49.1547 66.2874 49.1467 66.2626 49.1467 66.2402" stroke="#0C0D0C" stroke-width="0.816"/>
<path d="M35.216 62.3315C34.69 60.9572 33.1699 59.9638 31.3706 59.9877C29.5689 60.0101 28.0797 61.0412 27.5868 62.431" stroke="#0C0D0C" stroke-width="0.816"/>
<path d="M59.5281 62.3315C59.0021 60.9572 57.4843 59.9638 55.6826 59.9877C53.8841 60.0101 52.391 61.0412 51.902 62.431" stroke="#0C0D0C" stroke-width="0.816"/>
<path d="M25.5731 69.0871L18.4822 67.4922" stroke="#0C0D0C" stroke-width="0.816"/>
<path d="M26.15 75.3657L19.4702 78.2255" stroke="#0C0D0C" stroke-width="0.816"/>
<path d="M25.4489 72.1636L18.7637 72.776" stroke="#0C0D0C" stroke-width="0.816"/>
<path d="M61.531 69.0871L68.6219 67.4922" stroke="#0C0D0C" stroke-width="0.816"/>
<path d="M60.9541 75.3657L67.637 78.2255" stroke="#0C0D0C" stroke-width="0.816"/>
<path d="M61.6591 72.1636L68.3403 72.776" stroke="#0C0D0C" stroke-width="0.816"/>
<path fill-rule="evenodd" clip-rule="evenodd" d="M27.4488 65.2015C27.4735 65.6912 26.4554 66.1431 25.1728 66.2056C23.8887 66.2735 22.8259 65.9303 22.802 65.4413C22.7758 64.9516 23.7961 64.5019 25.0787 64.4371C26.3629 64.3724 27.4256 64.714 27.4488 65.2015Z" fill="#FFECCB"/>
<path fill-rule="evenodd" clip-rule="evenodd" d="M63.1999 65.0402C63.2261 65.5284 62.2058 65.9765 60.9224 66.0451C59.6391 66.1099 58.5786 65.7675 58.5524 65.2808C58.5285 64.791 59.5488 64.3391 60.8322 64.2728C62.1155 64.208 63.1752 64.5504 63.1999 65.0402Z" fill="#FFECCB"/>
</svg>
