<svg width="91" height="116" viewBox="0 0 91 116" fill="none" xmlns="http://www.w3.org/2000/svg">
<path fill-rule="evenodd" clip-rule="evenodd" d="M78.4963 78.1688C78.4963 78.1688 84.3868 60.8014 83.2437 44.0567C82.1015 27.3084 80.1329 22.3771 86.3428 21.7885C92.5501 21.1962 92.7591 68.0817 77.8628 96.5661L78.4963 78.1688Z" fill="#FFCD3C"/>
<path d="M78.4963 78.1688C78.4963 78.1688 84.3868 60.8014 83.2437 44.0567C82.1015 27.3084 80.1329 22.3771 86.3428 21.7885C92.5501 21.1962 92.7591 68.0817 77.8628 96.5661" stroke="#0C0D0C" stroke-width="0.816"/>
<path fill-rule="evenodd" clip-rule="evenodd" d="M63.4636 105.565C103.325 102.663 80.4685 50.0736 75.3685 36.6498C70.1204 22.8418 73.1595 14.8311 73.1595 14.8311C73.1595 14.8311 76.1949 1.57766 73.7104 1.02401C71.2249 0.473142 62.9388 9.58573 62.9388 9.58573C62.9388 9.58573 56.8607 9.67715 48.8562 9.70321H38.3628C30.3548 9.67715 24.2767 9.58573 24.2767 9.58573C24.2767 9.58573 15.9932 0.473142 13.5087 1.02401C11.0242 1.57766 14.0596 14.8311 14.0596 14.8311C14.0596 14.8311 17.0978 22.8418 11.8497 36.6498C6.60163 50.4567 -17.4225 105.688 27.3157 105.688L63.4636 105.565Z" fill="#FFCD3C"/>
<path fill-rule="evenodd" clip-rule="evenodd" d="M17.0977 13.7292C17.0977 13.7292 13.7841 5.71852 15.4396 5.16672C17.0978 4.61668 21.2386 11.242 21.2386 11.242L17.0977 13.7292Z" fill="#8F6C1E"/>
<path fill-rule="evenodd" clip-rule="evenodd" d="M70.3959 13.7292C70.3959 13.7292 73.7103 5.71852 72.0548 5.16672C70.3958 4.61668 66.2523 11.242 66.2523 11.242L70.3959 13.7292Z" fill="#8F6C1E"/>
<path fill-rule="evenodd" clip-rule="evenodd" d="M77.2806 41.3693C76.3564 40.9575 75.897 41.5174 75.138 40.6597C75.1818 41.3128 74.9101 42.1572 75.0015 42.8041C74.6696 42.3411 73.5902 41.7587 73.286 41.398C73.1532 41.765 72.9442 42.49 72.8741 42.8041C72.3644 42.7529 72.3142 42.2118 71.8486 42.141C71.6144 42.3698 71.583 43.0113 71.3012 43.1737C70.823 42.9826 70.5511 42.613 69.9814 42.5178C69.9401 42.7305 69.8961 42.9359 69.8576 43.1486C69.3389 43.1288 68.953 42.9135 68.5412 42.8794C68.2847 43.3253 68.2407 43.8287 68.0155 44.2567C67.6736 44.1777 66.946 44.0153 66.6041 43.9831C65.7301 45.3039 65.4044 45.3989 64.1096 45.0983C63.8154 45.2913 63.8181 45.87 63.5687 46.1194C63.2393 45.9203 62.9541 45.529 62.5556 45.3765C62.4579 45.4968 61.8593 46.4182 61.7355 46.4783C61.8405 46.469 60.8365 46.4299 61.0707 46.3007C60.9316 46.3222 60.5332 47.1074 60.4381 47.2213C60.1249 47.0158 59.8432 46.3797 59.7095 46.184C59.4278 46.4281 59.0671 47.3855 58.9631 47.6026C58.8302 47.329 58.9092 46.779 58.5861 46.6175C58.5072 47.7102 58.3833 48.9943 58.5036 50.1338C58.4978 49.7193 58.4943 49.3074 58.4884 48.8928C58.6499 50.5483 58.8805 52.2235 59.2285 53.8215C59.4313 52.7242 59.6091 51.7704 59.6091 50.6623C59.7068 51.8592 60.159 52.245 60.6211 53.1414C60.7199 52.5717 60.9827 51.9668 61.0832 51.3783C61.1434 52.708 61.5265 53.9677 62.1312 55.1638C62.137 54.1886 62.2703 53.1216 62.1788 52.1195C62.3402 53.0123 62.6983 53.6861 62.9514 54.5366C62.9388 53.7668 63.2106 53.2052 63.2743 52.4864C63.7903 53.7265 64.4228 54.9323 65.085 56.1131C65.2968 54.6604 65.0943 53.1701 64.7297 51.7606C65.4331 53.4868 65.958 55.354 67.2653 56.4496C67.7274 55.303 67.8988 53.9984 67.7813 52.7457C68.212 53.6636 68.7342 55.2841 69.2061 56.4433C69.1299 55.0983 69.1398 53.7265 69.2564 52.394C69.4529 53.0652 70.3133 54.315 70.5735 55.1324C70.6588 54.8409 71.6592 53.4994 71.7409 53.233C72.036 53.8278 72.5735 54.2459 72.8652 54.743C73.6117 53.8853 74.1123 52.6955 74.2612 51.4698C74.2452 52.0808 74.4093 52.8659 74.413 53.5075C74.6435 53.0328 75.2007 52.3975 75.4411 51.7237C75.5175 52.4093 75.9571 52.9799 76.0782 53.5523C76.4578 53.2231 76.8885 52.7296 77.2105 52.4541C77.5623 53.0203 77.5148 53.1279 77.9894 53.5237C78.281 52.9028 78.8921 52.4218 79.1701 51.73C79.1608 52.15 79.2276 52.7358 79.1794 53.1252C84.3612 52.5878 75.853 43.8574 77.2806 41.3693Z" fill="#8B681E"/>
<path fill-rule="evenodd" clip-rule="evenodd" d="M63.119 61.9596C63.2706 62.2917 63.4223 62.63 63.5748 62.9664C63.9166 62.5142 64.2549 62.0575 64.5967 61.6079C64.7645 61.8493 64.936 62.0925 65.1037 62.3339C65.5344 61.9247 65.9642 61.52 66.3985 61.1117C66.4236 61.4563 66.4487 61.7981 66.4739 62.1472C67.0885 62.21 67.7084 61.7353 67.8 61.1243C67.9175 61.4509 68.0342 61.7757 68.1517 62.1024C68.5913 61.9973 68.9369 61.5765 68.9529 61.1243C68.9622 61.6743 69.2912 62.2064 69.7758 62.4657C69.9211 61.5927 70.3203 60.7637 70.9153 60.1015C71.0104 60.6146 71.3011 61.0893 71.7129 61.4025C72.0296 60.9251 72.349 60.4433 72.6622 59.9659C72.5796 60.5501 72.9789 61.1683 73.5488 61.336C73.9471 60.428 74.3464 59.5129 74.7447 58.6048C74.7672 59.25 74.9252 59.8968 75.2068 60.481C75.3907 59.7875 75.5712 59.0975 75.7551 58.4056C75.9704 59.215 76.1849 60.0252 76.4002 60.8328C76.9861 59.6681 77.4419 58.4425 77.7712 57.18C77.9139 58.699 78.1858 60.2056 78.5814 61.6806C79.3756 60.3581 79.7623 58.7915 79.6734 57.2491C80.1265 58.7125 80.5761 60.175 81.0247 61.6403C81.0597 60.0045 81.092 58.3608 81.1261 56.7232C81.6456 56.2118 82.3858 57.0724 82.5886 57.7748C84.1112 63.0175 85.2921 68.3599 86.1059 73.7568C85.1117 72.6433 84.1148 71.5217 83.1171 70.4074C83.3387 71.1036 83.3674 71.8583 83.2032 72.5662C82.7815 71.5092 82.3607 70.4522 81.9399 69.3926C81.9294 70.7214 81.921 72.0512 81.9112 73.3836C81.6168 72.3553 81.2122 71.3549 80.7053 70.4074C80.4523 71.3916 80.3068 72.4082 80.2746 73.4249C79.6922 72.1544 79.11 70.8856 78.5312 69.616C78.2682 70.6774 78.2046 71.7873 78.3473 72.8766C77.6599 71.7532 76.9798 70.629 76.2926 69.5084C76.1535 70.8964 76.0108 72.288 75.8717 73.6743C75.1504 72.507 74.4316 71.3387 73.7102 70.1705C73.5362 71.3711 73.3621 72.5698 73.1844 73.7694C72.5043 72.471 71.9758 71.0973 71.608 69.6771C71.1459 70.5573 70.9592 71.5756 71.0831 72.5635C70.5348 71.4499 69.9911 70.332 69.4428 69.2203C69.0095 70.594 68.8354 72.0512 68.9431 73.4912C68.3733 71.9309 67.8036 70.3706 67.2338 68.8129C66.9619 70.3096 66.6892 71.8008 66.4173 73.2983C65.7336 72.1203 65.2113 70.8515 64.8659 69.5307C64.6757 70.9269 64.4828 72.3231 64.2934 73.7191C63.8753 72.2378 63.4545 70.7528 63.0364 69.2687C62.6632 70.3545 62.4792 71.5065 62.4855 72.6523C62.0836 71.2534 61.6788 69.8574 61.2706 68.4639C60.979 69.5935 60.6847 70.7241 60.3904 71.861C59.7417 70.9269 59.2634 69.8762 58.9852 68.7744C58.7762 69.9085 58.5609 71.0409 58.3482 72.1705C57.8108 70.908 57.5443 69.5343 57.5667 68.1606C57.0068 68.7457 56.7189 69.5855 56.8004 70.3957C56.5384 68.0655 56.5349 65.6376 56.9593 63.3297C58.795 64.2351 59.4438 61.0256 61.0167 63.7865C61.9669 62.577 61.302 62.7798 62.5044 63.1046C62.6093 62.9341 63.1916 62.1248 63.119 61.9596Z" fill="#8B681E"/>
<path d="M37.0967 28.7432C37.0967 30.7029 38.6857 32.2919 40.6417 32.2919C41.7974 32.2919 42.8131 31.7312 43.4591 30.8797C44.1079 31.7312 45.1209 32.2919 46.273 32.2919C48.2353 32.2919 49.8217 30.7029 49.8217 28.7432C49.8217 28.7208 49.8158 28.6985 49.8158 28.6733" stroke="#0C0D0C" stroke-width="0.816"/>
<path d="M35.8595 24.7575C35.3337 23.3775 33.811 22.387 32.0102 22.4121C30.2058 22.4363 28.7119 23.4663 28.2211 24.8553" stroke="#0C0D0C" stroke-width="0.816"/>
<path d="M60.2128 24.7575C59.6879 23.3775 58.1653 22.387 56.3645 22.4121C54.5601 22.4363 53.0661 23.4663 52.5753 24.8553" stroke="#0C0D0C" stroke-width="0.816"/>
<path fill-rule="evenodd" clip-rule="evenodd" d="M70.7286 29.2439C70.9341 30.5242 71.2634 31.7903 71.7003 33.0123C71.013 32.2757 70.4658 31.409 70.1014 30.4678C69.9561 31.313 70.0037 32.1959 70.2378 33.0222C69.7721 32.3646 69.3074 31.705 68.839 31.0474C68.7878 31.6664 68.7375 32.2873 68.6865 32.9047C68.0978 32.3888 67.5056 31.8728 66.9207 31.3578C66.7143 32.1393 66.6389 32.955 66.6928 33.7625C66.1382 33.3543 65.6412 32.8697 65.214 32.3358C65.1163 33.3955 65.0211 34.4588 64.9261 35.5265C64.5491 34.8832 64.1696 34.2416 63.7928 33.6018C63.6062 34.3897 63.5209 35.2035 63.5335 36.0128C63.0014 35.5157 62.5366 34.9531 62.1562 34.3331C62.162 35.0106 62.0745 35.6907 61.8906 36.3457C61.5739 36.0065 61.2571 35.662 60.9413 35.3228C60.8812 36.0325 60.8175 36.7476 60.7573 37.4601C60.1787 37.0904 59.6967 36.5673 59.3711 35.9662C59.4151 36.5386 59.3653 37.1147 59.2194 37.6691C58.8992 37.2385 58.5761 36.8104 58.2541 36.3843C58.3169 37.0456 58.3805 37.7104 58.4407 38.3753C58.263 38.0263 58.089 37.6808 57.9121 37.3398C57.8171 37.9823 57.8799 38.6507 58.0953 39.2636C57.896 38.8087 57.6143 38.3906 57.2688 38.0361C57.1333 38.5395 57.0947 39.068 57.1585 39.5839C57.1836 39.8028 57.2787 40.0684 57.494 40.0872C57.7156 40.1061 57.6905 39.6386 57.5033 39.7588C57.7375 40.4166 57.9717 41.0752 58.2059 41.7302C58.2274 41.1855 58.2535 40.6409 58.2723 40.0971C58.5002 40.5179 58.7218 40.9387 58.9435 41.3631C59.0475 40.9253 59.1525 40.4955 59.2529 40.0585C59.2691 40.4928 59.4468 40.9172 59.7411 41.2331C59.969 40.7521 60.1269 40.2354 60.2157 39.7078C60.4975 40.1922 60.7756 40.6759 61.0547 41.163C61.4755 40.8562 61.7662 40.3816 61.8425 39.8656C62.0579 40.2613 62.2696 40.6571 62.4849 41.0528C62.7639 40.4802 62.8994 39.8342 62.8743 39.1918C63.1624 39.6674 63.4539 40.142 63.7446 40.6184C63.8307 39.941 63.9187 39.2636 64.0076 38.5871C64.5333 39.3308 65.0618 40.0747 65.5904 40.8176C65.6818 40.0648 65.777 39.3148 65.872 38.561C66.1664 39.2348 66.597 39.8458 67.1381 40.343C67.3499 39.5113 67.5625 38.675 67.7716 37.8432C67.759 38.4578 68.0784 39.068 68.5844 39.4098C68.8698 38.6893 69.0591 37.9285 69.1417 37.1595C69.3382 37.7697 69.5311 38.3843 69.7276 38.9953C69.8129 38.2613 69.898 37.5202 69.9869 36.7817C70.275 37.4026 70.668 37.9795 71.1426 38.4803C71.4557 37.898 71.5983 37.2223 71.5446 36.5646C71.6611 36.9908 71.8137 37.4637 72.1996 37.6808C72.5827 37.8997 73.2188 37.6099 73.1148 37.1775C73.2287 37.5453 73.7034 37.7481 74.0514 37.5776C74.0731 38.0764 74.51 38.5269 75.007 38.5556C74.4373 36.4694 73.9088 30.6131 71.7276 29.7051C71.9079 30.1609 71.9753 30.6804 72.2946 31.1291C71.9878 30.762 70.804 29.7239 70.7286 29.2439Z" fill="#8B681E"/>
<path fill-rule="evenodd" clip-rule="evenodd" d="M9.65672 41.3693C10.5836 40.9575 11.043 41.5174 11.802 40.6597C11.7553 41.3128 12.0272 42.1572 11.9421 42.8041C12.2713 42.3411 13.3471 41.7587 13.654 41.398C13.7867 41.765 13.9958 42.49 14.0685 42.8041C14.5755 42.7529 14.623 42.2118 15.0913 42.141C15.3255 42.3698 15.3569 43.0113 15.6423 43.1737C16.1134 42.9826 16.3889 42.613 16.9622 42.5178C16.9999 42.7305 17.0412 42.9359 17.0852 43.1486C17.601 43.1288 17.9877 42.9135 18.4022 42.8794C18.6526 43.3253 18.6966 43.8287 18.9281 44.2567C19.2664 44.1777 19.9976 44.0153 20.3359 43.9831C21.2098 45.3039 21.5354 45.3989 22.8303 45.0983C23.1245 45.2913 23.1218 45.87 23.3722 46.1194C23.7042 45.9203 23.9823 45.529 24.3844 45.3765C24.483 45.4968 25.0778 46.4182 25.2017 46.4783C25.1003 46.469 26.1035 46.4299 25.8693 46.3007C26.0083 46.3222 26.4076 47.1074 26.5018 47.2213C26.8158 47.0158 27.094 46.3797 27.2304 46.184C27.5148 46.4281 27.8729 47.3855 27.9769 47.6026C28.1071 47.329 28.0344 46.779 28.3512 46.6175C28.4327 47.7102 28.5566 48.9943 28.4363 50.1338C28.4456 49.7193 28.4489 49.3074 28.4525 48.8928C28.2937 50.5483 28.0568 52.2235 27.7086 53.8215C27.5121 52.7242 27.3318 51.7704 27.3318 50.6623C27.2367 51.8592 26.7809 52.245 26.3215 53.1414C26.221 52.5717 25.9545 51.9668 25.8567 51.3783C25.7966 52.708 25.4161 53.9677 24.8087 55.1638C24.8029 54.1886 24.6696 53.1216 24.7585 52.1195C24.6032 53.0123 24.2425 53.6861 23.9886 54.5366C24.0021 53.7668 23.7266 53.2052 23.6666 52.4864C23.1533 53.7265 22.5171 54.9323 21.8585 56.1131C21.6432 54.6604 21.846 53.1701 22.2102 51.7606C21.5042 53.4868 20.9819 55.354 19.6746 56.4496C19.2161 55.303 19.0385 53.9984 19.156 52.7457C18.728 53.6636 18.2057 55.2841 17.7312 56.4433C17.8101 55.0983 17.7975 53.7265 17.6836 52.394C17.4907 53.0652 16.6265 54.315 16.3673 55.1324C16.2811 54.8409 15.2815 53.4994 15.1991 53.233C14.9011 53.8278 14.3664 54.2459 14.0748 54.743C13.3282 53.8853 12.8276 52.6955 12.6759 51.4698C12.6921 52.0808 12.527 52.8659 12.527 53.5075C12.2964 53.0328 11.7357 52.3975 11.4988 51.7237C11.4261 52.4093 10.9793 52.9799 10.8626 53.5523C10.4821 53.2231 10.0524 52.7296 9.72943 52.4541C9.37762 53.0203 9.42517 53.1279 8.95051 53.5237C8.66246 52.9028 8.04518 52.4218 7.76969 51.73C7.779 52.15 7.71595 52.7358 7.76039 53.1252C2.58146 52.5878 11.087 43.8574 9.65672 41.3693Z" fill="#8B681E"/>
<path fill-rule="evenodd" clip-rule="evenodd" d="M23.8245 61.9596C23.6729 62.2917 23.5176 62.63 23.3624 62.9664C23.0233 62.5142 22.6814 62.0575 22.3432 61.6079C22.1753 61.8493 22.0049 62.0925 21.8398 62.3339C21.4064 61.9247 20.9721 61.52 20.5424 61.1117C20.5163 61.4563 20.4912 61.7981 20.4661 62.1472C19.8524 62.21 19.2288 61.7353 19.1399 61.1243C19.0224 61.4509 18.9057 61.7757 18.7882 62.1024C18.3486 61.9973 18.0066 61.5765 17.9878 61.1243C17.9752 61.6743 17.6487 62.2064 17.1651 62.4657C17.0188 61.5927 16.6204 60.7637 16.0282 60.1015C15.9305 60.6146 15.6388 61.0893 15.2243 61.4025C14.9075 60.9251 14.5944 60.4433 14.2777 59.9659C14.3567 60.5501 13.961 61.1683 13.3948 61.336C12.9955 60.428 12.5972 59.5129 12.1979 58.6048C12.1728 59.25 12.0112 59.8968 11.7331 60.481C11.5527 59.7875 11.3687 59.0975 11.1857 58.4056C10.9704 59.215 10.7551 60.0252 10.5361 60.8328C9.95743 59.6681 9.49533 58.4425 9.17226 57.18C9.02696 58.699 8.75415 60.2056 8.35848 61.6806C7.56435 60.3581 7.17762 58.7915 7.26383 57.2491C6.81697 58.7125 6.36475 60.175 5.91522 61.6403C5.88381 60.0045 5.84881 58.3608 5.81379 56.7232C5.29434 56.2118 4.55674 57.0724 4.35128 57.7748C2.82597 63.0175 1.65142 68.3599 0.834961 73.7568C1.82814 72.6433 2.82597 71.5217 3.81915 70.4074C3.60114 71.1036 3.5724 71.8583 3.7376 72.5662C4.1584 71.5092 4.57922 70.4522 4.99734 69.3926C5.00991 70.7214 5.01884 72.0512 5.02873 73.3836C5.32307 72.3553 5.72862 71.3549 6.23458 70.4074C6.48494 71.3916 6.63037 72.4082 6.66527 73.4249C7.24406 72.1544 7.82727 70.8856 8.40606 69.616C8.66887 70.6774 8.7353 71.7873 8.59266 72.8766C9.27639 71.7532 9.96369 70.629 10.6473 69.5084C10.7864 70.8964 10.9255 72.288 11.0682 73.6743C11.7895 72.507 12.5083 71.3387 13.2306 70.1705C13.4047 71.3711 13.5787 72.5698 13.7527 73.7694C14.4365 72.471 14.965 71.0973 15.3319 69.6771C15.7904 70.5573 15.9806 71.5756 15.8542 72.5635C16.4015 71.4499 16.9497 70.332 17.4971 69.2203C17.9305 70.594 18.1018 72.0512 17.9968 73.4912C18.5666 71.9309 19.1363 70.3706 19.7061 68.8129C19.9788 70.3096 20.2543 71.8008 20.5262 73.2983C21.2073 72.1203 21.7259 70.8515 22.0713 69.5307C22.2606 70.9269 22.4534 72.3231 22.6473 73.7191C23.0646 72.2378 23.4827 70.7528 23.9035 69.2687C24.2767 70.3545 24.4642 71.5065 24.4508 72.6523C24.8599 71.2534 25.2647 69.8574 25.6702 68.4639C25.9608 69.5935 26.2552 70.7241 26.5468 71.861C27.1955 70.9269 27.6738 69.8762 27.9518 68.7744C28.1672 69.9085 28.3791 71.0409 28.5916 72.1705C29.1264 70.908 29.3956 69.5343 29.3732 68.1606C29.9339 68.7457 30.222 69.5855 30.1422 70.3957C30.4023 68.0655 30.4086 65.6376 29.9815 63.3297C28.1422 64.2351 27.4962 61.0256 25.9259 63.7865C24.9739 62.577 25.6352 62.7798 24.4355 63.1046C24.3306 62.9341 23.7482 62.1248 23.8245 61.9596Z" fill="#8B681E"/>
<path fill-rule="evenodd" clip-rule="evenodd" d="M16.212 29.2439C16.0029 30.5242 15.6764 31.7903 15.243 33.0123C15.9268 32.2757 16.4713 31.409 16.8419 30.4678C16.981 31.313 16.937 32.1959 16.7019 33.0222C17.1676 32.3646 17.636 31.705 18.1017 31.0474C18.152 31.6664 18.203 32.2873 18.2533 32.9047C18.842 32.3888 19.4305 31.8728 20.02 31.3578C20.2255 32.1393 20.3018 32.955 20.2506 33.7625C20.8016 33.3543 21.3014 32.8697 21.7258 32.3358C21.8235 33.3955 21.9186 34.4588 22.0137 35.5265C22.3905 34.8832 22.7701 34.2416 23.1506 33.6018C23.3309 34.3897 23.4189 35.2035 23.4063 36.0128C23.9384 35.5157 24.404 34.9531 24.7836 34.3331C24.7778 35.0106 24.8661 35.6907 25.0464 36.3457C25.3659 36.0065 25.6827 35.662 25.9993 35.3228C26.0622 36.0325 26.1223 36.7476 26.186 37.4601C26.7621 37.0904 27.243 36.5673 27.5686 35.9662C27.5247 36.5386 27.5745 37.1147 27.7212 37.6691C28.0442 37.2385 28.3637 36.8104 28.6867 36.3843C28.6229 37.0456 28.5629 37.7104 28.5 38.3753C28.6768 38.0263 28.8481 37.6808 29.025 37.3398C29.12 37.9823 29.0599 38.6507 28.8481 39.2636C29.0438 38.8087 29.3255 38.3906 29.671 38.0361C29.8037 38.5395 29.8414 39.068 29.7813 39.5839C29.7597 39.8028 29.6611 40.0684 29.4431 40.0872C29.2278 40.1061 29.2501 39.6386 29.4338 39.7588C29.2032 40.4166 28.969 41.0752 28.7348 41.7302C28.7124 41.1855 28.6899 40.6409 28.6648 40.0971C28.4432 40.5179 28.2189 40.9387 27.9972 41.3631C27.8923 40.9253 27.7908 40.4955 27.6868 40.0585C27.6707 40.4928 27.4938 40.9172 27.196 41.2331C26.9744 40.7521 26.8129 40.2354 26.724 39.7078C26.4458 40.1922 26.1641 40.6759 25.8824 41.163C25.4643 40.8562 25.1736 40.3816 25.0973 39.8656C24.8855 40.2613 24.6666 40.6571 24.4548 41.0528C24.1731 40.4802 24.0403 39.8342 24.069 39.1918C23.7774 39.6674 23.4867 40.142 23.1915 40.6184C23.1063 39.941 23.0211 39.2636 22.9322 38.5871C22.4037 39.3308 21.878 40.0747 21.3494 40.8176C21.258 40.0648 21.1628 39.3148 21.0678 38.561C20.777 39.2348 20.3401 39.8458 19.8016 40.343C19.5899 39.5113 19.3773 38.675 19.1655 37.8432C19.1817 38.4578 18.8614 39.068 18.3517 39.4098C18.0699 38.6893 17.8833 37.9285 17.7981 37.1595C17.6052 37.7697 17.4087 38.3843 17.2158 38.9953C17.1269 38.2613 17.0418 37.5202 16.9565 36.7817C16.6621 37.4026 16.2728 37.9795 15.7981 38.4803C15.4841 37.898 15.3423 37.2223 15.3961 36.5646C15.2786 36.9908 15.1269 37.4637 14.7402 37.6808C14.3571 37.8997 13.721 37.6099 13.8259 37.1775C13.712 37.5453 13.2374 37.7481 12.8892 37.5776C12.8695 38.0764 12.4297 38.5269 11.9327 38.5556C12.5024 36.4694 13.031 30.6131 15.2086 29.7051C15.0283 30.1609 14.9618 30.6804 14.6424 31.1291C14.9529 30.762 16.1358 29.7239 16.212 29.2439Z" fill="#8B681E"/>
<path fill-rule="evenodd" clip-rule="evenodd" d="M29.5535 10.6776C30.2157 10.84 30.8518 11.0921 31.4405 11.4304C31.0321 11.6538 30.6239 11.8771 30.2157 12.0997C30.8895 12.3339 31.5633 12.5708 32.2408 12.8086C31.7374 13.2733 31.1138 13.6117 30.4499 13.7803C31.0133 13.8754 31.5633 14.0711 32.064 14.35C31.5669 14.5528 31.0734 14.7619 30.5764 14.9638C31.2349 15.0688 31.8927 15.1728 32.5513 15.2779C32.1744 15.3595 31.7975 15.4483 31.418 15.5309C32.0191 15.783 32.6814 15.8843 33.3327 15.8342C32.8392 15.9104 32.3645 16.0808 31.9375 16.3285C32.3933 16.5825 32.8931 16.7485 33.4091 16.8184C33.6244 16.8481 33.9062 16.8219 33.9824 16.6166C33.9949 16.568 33.9789 16.5277 33.9536 16.499C34.5522 16.4425 35.1533 16.3877 35.7482 16.3348C35.226 16.1769 34.7038 16.0181 34.1815 15.8601C34.6463 15.7489 35.1093 15.6385 35.5741 15.5237C35.1784 15.3182 34.7828 15.1092 34.387 14.9037C34.8114 14.9952 35.2672 14.9323 35.6468 14.7198C35.2323 14.3851 34.7738 14.0989 34.283 13.8835C34.8205 13.7354 35.3624 13.5811 35.8999 13.4285C35.707 12.9476 35.3174 12.5483 34.8401 12.3455C35.2763 12.2379 35.7132 12.1284 36.1501 12.0207C35.6594 11.6054 35.068 11.3146 34.4408 11.181C34.973 11.0167 35.5041 10.8526 36.0398 10.6902C35.4064 10.4407 34.7702 10.185 34.1341 9.93373C34.3521 9.85206 34.5648 9.76863 34.7828 9.68336C33.5203 9.67754 32.3521 9.66732 31.2663 9.65918C31.3552 9.68338 31.4342 9.73454 31.523 9.75699C30.912 10.1527 30.2471 10.4587 29.5535 10.6776Z" fill="#8B681E"/>
<path fill-rule="evenodd" clip-rule="evenodd" d="M51.5273 10.6902C52.0595 10.8526 52.5906 11.0167 53.1227 11.181C52.4965 11.3146 51.9042 11.6054 51.4135 12.0207C51.8504 12.1284 52.2874 12.2379 52.7207 12.3455C52.2461 12.5483 51.8567 12.9476 51.6637 13.4285C52.2021 13.5811 52.7396 13.7354 53.2806 13.8835C52.7907 14.0989 52.3314 14.3851 51.9203 14.7198C52.2963 14.9323 52.7522 14.9952 53.1766 14.9037C52.7808 15.1092 52.3851 15.3182 51.9894 15.5237C52.4551 15.6385 52.9199 15.7489 53.382 15.8601C52.8598 16.0181 52.3375 16.1769 51.8127 16.3348C52.4138 16.3877 53.0123 16.4425 53.6135 16.499C53.5848 16.5277 53.5695 16.568 53.5848 16.6166C53.6547 16.822 53.9365 16.8481 54.1581 16.8184C54.6705 16.7485 55.1739 16.5825 55.6269 16.3285C55.199 16.0808 54.7243 15.9104 54.2335 15.8342C54.8831 15.8843 55.5444 15.783 56.1491 15.5309C55.766 15.4483 55.3892 15.3595 55.0096 15.2779C55.6674 15.1728 56.3294 15.0688 56.988 14.9638C56.4937 14.7619 55.9966 14.5528 55.4995 14.35C56.0029 14.0711 56.5475 13.8754 57.1146 13.7803C56.4497 13.6117 55.8288 13.2733 55.3254 12.8086C56.0002 12.5708 56.6777 12.3339 57.3488 12.0997C56.9406 11.8771 56.535 11.6538 56.1231 11.4304C56.7127 11.0921 57.3488 10.84 58.0101 10.6776C57.3165 10.4587 56.6525 10.1527 56.0415 9.75699C56.1366 9.73454 56.2155 9.68163 56.3043 9.65918C55.2249 9.665 54.0406 9.67533 52.7781 9.68336C52.9926 9.76863 53.2143 9.85206 53.4296 9.93373C52.7933 10.185 52.1608 10.4407 51.5273 10.6902Z" fill="#8B681E"/>
<path fill-rule="evenodd" clip-rule="evenodd" d="M45.2977 15.873C45.2034 15.8991 45.1048 15.9045 45.0132 15.9269C44.3582 16.2077 43.6899 16.4446 42.9971 16.6169C43.7625 16.3692 44.5324 16.1198 45.2977 15.873Z" fill="#8B681E"/>
<path fill-rule="evenodd" clip-rule="evenodd" d="M42.7943 10.4281C42.2309 11.0769 41.4493 11.5327 40.6041 11.704C41.3004 11.6458 41.9994 11.5892 42.6966 11.5327C42.038 11.8179 41.3857 12.106 40.7307 12.3941C41.645 12.4084 42.5629 12.4245 43.4808 12.4451C42.7442 12.4658 42.0255 12.8409 41.5822 13.4313C42.1672 13.5084 42.7531 13.5838 43.3417 13.66C42.5064 14.1033 41.671 14.5429 40.8383 14.9835C41.8101 15.0176 42.7881 15.049 43.7598 15.0768C43.2376 15.5435 42.6553 15.9409 42.0317 16.2558C43.0348 16.2684 44.0317 16.1482 45.0132 15.9265C45.5193 15.7103 46.02 15.4707 46.4974 15.1889C45.7697 14.796 44.8742 14.7261 44.0981 15.005C44.5513 14.691 45.0098 14.3788 45.4656 14.0648C45.1686 13.888 44.8042 13.8333 44.4687 13.9095C45.2474 13.4698 46.0227 13.0266 46.8015 12.5869C46.1968 12.6848 45.5732 12.6596 44.9757 12.5106C45.6459 12.0495 46.3207 11.5865 46.9917 11.1244C46.5198 11.1406 46.0514 11.1567 45.5795 11.1711C46.1968 10.7448 46.8141 10.3141 47.435 9.88973C46.9128 9.87356 46.3906 9.85832 45.8675 9.84226C45.6997 9.83994 45.5005 9.78933 45.3578 9.70312H39.6262C39.3094 9.91219 39.0241 10.0854 38.9514 10.063C40.1986 10.4093 41.5059 10.5295 42.7943 10.4281Z" fill="#8B681E"/>
<path d="M63.4636 105.565C103.325 102.663 80.4685 50.0736 75.3685 36.6498C70.1204 22.8418 73.1595 14.8311 73.1595 14.8311C73.1595 14.8311 76.1949 1.57766 73.7104 1.02401C71.2249 0.473142 62.9388 9.58573 62.9388 9.58573C62.9388 9.58573 56.8607 9.67715 48.8562 9.70321H38.3628C30.3548 9.67715 24.2767 9.58573 24.2767 9.58573C24.2767 9.58573 15.9932 0.473142 13.5087 1.02401C11.0242 1.57766 14.0596 14.8311 14.0596 14.8311C14.0596 14.8311 17.0978 22.8418 11.8497 36.6498C6.60163 50.4567 -17.4225 105.688 27.3157 105.688L63.4636 105.565Z" stroke="#0C0D0C" stroke-width="0.816"/>
<path fill-rule="evenodd" clip-rule="evenodd" d="M39.7427 91.4219C39.7427 91.4219 41.9204 101.363 40.4489 108.543C39.9554 110.94 39.0652 113.025 37.5337 114.342C37.5337 114.342 33.4817 117.685 32.0101 108.392C31.9186 107.683 31.8262 106.917 31.7347 106.06C30.6301 93.9072 26.4866 91.4219 25.3821 91.9737L39.7427 91.4219Z" fill="#FFCD3C"/>
<path fill-rule="evenodd" clip-rule="evenodd" d="M46.0953 91.4219C46.0953 91.4219 43.8225 101.792 45.4788 109.002C46.0011 111.212 46.8929 113.115 48.3017 114.342C48.3017 114.342 52.1697 117.536 53.7022 109.002C53.8574 108.145 54.0118 107.163 54.1042 106.06C55.2087 93.9072 59.3487 91.4219 60.4532 91.9737L46.0953 91.4219Z" fill="#FFCD3C"/>
<path fill-rule="evenodd" clip-rule="evenodd" d="M45.4789 109.002C46.6148 109.126 51.9266 109.497 53.6421 109.002H53.7023C52.1698 117.536 48.3017 114.343 48.3017 114.343C46.893 113.115 46.0011 111.212 45.4789 109.002Z" fill="#8B681E"/>
<path d="M46.0953 91.4219C46.0953 91.4219 43.8225 101.792 45.4788 109.002C46.0011 111.212 46.8929 113.115 48.3017 114.342C48.3017 114.342 52.1697 117.536 53.7022 109.002C53.8574 108.145 54.0118 107.163 54.1042 106.06C55.2087 93.9072 59.3487 91.4219 60.4532 91.9737" stroke="#0C0D0C" stroke-width="0.816"/>
<path fill-rule="evenodd" clip-rule="evenodd" d="M40.4489 108.543C39.9554 110.94 39.0653 113.025 37.5337 114.342C37.5337 114.342 33.4817 117.685 32.0101 108.392C32.7477 108.513 37.837 109.31 40.3851 108.543H40.4489Z" fill="#8B681E"/>
<path d="M39.7427 91.4219C39.7427 91.4219 41.9204 101.363 40.4489 108.543C39.9554 110.94 39.0652 113.025 37.5337 114.342C37.5337 114.342 33.4817 117.685 32.0101 108.392C31.9186 107.683 31.8262 106.917 31.7347 106.06C30.6301 93.9072 26.4866 91.4219 25.3821 91.9737" stroke="#0C0D0C" stroke-width="0.816"/>
<path fill-rule="evenodd" clip-rule="evenodd" d="M46.3143 25.5362C46.3143 26.3742 44.9943 27.0562 43.3667 27.0562C41.7436 27.0562 40.4264 26.3742 40.4264 25.5362C40.4264 24.6945 41.7436 24.0171 43.3667 24.0171C44.9943 24.0171 46.3143 24.6945 46.3143 25.5362Z" fill="#0C0D0C"/>
<path d="M72.6022 22.4408L79.5695 20.8706" stroke="#0C0D0C" stroke-width="0.816"/>
<path d="M73.0931 28.9763L79.4995 31.6134" stroke="#0C0D0C" stroke-width="0.816"/>
<path d="M72.726 25.4634L80.4272 26.0681" stroke="#0C0D0C" stroke-width="0.816"/>
<path d="M14.4768 22.4408L7.50696 20.8706" stroke="#0C0D0C" stroke-width="0.816"/>
<path d="M13.9869 28.9763L7.5769 31.6134" stroke="#0C0D0C" stroke-width="0.816"/>
<path d="M14.354 25.4634L6.65271 26.0681" stroke="#0C0D0C" stroke-width="0.816"/>
<path fill-rule="evenodd" clip-rule="evenodd" d="M31.1614 29.3917C31.1138 30.1895 29.7374 30.7592 28.0784 30.6641C26.4265 30.569 25.1219 29.844 25.1632 29.0473C25.2108 28.2514 26.5908 27.6816 28.2462 27.7767C29.9017 27.8718 31.209 28.5968 31.1614 29.3917Z" fill="#FFE1AD"/>
<path fill-rule="evenodd" clip-rule="evenodd" d="M62.3087 29.7716C62.2613 30.5692 60.8839 31.1389 59.2257 31.0412C57.573 30.9487 56.2694 30.2274 56.3133 29.4306C56.3572 28.6311 57.7381 28.0622 59.3936 28.1564C61.049 28.2516 62.3527 28.9738 62.3087 29.7716Z" fill="#FFE1AD"/>
</svg>
