<svg width="104" height="99" viewBox="0 0 104 99" fill="none" xmlns="http://www.w3.org/2000/svg">
<path d="M49.0092 53.1903C49.0092 53.1903 59.6494 38.4065 49.0799 28.5742" stroke="#0C0D0C" stroke-width="0.816"/>
<path fill-rule="evenodd" clip-rule="evenodd" d="M48.2038 88.3401C46.7657 87.2554 45.4467 86.0534 44.244 84.7634C43.894 84.3794 43.5416 83.9721 43.219 83.5906C40.6382 80.4229 39.3465 77.1097 39.2002 73.5912C39.0264 69.545 40.3149 65.2335 42.7777 60.6021C47.6768 51.3916 59.5522 46.9073 59.5522 46.9073L63.3033 40.1929L67.9081 45.8782C72.0716 47.726 80.224 52.5661 84.6793 61.2729C87.9076 67.6357 85.9145 73.5323 84.5629 76.2894C84.0949 77.2826 83.6827 77.8719 83.6827 77.8719L88.6973 83.2647L80.4584 84.9945L77.5268 86.5788C76.3523 87.3725 74.3001 88.6925 70.6935 90.8046C67.9963 92.4171 65.2391 93.1767 62.5419 93.3256C57.3818 93.6182 52.3955 91.5376 48.2038 88.3401Z" fill="#B89373"/>
<path fill-rule="evenodd" clip-rule="evenodd" d="M48.2038 88.3401C52.3955 91.5376 57.3818 93.6182 62.5419 93.3256V93.3555C62.5419 93.3555 52.3673 101.273 47.2354 96.5506C42.3105 92.0622 47.7051 88.6334 48.2038 88.3401Z" fill="#B89373"/>
<path fill-rule="evenodd" clip-rule="evenodd" d="M39.2002 73.5913C39.3465 77.1098 40.6382 80.423 43.219 83.5906L42.9839 83.7952C42.9839 83.7952 39.5535 89.3932 36.2678 86.5222C33.0153 83.6788 31.6953 79.2219 34.4815 74.031C37.0008 74.031 39.1121 73.5913 39.1121 73.5913H39.2002Z" fill="#B89373"/>
<path fill-rule="evenodd" clip-rule="evenodd" d="M42.7777 60.6021C40.3149 65.2335 39.0265 69.545 39.2002 73.5912H39.1121C39.1121 73.5912 37.0009 74.0309 34.4815 74.0309C31.9588 74.0309 29.0263 73.617 27.5318 71.8615C27.7671 72.2131 28.0015 72.5938 28.0879 73.0019C28.2941 73.735 28.0015 74.8231 27.2975 75.2328C19.6711 79.5434 9.26208 68.4852 5.24408 63.6509C1.2277 58.7826 -4.31389 43.7412 12.0765 22.8332C28.4678 1.956 55.3887 -3.44019 76.8826 4.47457C98.3766 12.4208 103.302 30.4836 103.124 44.6489C102.949 58.8125 84.5629 76.2893 84.5629 76.2893C85.9145 73.5323 87.9076 67.6357 84.6793 61.2729C80.224 52.5661 72.0716 47.726 67.9082 45.8782L63.3033 40.1929L59.5522 46.9072C59.5522 46.9072 47.6768 51.3916 42.7777 60.6021Z" fill="#B89373"/>
<path d="M39.1121 73.5913C39.1121 73.5913 37.0009 74.031 34.4816 74.031C31.9588 74.031 29.0263 73.6171 27.5318 71.8616" stroke="#0C0D0C" stroke-width="0.816"/>
<path d="M62.5419 93.3555C62.5419 93.3555 52.3673 101.273 47.2354 96.5506C42.3105 92.0622 47.7051 88.6334 48.2038 88.3401C48.232 88.3117 48.232 88.3118 48.232 88.3118" stroke="#0C0D0C" stroke-width="0.816"/>
<path d="M42.9839 83.7951C42.9839 83.7951 39.5535 89.3932 36.2678 86.5222C33.0153 83.6787 31.6953 79.2218 34.4815 74.0309C34.5098 73.9138 34.5671 73.8256 34.6278 73.7085" stroke="#0C0D0C" stroke-width="0.816"/>
<path fill-rule="evenodd" clip-rule="evenodd" d="M82.3087 79.1338L85.439 82.3763L80.4958 83.3588L82.3087 79.1338Z" fill="#0C0D0C"/>
<path fill-rule="evenodd" clip-rule="evenodd" d="M66.1669 47.0043L63.4522 43.2715L61.5686 47.5322L66.1669 47.0043Z" fill="#0C0D0C"/>
<path fill-rule="evenodd" clip-rule="evenodd" d="M58.4699 22.4168C58.8389 23.593 59.3693 24.7359 60.1905 25.6536C61.2993 26.8945 62.8479 27.631 64.2883 28.463C67.914 30.5626 71.0659 33.4394 74.8287 35.2756C78.5949 37.1133 83.3968 37.7176 86.7789 35.2489C89.3165 33.3978 90.5385 30.1138 90.4927 26.9735C90.4445 23.8332 89.2758 20.8077 87.7947 18.0331C84.3875 11.6587 76.699 3.77971 68.687 4.21609C60.4715 4.6683 56.3163 15.5612 58.4699 22.4168Z" fill="#F3CAAE"/>
<path fill-rule="evenodd" clip-rule="evenodd" d="M93.5714 44.8864C90.8567 46.1598 89.3532 49.3349 89.5185 52.329C89.6831 55.3238 91.2832 58.0941 93.3878 60.2311C94.2015 61.0606 95.1466 61.803 96.1598 62.4105C99.6309 57.2464 102.597 51.3141 103.027 45.7749C99.9476 44.5555 96.5263 43.4966 93.5714 44.8864Z" fill="#F3CAAE"/>
<path fill-rule="evenodd" clip-rule="evenodd" d="M77.2666 77.6824C73.3093 69.7877 61.4448 70.5324 55.8358 76.0358C54.8101 77.0365 53.9424 78.2276 53.4586 79.5759C52.0439 83.5166 54.2092 87.9718 57.342 90.7539C58.4583 91.748 59.6976 92.5692 60.9843 93.3255C61.5021 93.3438 62.0208 93.3555 62.5419 93.3255C65.2391 93.1767 67.9963 92.417 70.6935 90.8045C74.3001 88.6925 76.3523 87.3725 77.5268 86.5787L78.5741 86.0152C78.7861 83.145 78.5459 80.2334 77.2666 77.6824Z" fill="#F3CAAE"/>
<path fill-rule="evenodd" clip-rule="evenodd" d="M48.4781 76.4853L45.603 70.9778C45.603 70.9778 42.6231 73.9751 43.8425 75.9576C45.0652 77.9416 48.4781 76.4853 48.4781 76.4853Z" fill="#0C0D0C"/>
<path d="M60.6943 85.4432C60.6943 85.4432 55.6522 82.8682 55.515 79.418" stroke="#0C0D0C" stroke-width="0.816"/>
<path d="M49.2518 67.0788C49.2518 67.0788 46.3169 64.9118 47.1299 60.6943" stroke="#0C0D0C" stroke-width="0.816"/>
<path d="M60.3967 87.8457L68.7692 93.4462" stroke="#0C0D0C" stroke-width="0.816"/>
<path d="M58.4757 88.7515L64.6981 95.9173" stroke="#0C0D0C" stroke-width="0.816"/>
<path d="M57.0037 89.821L59.833 97.2345" stroke="#0C0D0C" stroke-width="0.816"/>
<path d="M40.8619 71.6937L31.0969 69.2185" stroke="#0C0D0C" stroke-width="0.816"/>
<path d="M42.3671 70.1926L34.1066 65.5303" stroke="#0C0D0C" stroke-width="0.816"/>
<path d="M43.3961 68.6938L38.2477 62.6567" stroke="#0C0D0C" stroke-width="0.816"/>
<path d="M39.2002 73.5912C39.0264 69.545 40.3149 65.2335 42.7777 60.6021C47.6768 51.3916 59.5522 46.9073 59.5522 46.9073L63.3033 40.1929L67.9081 45.8782C72.0716 47.726 80.224 52.5661 84.6793 61.2729C87.9076 67.6357 85.9145 73.5323 84.5629 76.2894C84.0949 77.2826 83.6827 77.8719 83.6827 77.8719L88.6973 83.2647L80.4584 84.9945L77.5268 86.5788C76.3523 87.3725 74.3001 88.6925 70.6935 90.8046C67.9963 92.4171 65.2391 93.1767 62.5419 93.3256C57.3818 93.6182 52.3955 91.5376 48.2038 88.3401C46.7657 87.2554 45.4467 86.0534 44.244 84.7634C43.894 84.3794 43.5416 83.9721 43.219 83.5906C40.6382 80.4229 39.3465 77.1097 39.2002 73.5912Z" stroke="#0C0D0C" stroke-width="0.816"/>
<path d="M27.5318 71.8615C29.0263 73.617 31.9588 74.0309 34.4815 74.0309C37.0009 74.0309 39.1121 73.5912 39.1121 73.5912H39.2002C39.0265 69.545 40.3149 65.2335 42.7777 60.6021C47.6768 51.3916 59.5522 46.9072 59.5522 46.9072L63.3033 40.1929L67.9082 45.8782C72.0716 47.726 80.224 52.5661 84.6793 61.2729C87.9076 67.6357 85.9145 73.5323 84.5629 76.2893C84.5629 76.2893 102.949 58.8125 103.124 44.6489C103.302 30.4836 98.3766 12.4208 76.8826 4.47457C55.3887 -3.44019 28.4678 1.956 12.0765 22.8332C-4.31389 43.7412 1.2277 58.7826 5.24408 63.6509C9.26208 68.4852 19.6711 79.5434 27.2975 75.2328C28.0015 74.8231 28.2941 73.735 28.0879 73.0019C28.0015 72.5938 27.7671 72.2131 27.5318 71.8615ZM27.5318 71.8615C27.5318 71.8615 8.79241 66.1428 8.00286 51.6251C7.20901 37.1132 19.835 4.30159 54.1402 1.13478" stroke="#0C0D0C" stroke-width="0.816"/>
<path fill-rule="evenodd" clip-rule="evenodd" d="M24.2902 44.9047C24.4389 43.8316 24.4355 42.7411 24.1039 41.7203C23.7831 40.7428 23.1813 39.8842 22.4997 39.1153C21.5322 38.0232 20.3445 37.0665 18.938 36.6683C17.9871 36.3948 16.4611 36.3541 15.6157 37.0698C13.5252 37.9966 12 40.1569 11.4905 42.4477C10.8679 45.2339 11.4464 48.1397 12.1854 50.8976C12.9218 53.6489 13.881 56.47 15.9083 58.4666C17.9332 60.4631 21.312 61.3608 23.6834 59.7882C25.8079 58.3784 26.472 55.5432 26.423 52.9947C26.3715 50.1736 25.5868 47.4083 24.2902 44.9047Z" fill="#F3CAAE"/>
<path fill-rule="evenodd" clip-rule="evenodd" d="M46.4773 69.0601C46.0534 69.3743 45.0419 68.7235 44.2207 67.6113C43.3961 66.4983 43.0752 65.3389 43.4991 65.0263C43.9231 64.7121 44.9329 65.3596 45.7559 66.4776C46.5805 67.5922 46.9013 68.7468 46.4773 69.0601Z" fill="#F3CAAE"/>
</svg>
