<svg width="108" height="68" viewBox="0 0 108 68" fill="none" xmlns="http://www.w3.org/2000/svg">
<path fill-rule="evenodd" clip-rule="evenodd" d="M89.0764 56.4367C106.819 48.8336 113.542 24.7841 98.3545 11.9931C82.0541 -1.73612 54.9895 -0.843778 35.5217 5.13566C21.2989 9.50419 4.88105 23.4925 6.2091 38.5878C6.96663 47.1655 12.5071 53.0967 20.7394 56.3868C37.3474 63.0224 56.5688 64.1223 74.283 61.9939L89.0764 56.4367Z" fill="white"/>
<path fill-rule="evenodd" clip-rule="evenodd" d="M26.6436 23.1515C27.7394 21.8916 28.4241 20.3171 29.5113 19.0508C31.2728 17.0017 33.9955 15.8583 35.4322 13.5753C37.0003 11.0808 36.6485 7.93421 35.9297 5.01733C35.7958 5.06008 35.6533 5.09586 35.5216 5.13542C27.0129 7.74961 17.7425 13.8178 11.9342 21.497C15.1679 26.0256 22.7607 27.6223 26.6436 23.1515Z" fill="#906D47"/>
<path d="M89.0764 56.4367C106.819 48.8336 113.542 24.7841 98.3545 11.9931C82.0541 -1.73612 54.9895 -0.843777 35.5217 5.13566C21.2989 9.50419 4.88105 23.4925 6.2091 38.5878C6.96663 47.1655 12.5071 53.0967 20.7394 56.3868C37.3474 63.0224 56.5688 64.1223 74.283 61.9939L89.0764 56.4367Z" stroke="#0C0D0C" stroke-width="0.816"/>
<path fill-rule="evenodd" clip-rule="evenodd" d="M9.96351 24.7234C9.96351 24.7234 -0.723744 35.0072 1.5402 48.0597C3.80486 61.1106 25.8916 69.0901 52.8254 64.9942C52.8254 64.9942 58.4499 56.292 47.5425 56.0828C36.6374 55.8728 -2.92098 61.8221 9.96351 24.7234Z" fill="white"/>
<path fill-rule="evenodd" clip-rule="evenodd" d="M32.7657 62.0889C31.9662 61.1244 30.9147 60.3954 29.7943 59.8392C26.2554 58.0745 21.9083 58.0301 18.3353 59.7219C17.3519 60.1854 16.2275 60.9573 15.1317 61.8772C20.4597 64.1135 27.0715 65.5326 34.521 65.9392C34.4457 65.6007 34.3815 65.2624 34.2721 64.9328C33.9369 63.909 33.4536 62.9224 32.7657 62.0889Z" fill="#906D47"/>
<path d="M9.96351 24.7234C9.96351 24.7234 -0.723744 35.0072 1.5402 48.0597C3.80486 61.1106 25.8916 69.0901 52.8254 64.9942C52.8254 64.9942 58.4499 56.292 47.5425 56.0828C36.6374 55.8728 -2.92098 61.8221 9.96351 24.7234Z" stroke="#0C0D0C" stroke-width="0.816"/>
<path fill-rule="evenodd" clip-rule="evenodd" d="M96.7975 32.0417C98.5724 44.2962 97.2444 63.4597 72.9414 66.2244C28.7847 71.2443 24.3844 38.4292 36.0281 22.2912C36.0281 22.2912 33.7633 9.23942 36.2793 9.28699C38.7952 9.33456 45.4847 18.039 45.4847 18.039C45.4847 18.039 58.8247 16.8401 70.5404 17.6223L83.184 18.769C83.184 18.769 90.2032 10.329 92.719 10.3766C95.2374 10.4272 92.4703 23.3815 92.4703 23.3815C92.4703 23.3815 95.788 25.0749 96.7975 32.0417Z" fill="white"/>
<path fill-rule="evenodd" clip-rule="evenodd" d="M42.899 19.593C42.899 19.593 38.8205 12.9035 37.8419 13.558C36.8609 14.2094 38.658 21.8775 38.658 21.8775L42.899 19.593Z" fill="#0C0D0C"/>
<path d="M57.6979 37.8816C58.1702 39.5188 59.5878 40.7105 61.2622 40.6844C62.2487 40.6709 63.1347 40.2342 63.7859 39.5472C64.4572 40.2176 65.355 40.6265 66.3439 40.6146C68.019 40.5892 69.3993 39.3595 69.824 37.7104" stroke="#0C0D0C" stroke-width="0.816"/>
<path fill-rule="evenodd" clip-rule="evenodd" d="M67.3201 31.7452C67.2076 32.9552 63.4564 33.6043 63.4564 33.6043C63.4564 33.6043 59.8811 32.2817 59.9927 31.0717C60.1077 29.8554 61.8383 29.0217 63.859 29.2095C65.8803 29.3965 67.4318 30.529 67.3201 31.7452Z" fill="#0C0D0C"/>
<path d="M48.8642 31.5433C49.468 29.9948 50.8547 28.9719 52.3501 29.1423C53.8461 29.3126 54.9665 30.6209 55.2074 32.2675" stroke="#0C0D0C" stroke-width="0.816"/>
<path fill-rule="evenodd" clip-rule="evenodd" d="M51.6764 33.9536C51.6986 34.4283 50.7098 34.8649 49.4625 34.9259C48.2185 34.9933 47.1875 34.6612 47.1645 34.1858C47.14 33.7096 48.1288 33.2738 49.3761 33.2096C50.6202 33.1454 51.6511 33.4781 51.6764 33.9536Z" fill="#FFECCB"/>
<path fill-rule="evenodd" clip-rule="evenodd" d="M70.4786 35.8437C72.447 37.2859 75.2418 36.8295 77.4557 37.8509C79.2616 38.6837 80.478 40.3913 81.9653 41.7107C84.7998 44.2266 88.8275 45.3303 92.5454 44.61C94.2119 44.2907 95.788 43.5895 97.1859 42.6283C97.4964 38.9048 97.2618 35.2399 96.7974 32.0418C95.788 25.075 92.4702 23.3816 92.4702 23.3816C92.4702 23.3816 95.2373 10.4273 92.719 10.3767C90.2031 10.3291 83.184 18.7691 83.184 18.7691L73.1815 17.8632C70.8082 21.4695 69.0166 25.422 68.5047 28.8912C68.1363 31.3983 68.4382 34.3421 70.4786 35.8437Z" fill="#906D47"/>
<path d="M71.6863 32.472C72.0745 30.8499 73.3051 29.6486 74.8115 29.6122C76.3155 29.5757 77.604 30.7248 78.0651 32.3207" stroke="#0C0D0C" stroke-width="0.816"/>
<path fill-rule="evenodd" clip-rule="evenodd" d="M81.5207 33.6826C81.5429 34.1573 80.5532 34.5932 79.3092 34.6613C78.0595 34.7223 77.031 34.3887 77.0057 33.914C76.9835 33.4395 77.9732 33.0036 79.2172 32.9386C80.4669 32.8768 81.4954 33.2064 81.5207 33.6826Z" fill="#FFECCB"/>
<path d="M42.4267 36.4243L33.7491 34.4727" stroke="#0C0D0C" stroke-width="0.816"/>
<path d="M41.8173 44.5674L33.8331 47.8463" stroke="#0C0D0C" stroke-width="0.816"/>
<path d="M42.2753 40.1875L32.6817 40.9418" stroke="#0C0D0C" stroke-width="0.816"/>
<path d="M85.219 36.4243L93.8989 34.4727" stroke="#0C0D0C" stroke-width="0.816"/>
<path d="M85.8338 44.5674L93.8118 47.8463" stroke="#0C0D0C" stroke-width="0.816"/>
<path d="M85.375 40.1875L94.9663 40.9418" stroke="#0C0D0C" stroke-width="0.816"/>
<path fill-rule="evenodd" clip-rule="evenodd" d="M86.4995 19.593C86.4995 19.593 90.578 12.9035 91.5558 13.558C92.5344 14.2094 90.7395 21.8775 90.7395 21.8775L86.4995 19.593Z" fill="#0C0D0C"/>
<path d="M96.7975 32.0417C98.5724 44.2962 97.2444 63.4597 72.9414 66.2244C28.7847 71.2443 24.3844 38.4292 36.0281 22.2912C36.0281 22.2912 33.7633 9.23942 36.2793 9.28699C38.7952 9.33456 45.4847 18.039 45.4847 18.039C45.4847 18.039 58.8247 16.8401 70.5404 17.6223L83.184 18.769C83.184 18.769 90.2032 10.329 92.719 10.3766C95.2374 10.4272 92.4703 23.3815 92.4703 23.3815C92.4703 23.3815 95.788 25.0749 96.7975 32.0417Z" stroke="#0C0D0C" stroke-width="0.816"/>
</svg>
