<svg width="89" height="116" viewBox="0 0 89 116" fill="none" xmlns="http://www.w3.org/2000/svg">
<path fill-rule="evenodd" clip-rule="evenodd" d="M80.2869 56.0247C78.8226 51.5535 76.6915 47.3233 75.2988 42.8292C73.0481 35.5725 72.795 27.7053 74.5785 20.3183C75.6928 15.6982 78.1421 10.7483 82.7053 9.41338C84.7785 8.80609 87.5925 9.50776 88.0231 11.6242C88.4276 13.6054 86.5554 15.2187 85.0886 16.6033C80.5596 20.8703 78.3024 27.4179 79.2418 33.5661C79.779 37.0597 81.2548 40.3286 82.5213 43.631C85.7089 51.9255 87.6381 60.7019 88.2331 69.5695C88.5855 74.8784 88.3967 80.6161 86.0077 85.4895C84.8673 87.8126 78.4409 95.9654 78.593 89.9941C78.6476 87.7092 80.4254 84.8603 81.0082 82.6316C81.7659 79.7338 82.2511 76.7594 82.4555 73.7681C82.8632 67.7894 82.1509 61.7243 80.2869 56.0247Z" fill="#FFF9D9"/>
<path d="M80.2869 56.0247C78.8226 51.5535 76.6915 47.3233 75.2988 42.8292C73.0481 35.5725 72.795 27.7053 74.5785 20.3183C75.6928 15.6982 78.1421 10.7483 82.7053 9.41338C84.7785 8.80609 87.5925 9.50776 88.0231 11.6242C88.4276 13.6054 86.5554 15.2187 85.0886 16.6033C80.5596 20.8703 78.3024 27.4179 79.2418 33.5661C79.779 37.0597 81.2548 40.3286 82.5213 43.631C85.7089 51.9255 87.6381 60.7019 88.2331 69.5695C88.5855 74.8784 88.3967 80.6162 86.0077 85.4895C84.8673 87.8126 78.4409 95.9654 78.593 89.9941C78.6476 87.7092 80.4254 84.8603 81.0082 82.6316C81.7659 79.7338 82.2511 76.7594 82.4555 73.7681C82.8632 67.7894 82.1509 61.7243 80.2869 56.0247Z" stroke="#0C0D0C" stroke-width="0.816"/>
<path fill-rule="evenodd" clip-rule="evenodd" d="M65.438 31.4122C59.8044 20.6805 55.439 13.4612 55.439 13.4612L55.8412 1.42406C55.8412 1.42406 50.6292 -1.78389 44.2085 9.44667L12.1162 15.865C12.1162 15.865 3.69055 9.44668 1.28114 12.657C1.28114 12.657 0.0780803 28.3019 8.90578 39.937C10.6917 42.3098 12.3481 44.4172 13.802 46.4237C19.5536 54.2632 22.5458 60.2793 20.9406 72.4322C18.9357 87.6766 9.70915 106.13 45.4115 107.735C81.1171 109.34 88.3363 82.061 78.3055 58.3902C74.1274 48.5295 69.4469 39.0676 65.438 31.4122Z" fill="#FFF9D9"/>
<path fill-rule="evenodd" clip-rule="evenodd" d="M55.3389 13.6623C55.3389 13.6623 59.7036 20.8816 65.338 31.6132C45.7306 39.2167 29.3629 21.2837 29.3629 21.2837C29.9653 37.045 17.3656 44.5352 13.701 46.6223C12.2481 44.6183 10.594 42.5133 8.80488 40.1389C-0.0195564 28.5062 1.18352 12.8589 1.18352 12.8589C3.5905 9.64773 12.0128 16.0693 12.0128 16.0693L44.1083 9.64773C50.5258 -1.58527 55.741 1.62511 55.741 1.62511L55.3389 13.6623Z" fill="#906D47"/>
<path d="M65.338 31.6132C59.7036 20.8816 55.3389 13.6623 55.3389 13.6623L55.741 1.62511C55.741 1.62511 50.5258 -1.58527 44.1083 9.64773L12.0128 16.0693C12.0128 16.0693 3.5905 9.64773 1.18352 12.8589C1.18352 12.8589 -0.0195564 28.5062 8.80488 40.1389C10.594 42.5133 12.2481 44.6183 13.701 46.6223C19.4527 54.4643 22.4449 60.4813 20.843 72.6341C18.8324 87.8785 9.60586 106.331 45.3114 107.936C81.0162 109.541 88.2354 82.2612 78.2079 58.5913C74.0298 48.7305 69.3493 39.2687 65.338 31.6132Z" stroke="#0C0D0C" stroke-width="0.816"/>
<path fill-rule="evenodd" clip-rule="evenodd" d="M47.7175 10.7516C47.7175 10.7516 51.4823 3.83033 52.3809 4.58569C53.2829 5.33462 52.5331 12.2592 52.5331 12.2592L47.7175 10.7516Z" fill="#FFF9D9"/>
<path fill-rule="evenodd" clip-rule="evenodd" d="M5.5832 21.5676C5.5832 21.5676 1.51975 14.8196 2.62519 14.4199C3.73137 14.0243 9.3161 18.1764 9.3161 18.1764L5.5832 21.5676Z" fill="#FFF9D9"/>
<path fill-rule="evenodd" clip-rule="evenodd" d="M34.3796 91.4561C34.3796 91.4561 37.389 96.869 36.1826 104.996C35.9669 106.464 35.6168 108.186 35.5827 109.858C35.5339 110.828 35.6168 111.781 35.9009 112.652C36.487 114.472 38.8931 115.658 40.7165 115.159C42.4885 114.687 43.4222 112.752 43.9415 110.627C44.4243 108.689 44.5447 106.581 44.6448 105.26C44.9785 100.783 44.6627 96.1023 43.4043 91.7556L34.3796 91.4561Z" fill="#FFF9D9"/>
<path fill-rule="evenodd" clip-rule="evenodd" d="M35.5828 109.858C36.2168 109.992 39.9302 110.776 43.9415 110.627C43.4223 112.751 42.4885 114.687 40.7165 115.158C38.8932 115.658 36.487 114.472 35.9009 112.651C35.6168 111.781 35.5339 110.828 35.5828 109.858Z" fill="#906D47"/>
<path d="M34.3796 91.4561C34.3796 91.4561 37.389 96.869 36.1826 104.996C35.9669 106.464 35.6168 108.186 35.5827 109.858C35.5339 110.828 35.6168 111.781 35.9009 112.652C36.487 114.472 38.8931 115.658 40.7165 115.159C42.4885 114.687 43.4222 112.752 43.9415 110.627C44.4243 108.689 44.5447 106.581 44.6448 105.26C44.9785 100.783 44.6627 96.1023 43.4043 91.7556" stroke="#0C0D0C" stroke-width="0.816"/>
<path d="M57.4464 109.924C57.4464 109.924 57.5815 109.892 57.8167 109.808C59.1493 109.407 63.8476 107.936 65.6709 107.084C65.872 106.983 66.0559 106.9 66.1732 106.817" stroke="#0C0D0C" stroke-width="0.816"/>
<path fill-rule="evenodd" clip-rule="evenodd" d="M54.1359 89.3665C54.1359 89.3665 54.604 103.02 57.8167 109.808C59.0516 112.413 60.6918 114.021 62.8627 113.436C67.7271 112.131 67.1264 109.892 65.6709 107.084C64.8007 105.378 63.6148 103.453 63.1639 101.401C61.9607 95.9843 61.6588 87.5596 61.6588 87.5596L54.1359 89.3665Z" fill="#FFF9D9"/>
<path fill-rule="evenodd" clip-rule="evenodd" d="M65.671 107.084C67.1264 109.892 67.7271 112.131 62.8627 113.436C60.6918 114.021 59.0516 112.413 57.8168 109.808C59.1493 109.407 63.8476 107.936 65.671 107.084Z" fill="#906D47"/>
<path d="M54.1359 89.3665C54.1359 89.3665 54.604 103.02 57.8167 109.808C59.0516 112.413 60.6918 114.021 62.8627 113.436C67.7271 112.131 67.1264 109.892 65.6709 107.084C64.8007 105.378 63.6148 103.453 63.1639 101.401C61.9607 95.9843 61.6588 87.5596 61.6588 87.5596" stroke="#0C0D0C" stroke-width="0.816"/>
<path d="M59.8069 20.3126L65.062 14.7253" stroke="#0C0D0C" stroke-width="0.816"/>
<path d="M63.0149 26.1457L70.5467 24.6919" stroke="#0C0D0C" stroke-width="0.816"/>
<path d="M61.478 23.1844L67.6806 19.7712" stroke="#0C0D0C" stroke-width="0.816"/>
<path d="M11.4097 43.688L7.68237 50.3927" stroke="#0C0D0C" stroke-width="0.816"/>
<path d="M7.64817 38.5613L0.698364 41.8124" stroke="#0C0D0C" stroke-width="0.816"/>
<path d="M9.60583 40.925L4.42322 45.7553" stroke="#0C0D0C" stroke-width="0.816"/>
<path fill-rule="evenodd" clip-rule="evenodd" d="M34.4399 28.6321C34.5946 29.5422 31.976 30.751 31.976 30.751C31.976 30.751 29.1042 30.484 28.9463 29.5731C28.7883 28.6606 29.8938 27.7124 31.4102 27.4543C32.9291 27.1964 34.282 27.7213 34.4399 28.6321Z" fill="#0C0D0C"/>
<path d="M18.7347 30.246C18.7347 30.246 21.2134 28.8303 23.3354 30.0709C23.3354 30.0709 20.1503 31.659 19.4446 33.0778" stroke="#0C0D0C" stroke-width="0.816"/>
<path d="M28.6532 34.4839C29.337 36.4287 30.632 37.7204 31.8806 37.5055C32.6189 37.3785 33.1961 36.7502 33.5494 35.8369C34.1867 36.5776 34.9421 36.9806 35.6804 36.8535C36.929 36.6411 37.7243 34.9895 37.7162 32.9309" stroke="#0C0D0C" stroke-width="0.816"/>
<path d="M42.9998 26.1001C42.9998 26.1001 44.7254 23.86 46.9622 25.5825" stroke="#0C0D0C" stroke-width="0.816"/>
<path fill-rule="evenodd" clip-rule="evenodd" d="M50.8417 27.9086C50.9222 28.3254 50.101 28.835 49.0045 29.0482C47.9097 29.2606 46.9565 29.097 46.876 28.6787C46.7962 28.2643 47.6175 27.7508 48.7114 27.5375C49.8079 27.3259 50.7619 27.4894 50.8417 27.9086Z" fill="#FFECCB"/>
<path fill-rule="evenodd" clip-rule="evenodd" d="M20.5954 36.1527C20.7338 36.5549 19.9866 37.1719 18.9333 37.5308C17.8735 37.8898 16.9057 37.8581 16.7738 37.4567C16.6354 37.0538 17.3793 36.4376 18.4359 36.0787C19.4901 35.7156 20.4579 35.7474 20.5954 36.1527Z" fill="#FFECCB"/>
</svg>
