<svg width="79" height="110" viewBox="0 0 79 110" fill="none" xmlns="http://www.w3.org/2000/svg">
<path fill-rule="evenodd" clip-rule="evenodd" d="M14.7416 86.6705C4.89511 56.7615 13.2339 12.9237 13.2339 12.9237C13.2339 12.9237 13.2339 2.2936 15.3185 1.102C17.3994 -0.0872955 25.1373 9.74311 25.1373 9.74311C25.1373 9.74311 41.5063 6.8509 54.0028 7.9939C54.0028 7.9939 59.063 0.903007 63.2285 1.00101C67.394 1.10201 65.9063 12.6106 65.9063 12.6106C65.9063 12.6106 72.3925 53.4312 68.6974 82.4209C67.2583 93.6904 57.684 102.136 46.3243 102.136H36.1538C26.4299 102.136 17.7804 95.9108 14.7416 86.6705Z" fill="#FFC866"/>
<path fill-rule="evenodd" clip-rule="evenodd" d="M16.4338 11.8218V5.57227L21.1191 9.74327L16.4338 11.8218Z" fill="#0C0D0C"/>
<path fill-rule="evenodd" clip-rule="evenodd" d="M63.1175 10.489V4.23877L58.429 8.40967L63.1175 10.489Z" fill="#0C0D0C"/>
<path d="M21.0019 25.9423C21.5186 23.9455 23.3334 22.4709 25.4944 22.4709C27.6763 22.4709 29.5072 23.9756 30.0023 26.0055" stroke="#0C0D0C" stroke-width="0.816"/>
<path fill-rule="evenodd" clip-rule="evenodd" d="M43.3426 24.0735C43.3696 25.1047 40.287 26.0163 40.287 26.0163C40.287 26.0163 37.1634 25.2651 37.1364 24.2363C37.1094 23.2051 38.4776 22.3375 40.1921 22.2912C41.9058 22.248 43.318 23.0447 43.3426 24.0735Z" fill="#0C0D0C"/>
<path d="M36.3474 28.7073C36.8102 30.9547 38.0503 32.5736 39.4656 32.5219C40.2977 32.4887 41.0297 31.8825 41.5549 30.927C42.148 31.8417 42.9208 32.3939 43.756 32.3638C45.1682 32.3121 46.2865 30.6061 46.5827 28.3286" stroke="#0C0D0C" stroke-width="0.816"/>
<path fill-rule="evenodd" clip-rule="evenodd" d="M17.4456 62.8397L22.2104 58.5893L23.6874 57.2728C25.9132 55.2892 26.106 51.8694 24.1231 49.6436C22.1341 47.4101 18.719 47.2111 16.4885 49.2056L14.0915 51.3496L11.689 49.2056C11.1661 48.7405 10.5761 48.4027 9.95533 48.1744C9.89823 52.8189 9.99923 57.6484 10.3502 62.4942L10.7335 62.8397C12.6462 64.5426 15.5329 64.5426 17.4456 62.8397Z" fill="#B89373"/>
<path fill-rule="evenodd" clip-rule="evenodd" d="M59.8003 64.9616C57.8174 67.1874 58.0102 70.6048 60.236 72.5885L61.7161 73.908L66.477 78.1577C67.2259 78.8186 68.1182 79.2188 69.043 79.363C69.4564 75.26 69.6877 70.9664 69.7803 66.6158L67.4349 64.5266C65.2068 62.5291 61.7925 62.725 59.8003 64.9616Z" fill="#B89373"/>
<path fill-rule="evenodd" clip-rule="evenodd" d="M38.5648 9.91445L42.0662 13.0411C43.4676 14.2921 45.5924 14.2921 46.9968 13.0411L50.4983 9.91445L51.5865 8.94885C51.9344 8.63875 52.2012 8.27085 52.4133 7.87915C47.2791 7.55285 41.669 7.81975 36.8695 8.24935C37.0439 8.49995 37.2397 8.73675 37.4765 8.94885L38.5648 9.91445Z" fill="#B89373"/>
<path fill-rule="evenodd" clip-rule="evenodd" d="M59.3407 17.0863L56.9791 19.1949L54.6175 17.0863C52.4272 15.125 49.0699 15.3179 47.111 17.5167C45.1574 19.7093 45.3502 23.0697 47.5405 25.0202L48.9959 26.3181L53.6788 30.4975C55.5614 32.1734 58.399 32.1734 60.2793 30.4975L64.9677 26.3181L66.4199 25.0202C66.8202 24.6615 67.1333 24.2481 67.397 23.8124C67.0978 21.2441 66.8117 19.0321 66.5781 17.2659C64.5921 15.3293 61.4385 15.2091 59.3407 17.0863Z" fill="#B89373"/>
<path d="M14.7416 86.6705C4.89511 56.7615 13.2339 12.9237 13.2339 12.9237C13.2339 12.9237 13.2339 2.2936 15.3185 1.102C17.3994 -0.0872955 25.1373 9.74311 25.1373 9.74311C25.1373 9.74311 41.5063 6.8509 54.0028 7.9939C54.0028 7.9939 59.063 0.903007 63.2285 1.00101C67.394 1.10201 65.9063 12.6106 65.9063 12.6106C65.9063 12.6106 72.3925 53.4312 68.6974 82.4209C67.2583 93.6904 57.684 102.136 46.3243 102.136H36.1538C26.4299 102.136 17.7804 95.9108 14.7416 86.6705Z" stroke="#0C0D0C" stroke-width="0.816"/>
<path fill-rule="evenodd" clip-rule="evenodd" d="M45.7937 99.1187L53.7145 100.734C52.0764 104.579 49.886 108.369 47.7011 108.889C45.1706 109.485 45.1705 104.375 45.7937 99.1187Z" fill="#FFC866"/>
<path fill-rule="evenodd" clip-rule="evenodd" d="M41.5819 99.2187C41.0844 104.057 40.216 108.445 38.7036 108.171C37.1935 107.898 35.1828 103.883 33.4221 99.6406L41.3073 99.1948L41.5819 99.2187Z" fill="#FFC866"/>
<path d="M29.7764 89.424C29.7764 89.424 31.4145 94.6808 33.4221 99.6407C35.1828 103.883 37.1935 107.898 38.7036 108.171C40.216 108.445 41.0844 104.057 41.5819 99.2188C42.2027 93.5903 42.276 87.3401 42.276 87.3401" stroke="#0C0D0C" stroke-width="0.816"/>
<path d="M47.7011 88.355C47.7011 88.355 46.4114 93.8131 45.7937 99.1186C45.1705 104.375 45.1706 109.485 47.7011 108.889C49.886 108.369 51.9676 104.87 53.6057 101.028C55.7876 96.0197 57.2236 90.4389 57.2236 90.4389" stroke="#0C0D0C" stroke-width="0.816"/>
<path d="M52.4789 25.9423C52.9956 23.9455 54.8103 22.4709 56.9706 22.4709C59.1532 22.4709 60.9842 23.9756 61.4793 26.0055" stroke="#0C0D0C" stroke-width="0.816"/>
<path fill-rule="evenodd" clip-rule="evenodd" d="M25.2275 29.0938C25.2275 29.4794 24.0599 29.7925 22.6153 29.7925C21.1731 29.7925 20.0008 29.4794 20.0008 29.0938C20.0008 28.7043 21.1731 28.3889 22.6153 28.3889C24.0599 28.3889 25.2275 28.7043 25.2275 29.0938Z" fill="#FFDDA1"/>
<path fill-rule="evenodd" clip-rule="evenodd" d="M63.9064 28.1844C63.9064 28.5245 62.8861 28.7999 61.6259 28.7999C60.3664 28.7999 59.3437 28.5245 59.3437 28.1844C59.3437 27.8474 60.3664 27.5728 61.6259 27.5728C62.8861 27.5728 63.9064 27.8474 63.9064 28.1844Z" fill="#FFDDA1"/>
<path d="M67.0979 22.6639L78.1985 20.3926" stroke="#0C0D0C" stroke-width="0.816"/>
<path d="M67.6007 26.1953H78.7044" stroke="#0C0D0C" stroke-width="0.816"/>
<path d="M67.7504 29.73L78.0951 33.0086" stroke="#0C0D0C" stroke-width="0.816"/>
<path d="M11.6042 23.1102L0.500549 20.8381" stroke="#0C0D0C" stroke-width="0.816"/>
<path d="M11.1014 26.6418H0" stroke="#0C0D0C" stroke-width="0.816"/>
<path d="M11.1014 30.1765L0.753479 33.4551" stroke="#0C0D0C" stroke-width="0.816"/>
</svg>
