<svg width="72" height="150" viewBox="0 0 72 150" fill="none" xmlns="http://www.w3.org/2000/svg">
<path fill-rule="evenodd" clip-rule="evenodd" d="M36.2318 104.773C13.9512 106.49 2.36616 92.7688 1.05426 59.393C-0.259938 26.0172 22.7341 11.6728 22.7341 11.6728C22.7341 11.6728 25.2615 -0.951833 28.5995 1.26007C31.9359 3.47517 32.8144 10.0053 32.8144 10.0053C32.8144 10.0053 48.9157 11.1915 61.5048 25.0455C61.5048 25.0455 68.827 24.0745 70.5815 25.0455C72.3392 26.0172 65.8994 34.2148 65.8994 34.2148C65.8994 34.2148 61.2032 39.8033 63.6982 54.7216C66.1901 69.6391 78.0041 101.552 36.2318 104.773Z" fill="white"/>
<path fill-rule="evenodd" clip-rule="evenodd" d="M41.3328 26.5202C40.9356 27.195 38.574 26.5395 38.574 26.5395C38.574 26.5395 36.8603 24.7903 37.2575 24.1123C37.657 23.4375 38.8926 23.4298 40.0194 24.0931C41.1454 24.7571 41.7362 25.8453 41.3328 26.5202Z" fill="#0C0D0C"/>
<path d="M34.373 27.1355C33.7452 28.7675 33.8755 30.3185 34.8056 30.8684C35.3524 31.1892 36.0736 31.099 36.8001 30.7018C36.8051 31.5317 37.0754 32.2065 37.6222 32.5304C38.5524 33.0772 39.9699 32.4464 41.0967 31.1052" stroke="#0C0D0C" stroke-width="0.816"/>
<path d="M17.4418 38.3257C17.5452 40.5708 19.036 42.4997 20.6255 44.0915C22.2112 45.6803 24.0075 47.1549 25.0217 49.1602C25.2939 49.6908 25.506 50.2646 25.5338 50.8608C25.6094 52.7025 23.8579 54.1826 22.0562 54.5744C19.3599 55.1597 16.5171 53.9435 14.5142 52.0439C12.512 50.1474 11.2055 47.6416 10.0193 45.152C9.91056 44.9268 9.80486 44.687 9.72546 44.4479" stroke="#0C0D0C" stroke-width="0.816"/>
<path fill-rule="evenodd" clip-rule="evenodd" d="M25.5361 11.9667C25.5361 11.9667 26.4477 3.42053 27.3262 3.96193C28.2023 4.50103 30.6186 10.0054 30.6186 10.0054L25.5361 11.9667Z" fill="#0C0D0C"/>
<path fill-rule="evenodd" clip-rule="evenodd" d="M61.4724 27.4617C61.4724 27.4617 69.926 25.9269 69.6537 26.9203C69.3869 27.9159 64.7865 31.7876 64.7865 31.7876L61.4724 27.4617Z" fill="#0C0D0C"/>
<path d="M30.624 19.3728C30.5238 20.5698 31.2148 21.7699 32.4311 22.2866C33.6496 22.8064 34.9939 22.4717 35.7852 21.5686" stroke="#0C0D0C" stroke-width="0.816"/>
<path d="M44.5303 27.2766C44.427 28.4736 45.1203 29.6736 46.3366 30.1934C47.5559 30.7133 48.9025 30.3785 49.6938 29.4746" stroke="#0C0D0C" stroke-width="0.816"/>
<path fill-rule="evenodd" clip-rule="evenodd" d="M21.2864 64.8073C23.3048 64.7479 24.8943 63.0604 24.8342 61.0421C24.774 59.0206 23.1089 57.3663 21.0689 57.4935C11.8479 57.7635 4.63514 54.0029 1.19314 51.7747C1.01344 54.1988 0.948625 56.7292 1.05423 59.3931C1.06223 59.6654 1.08972 59.9075 1.10052 60.1767C5.63392 62.4866 12.1664 64.8266 20.0894 64.8266C20.4835 64.8266 20.8838 64.8186 21.2864 64.8073Z" fill="#FBB754"/>
<path fill-rule="evenodd" clip-rule="evenodd" d="M21.1207 76.278C23.0519 75.6772 24.1239 73.6257 23.52 71.696C22.9216 69.7702 20.87 68.6819 18.9381 69.2935C12.7156 71.2394 6.01728 70.4227 1.86798 69.5442C2.19958 72.2675 2.62457 74.8303 3.13287 77.222C5.29927 77.5598 7.78578 77.8097 10.4497 77.8097C13.8447 77.8097 17.5097 77.4048 21.1207 76.278Z" fill="#FBB754"/>
<path fill-rule="evenodd" clip-rule="evenodd" d="M19.137 82.7865C17.9917 81.1183 15.7111 80.7049 14.0491 81.8533C11.8996 83.3357 8.48756 84.1794 5.17896 84.6476C6.07976 87.2073 7.13788 89.4987 8.32718 91.5556C11.8341 90.8916 15.4582 89.7702 18.2038 87.8745C19.869 86.7284 20.2854 84.4486 19.137 82.7865Z" fill="#FBB754"/>
<path fill-rule="evenodd" clip-rule="evenodd" d="M50.2923 58.6936C48.459 57.8745 46.3042 58.6689 45.4635 60.5006C44.6144 62.3339 45.4197 64.508 47.256 65.3541C47.539 65.4852 52.1317 67.536 59.9491 67.536C61.8232 67.536 63.8887 67.4141 66.1222 67.1203C65.6872 64.5867 65.1836 62.1573 64.7154 59.9183C55.772 60.9796 50.4589 58.7646 50.2923 58.6936Z" fill="#FBB754"/>
<path fill-rule="evenodd" clip-rule="evenodd" d="M45.3379 71.8109C44.6631 73.7128 45.6564 75.8021 47.5614 76.4793C47.9771 76.6235 56.2326 79.5026 67.0416 80.3756C67.2105 77.9354 67.1319 75.4566 66.909 73.0048C57.4349 72.1233 50.0965 69.6098 50.007 69.5797C48.1028 68.9018 46.0127 69.9059 45.3379 71.8109Z" fill="#FBB754"/>
<path fill-rule="evenodd" clip-rule="evenodd" d="M35.6873 13.0087C34.5258 13.6943 34.1425 15.1913 34.825 16.3497C35.2793 17.1225 36.0929 17.5529 36.9282 17.5529C37.3501 17.5529 37.7773 17.4441 38.1637 17.2128C39.8559 16.214 41.3876 14.4424 42.7103 12.4349C40.8839 11.7631 39.2412 11.2788 37.8182 10.9248C37.1133 11.8526 36.3922 12.5953 35.6873 13.0087Z" fill="#FBB754"/>
<path fill-rule="evenodd" clip-rule="evenodd" d="M45.5855 16.8232C44.4132 17.4926 44.0075 18.9811 44.6769 20.1511C45.1258 20.9401 45.9503 21.3805 46.7963 21.3805C47.2043 21.3805 47.6239 21.2771 48.0049 21.0596C49.4248 20.246 50.8477 18.8284 52.1889 17.1741C50.7336 16.2355 49.3021 15.4249 47.9015 14.7146C47.0879 15.6586 46.2958 16.4129 45.5855 16.8232Z" fill="#FBB754"/>
<path fill-rule="evenodd" clip-rule="evenodd" d="M53.8432 24.9561C54.3199 25.6363 55.0757 26.0004 55.8485 26.0004C56.3305 26.0004 56.8172 25.8592 57.239 25.5654C57.5653 25.3371 58.6157 24.5859 59.9785 23.4838C58.7738 22.2783 57.5522 21.1608 56.3189 20.1589C55.5901 20.7358 54.9453 21.2148 54.4525 21.5603C53.3458 22.33 53.0758 23.8509 53.8432 24.9561Z" fill="#FBB754"/>
<path d="M36.2318 104.773C13.9512 106.49 2.36616 92.7688 1.05426 59.393C-0.259939 26.0172 22.7341 11.6728 22.7341 11.6728C22.7341 11.6728 25.2615 -0.951833 28.5995 1.26007C31.9359 3.47517 32.8144 10.0053 32.8144 10.0053C32.8144 10.0053 48.9157 11.1915 61.5048 25.0455C61.5048 25.0455 68.827 24.0745 70.5815 25.0455C72.3392 26.0172 65.8994 34.2148 65.8994 34.2148C65.8994 34.2148 61.2032 39.8033 63.6982 54.7216C66.1901 69.6391 78.0041 101.552 36.2318 104.773Z" stroke="#0C0D0C" stroke-width="0.816"/>
<path fill-rule="evenodd" clip-rule="evenodd" d="M61.3475 42.7117C61.4531 44.956 62.9417 46.8857 64.5304 48.4799C66.12 50.0686 67.9124 51.5409 68.9304 53.5462C69.1996 54.0768 69.4147 54.6529 69.4363 55.2491C69.515 57.0885 67.7627 58.5709 65.9619 58.9604C63.2656 59.5426 60.4251 58.3287 58.4221 56.4299C56.4169 54.5334 55.1112 52.0276 53.925 49.538C53.7892 49.2526 53.6558 48.948 53.5741 48.6403L61.3475 42.7117Z" fill="white"/>
<path d="M61.3475 42.7117C61.4531 44.956 62.9417 46.8857 64.5304 48.4799C66.12 50.0686 67.9124 51.5409 68.9304 53.5462C69.1996 54.0768 69.4147 54.6529 69.4363 55.2491C69.515 57.0885 67.7627 58.5709 65.9619 58.9604C63.2656 59.5426 60.4251 58.3287 58.4221 56.4299C56.4169 54.5334 55.1112 52.0276 53.925 49.538C53.7892 49.2526 53.6558 48.948 53.5741 48.6403" stroke="#0C0D0C" stroke-width="0.816"/>
<path fill-rule="evenodd" clip-rule="evenodd" d="M54.235 83.0094C56.0421 84.7424 56.7246 87.3762 56.504 89.8905C55.1382 89.6206 48.1838 87.6701 46.892 87.3053C47.1365 86.0104 47.4766 84.7671 48.1105 83.6218C48.3797 83.0827 48.7476 82.596 49.2096 82.2282C50.6981 81.1322 52.9185 81.7415 54.235 83.0094Z" fill="#FFC47A"/>
<path fill-rule="evenodd" clip-rule="evenodd" d="M30.5939 82.6201C32.374 83.0095 34.1309 84.498 34.0576 86.329C34.036 86.9136 33.8154 87.499 33.5463 88.0373C33.1082 88.8888 32.5205 89.6454 31.8896 90.3526L31.7423 90.2061C30.8392 88.7669 24.9592 84.7919 24.154 84.2528C26.0312 82.8869 28.3496 82.1303 30.5939 82.6201Z" fill="#FFC47A"/>
<path d="M25.958 98.8687C26.0806 96.6244 27.5683 94.6954 29.1548 93.1089C30.0579 92.1842 31.032 91.3051 31.8896 90.3526C32.5205 89.6454 33.1082 88.8888 33.5463 88.0373C33.8154 87.499 34.036 86.9136 34.0576 86.329C34.1309 84.498 32.374 83.0095 30.5939 82.6201C28.3496 82.1303 26.0312 82.8869 24.154 84.2528C23.7622 84.522 23.3735 84.8158 23.0334 85.1559C21.0305 87.0362 19.7386 89.5474 18.5409 92.037C18.4429 92.2576 18.3211 92.4998 18.2501 92.7442" stroke="#0C0D0C" stroke-width="0.816"/>
<path d="M43.4283 95.9872C45.2322 94.646 45.9888 92.3038 46.4045 90.1103C46.5734 89.1825 46.7231 88.2331 46.892 87.3053C47.1365 86.0104 47.4766 84.7671 48.1105 83.6218C48.3797 83.0827 48.7476 82.596 49.2096 82.2282C50.6981 81.1322 52.9185 81.7415 54.235 83.0094C56.0421 84.7424 56.7246 87.3762 56.504 89.8905C56.4801 90.135 56.4555 90.4019 56.4061 90.671C55.968 93.4028 54.6514 95.8924 53.2585 98.257C53.0896 98.5509 52.9185 98.82 52.6979 99.0622" stroke="#0C0D0C" stroke-width="0.816"/>
<path fill-rule="evenodd" clip-rule="evenodd" d="M49.4278 34.245C49.1309 34.7016 48.1082 34.5712 47.1395 33.9481C46.1709 33.328 45.621 32.4488 45.9179 31.9891C46.2117 31.5294 47.2375 31.6629 48.2085 32.286C49.1749 32.9084 49.7217 33.7846 49.4278 34.245Z" fill="#FFE7BC"/>
<path fill-rule="evenodd" clip-rule="evenodd" d="M29.0083 23.4567C28.7144 23.9163 27.691 23.7829 26.72 23.1598C25.7513 22.5374 25.2045 21.6612 25.4983 21.2039C25.7921 20.7442 26.8179 20.8745 27.7889 21.4977C28.7553 22.1178 29.3021 22.997 29.0083 23.4567Z" fill="#FFE7BC"/>
<path d="M47.8221 36.3181L54.2488 38.9982" stroke="#0C0D0C" stroke-width="0.816"/>
<path d="M46.8619 38.2878L52.5051 42.1217" stroke="#0C0D0C" stroke-width="0.816"/>
<path d="M45.6402 40.0833L49.768 45.3208" stroke="#0C0D0C" stroke-width="0.816"/>
<path d="M25.6339 25.054L20.293 20.5862" stroke="#0C0D0C" stroke-width="0.816"/>
<path d="M24.3283 26.817L18.3265 23.5793" stroke="#0C0D0C" stroke-width="0.816"/>
<path d="M23.2995 28.7266L16.7477 27.4834" stroke="#0C0D0C" stroke-width="0.816"/>
<path fill-rule="evenodd" clip-rule="evenodd" d="M42.2335 104.055C42.2335 104.055 50.6 127.024 39.8396 138.002C29.0814 148.981 19.8604 136.024 18.7613 131.415C17.6646 126.803 10.8576 130.316 15.0285 139.099C19.1994 147.882 33.2554 152.052 42.4757 145.248C51.6991 138.44 55.4597 118.168 48.5292 102.613L42.2335 104.055Z" fill="white"/>
<path fill-rule="evenodd" clip-rule="evenodd" d="M47.4033 108.389C46.9328 109.151 46.9328 110.07 47.3216 110.811C47.5229 111.183 47.8167 111.509 48.2008 111.744C49.1417 112.323 50.287 112.731 51.5256 113.03C51.2318 111.135 50.8122 109.257 50.2631 107.407C49.2073 107.045 48.0126 107.399 47.4033 108.389Z" fill="#FBB754"/>
<path fill-rule="evenodd" clip-rule="evenodd" d="M48.7391 116.415C48.2494 117.18 48.244 118.113 48.6412 118.864C48.8317 119.226 49.1201 119.547 49.4903 119.783C50.2222 120.246 51.1091 120.63 52.0855 120.951C52.1186 119.172 52.0369 117.37 51.8572 115.569C50.7551 115.028 49.4109 115.354 48.7391 116.415Z" fill="#FBB754"/>
<path fill-rule="evenodd" clip-rule="evenodd" d="M48.6766 124.54C48.2987 125.28 48.3311 126.118 48.6874 126.801C48.9134 127.225 49.2666 127.59 49.724 127.827C49.9469 127.941 50.5184 128.226 51.2943 128.586C51.6097 126.934 51.838 125.234 51.9637 123.492C50.7636 122.874 49.2944 123.345 48.6766 124.54Z" fill="#FBB754"/>
<path d="M42.2335 104.055C42.2335 104.055 50.6 127.024 39.8396 138.002C29.0814 148.981 19.8604 136.024 18.7613 131.415C17.6646 126.803 10.8576 130.316 15.0285 139.099C19.1994 147.882 33.2554 152.052 42.4757 145.248C51.6991 138.44 55.4597 118.168 48.5292 102.613L42.2335 104.055Z" stroke="#0C0D0C" stroke-width="0.816"/>
</svg>
