<svg width="80" height="116" viewBox="0 0 80 116" fill="none" xmlns="http://www.w3.org/2000/svg">
<path fill-rule="evenodd" clip-rule="evenodd" d="M60.9824 90.4242C60.9824 90.4242 70.9526 86.4383 72.3733 74.477C73.7968 62.5165 68.1013 34.0391 73.2271 27.2019C73.2271 27.2019 74.3699 23.7846 77.7836 24.3578C81.2008 24.9264 77.214 29.768 76.6445 37.1721C76.0785 44.5762 79.7801 60.8051 78.6384 71.0596C77.4992 81.3124 75.5054 95.8353 56.9956 97.5431L54.7201 96.6865L59.2737 90.4242H60.9824Z" fill="white"/>
<path fill-rule="evenodd" clip-rule="evenodd" d="M72.968 46.45C73.1456 48.2591 74.9707 49.2054 77.4642 49.6512C77.1602 47.0159 76.8858 44.5091 76.727 42.2883C74.3949 43.2695 72.7912 44.605 72.968 46.45Z" fill="#FBD6A8"/>
<path fill-rule="evenodd" clip-rule="evenodd" d="M73.778 55.91C73.5726 57.2878 75.639 58.3121 78.4734 59.0771C78.3128 57.2429 78.1191 55.398 77.9137 53.5718C75.6131 54.0185 73.952 54.7459 73.778 55.91Z" fill="#FBD6A8"/>
<path fill-rule="evenodd" clip-rule="evenodd" d="M74.2559 65.5769C74.0567 66.9151 76.0686 68.4336 78.7396 69.8363C78.8688 68.0542 78.875 66.1239 78.7997 64.1085C76.3161 64.0457 74.4299 64.3965 74.2559 65.5769Z" fill="#FBD6A8"/>
<path d="M60.9824 90.4242C60.9824 90.4242 70.9526 86.4383 72.3733 74.477C73.7968 62.5165 68.1013 34.0391 73.2271 27.2019C73.2271 27.2019 74.3699 23.7846 77.7836 24.3578C81.2008 24.9264 77.214 29.768 76.6445 37.1721C76.0785 44.5762 79.7801 60.8051 78.6384 71.0596C77.4992 81.3124 75.5054 95.8353 56.9956 97.5431L54.7201 96.6865L59.2737 90.4242H60.9824Z" stroke="#0C0D0C" stroke-width="0.816"/>
<path fill-rule="evenodd" clip-rule="evenodd" d="M3.46089 47.1399C3.46089 47.1399 1.46794 74.7616 5.45116 85.2986C8.44785 93.2158 13.0356 102.332 21.1303 106.069C38.2508 113.979 57.0368 102.182 63.9629 86.3472C69.2278 74.3033 68.5068 60.4152 65.6903 47.8538C64.3082 41.6875 62.4256 35.5426 59.8434 29.7682L53.2967 14.6713C53.2967 14.6713 56.4261 4.99252 54.4322 3.56826C52.4392 2.14213 45.6047 8.40983 45.6047 8.40983C33.6469 5.27777 13.7101 7.8402 13.7101 7.8402C13.7101 7.8402 11.1467 1.29094 9.15366 1.0066C7.1599 0.720512 6.30594 9.83409 6.30594 9.83409C6.30594 9.83409 -1.52512 23.0763 4.45476 34.7516L3.46089 47.1399Z" fill="white"/>
<path fill-rule="evenodd" clip-rule="evenodd" d="M48.0254 9.97573C48.0254 9.97573 51.5843 4.56543 52.5817 5.56197C53.5782 6.55931 51.3027 12.6817 51.3027 12.6817L48.0254 9.97573Z" fill="#FBD6A8"/>
<path fill-rule="evenodd" clip-rule="evenodd" d="M11.856 9.00172C11.856 9.00172 10.2577 2.7241 8.99219 3.34128C7.72306 3.96102 7.87818 10.4888 7.87818 10.4888L11.856 9.00172Z" fill="#FBD6A8"/>
<path fill-rule="evenodd" clip-rule="evenodd" d="M7.08455 68.6464C7.91955 72.2789 9.6057 75.8262 12.4284 78.265C15.2447 80.7109 19.3042 81.8886 22.8417 80.6984C26.9998 79.2965 29.591 75.0316 30.5561 70.7469C32.2459 63.2388 28.8565 43.7693 19.4845 41.5485C7.79582 38.7771 5.52748 61.8459 7.08455 68.6464Z" fill="#FBD6A8"/>
<path fill-rule="evenodd" clip-rule="evenodd" d="M46.9339 47.895C48.1456 52.7339 60.6244 49.3982 65.684 47.8322C64.9978 44.7728 64.188 41.7188 63.2291 38.7131C58.6943 39.672 45.6773 42.8703 46.9339 47.895Z" fill="#FBD6A8"/>
<path fill-rule="evenodd" clip-rule="evenodd" d="M49.9745 57.008C49.9745 60.3283 62.3906 59.8154 67.5192 59.4637C67.2725 56.8187 66.9147 54.1925 66.4376 51.604C61.0389 52.2148 49.9745 53.8499 49.9745 57.008Z" fill="#FBD6A8"/>
<path fill-rule="evenodd" clip-rule="evenodd" d="M51.8698 66.5008C51.8698 69.5386 63.0265 71.8447 67.4977 72.6483C67.8008 69.918 67.8735 67.1654 67.8044 64.4091C62.9252 64.0458 51.8698 63.5427 51.8698 66.5008Z" fill="#FBD6A8"/>
<path fill-rule="evenodd" clip-rule="evenodd" d="M19.9751 17.9019C22.7465 18.1333 23.6901 11.9168 24.0057 7.0061C21.2092 7.13519 18.7444 7.32454 16.9308 7.49491C16.8834 12.1949 17.3838 17.6866 19.9751 17.9019Z" fill="#FBD6A8"/>
<path fill-rule="evenodd" clip-rule="evenodd" d="M27.9487 17.5226C29.6133 17.8553 33.8719 18.6975 33.6316 6.91914C31.4224 6.84378 29.2304 6.84379 27.1414 6.89043C26.8983 11.5777 26.832 17.2984 27.9487 17.5226Z" fill="#FBD6A8"/>
<path fill-rule="evenodd" clip-rule="evenodd" d="M38.9602 17.5226C41.3675 17.5226 43.7345 14.5923 44.244 8.10306C42.0959 7.63486 39.7575 7.32274 37.3394 7.12817C37.0928 11.7993 37.1628 17.5226 38.9602 17.5226Z" fill="#FBD6A8"/>
<path d="M3.46089 47.1399C3.46089 47.1399 1.46794 74.7616 5.45116 85.2986C8.44785 93.2158 13.0356 102.332 21.1303 106.069C38.2508 113.979 57.0368 102.182 63.9629 86.3472C69.2278 74.3033 68.5068 60.4152 65.6903 47.8538C64.3082 41.6875 62.4256 35.5426 59.8434 29.7682L53.2967 14.6713C53.2967 14.6713 56.4261 4.99252 54.4322 3.56826C52.4392 2.14213 45.6047 8.40983 45.6047 8.40983C33.6469 5.27777 13.7101 7.8402 13.7101 7.8402C13.7101 7.8402 11.1467 1.29094 9.15366 1.0066C7.1599 0.720512 6.30594 9.83409 6.30594 9.83409C6.30594 9.83409 -1.52512 23.0763 4.45476 34.7516L3.46089 47.1399Z" stroke="#0C0D0C" stroke-width="0.816"/>
<path d="M24.7153 27.5878C25.0696 28.8059 26.1199 29.6885 27.363 29.6723C28.0977 29.6642 28.7551 29.3377 29.2394 28.8283C29.7364 29.3252 30.4037 29.6293 31.1382 29.6194C32.3814 29.6015 33.4065 28.6893 33.7232 27.4614" stroke="#0C0D0C" stroke-width="0.816"/>
<path fill-rule="evenodd" clip-rule="evenodd" d="M31.8629 23.0314C31.7803 23.9301 28.9928 24.4144 28.9928 24.4144C28.9928 24.4144 26.3415 23.4332 26.4203 22.5327C26.5055 21.6294 27.7908 21.0097 29.2933 21.1496C30.7929 21.2878 31.9419 22.129 31.8629 23.0314Z" fill="#0C0D0C"/>
<path d="M35.1025 23.5697C35.3941 22.3706 36.3081 21.4745 37.4283 21.4494C38.545 21.4216 39.501 22.2728 39.8455 23.4594" stroke="#0C0D0C" stroke-width="0.816"/>
<path d="M18.1552 22.8835C18.6045 21.7337 19.6333 20.9712 20.7436 21.1013C21.8576 21.2287 22.6864 22.2 22.8639 23.4207" stroke="#0C0D0C" stroke-width="0.816"/>
<path d="M46.1769 22.9301L52.7236 20.8994" stroke="#0C0D0C" stroke-width="0.816"/>
<path d="M46.402 25.4146H54.303" stroke="#0C0D0C" stroke-width="0.816"/>
<path d="M47.0791 27.6741L54.5272 28.5755" stroke="#0C0D0C" stroke-width="0.816"/>
<path d="M13.2858 22.9301L6.73914 20.8994" stroke="#0C0D0C" stroke-width="0.816"/>
<path d="M13.0615 25.4146H5.15698" stroke="#0C0D0C" stroke-width="0.816"/>
<path d="M12.3808 27.6741L4.9292 28.5755" stroke="#0C0D0C" stroke-width="0.816"/>
<path fill-rule="evenodd" clip-rule="evenodd" d="M7.89444 47.633C8.26484 44.1905 5.96067 41.0199 3.35334 38.7346C2.50567 37.9919 1.5917 37.2762 1.00604 36.3084C0.426658 35.3397 0.249896 34.023 0.917313 33.11C1.41413 32.4284 2.29039 32.1001 3.13539 32.0902C3.98028 32.0844 4.79645 32.353 5.58132 32.6696C9.07122 34.0732 12.1504 36.4851 14.3496 39.5355C14.4187 39.6306 14.5263 39.7408 14.6375 39.706C14.7514 39.6656 14.6341 39.4405 14.5702 39.5418L7.89444 47.633Z" fill="white"/>
<path d="M7.89444 47.633C8.26484 44.1905 5.96067 41.0199 3.35334 38.7346C2.50567 37.9919 1.5917 37.2762 1.00604 36.3084C0.426658 35.3397 0.249896 34.023 0.917313 33.11C1.41413 32.4284 2.29039 32.1001 3.13539 32.0902C3.98028 32.0844 4.79645 32.353 5.58132 32.6696C9.07122 34.0732 12.1504 36.4851 14.3496 39.5355" stroke="#0C0D0C" stroke-width="0.816"/>
<path fill-rule="evenodd" clip-rule="evenodd" d="M13.5924 94.1711C13.9602 97.6171 11.6533 100.787 9.04864 103.069C8.20108 103.813 7.28712 104.531 6.70134 105.496C6.11928 106.468 5.94531 107.784 6.61261 108.695C7.10954 109.378 7.98581 109.708 8.83069 109.713C9.67197 109.719 10.4954 109.451 11.2766 109.137C14.7665 107.733 17.842 105.322 20.0476 102.271C20.114 102.174 20.2189 102.066 20.3355 102.101C20.4467 102.139 20.3332 102.366 20.2691 102.265L13.5924 94.1711Z" fill="white"/>
<path fill-rule="evenodd" clip-rule="evenodd" d="M34.4505 98.7622C36.109 101.803 35.1914 105.616 33.6532 108.717C33.1536 109.729 32.5841 110.741 32.4136 111.859C32.2459 112.978 32.5877 114.26 33.5527 114.852C34.2738 115.289 35.2076 115.254 35.9923 114.94C36.7736 114.627 37.4283 114.067 38.0292 113.475C40.7191 110.84 42.6394 107.439 43.513 103.78C43.5417 103.66 43.592 103.519 43.7122 103.514C43.8297 103.505 43.8108 103.758 43.7157 103.685L34.4505 98.7622Z" fill="white"/>
<path fill-rule="evenodd" clip-rule="evenodd" d="M29.312 49.7973C29.6861 46.3514 27.3791 43.1808 24.7754 40.8989C23.9242 40.1527 23.0093 39.4406 22.4272 38.4728C21.8451 37.5014 21.6675 36.1847 22.3357 35.2743C22.8353 34.5908 23.7116 34.2644 24.5565 34.2581C25.3987 34.2476 26.2212 34.5174 27.0024 34.8304C30.1918 36.1184 33.0396 38.244 35.1877 40.9313L29.312 49.7973Z" fill="white"/>
<path d="M29.312 49.7973C29.6861 46.3514 27.3791 43.1808 24.7754 40.8989C23.9242 40.1527 23.0093 39.4406 22.4272 38.4728C21.8451 37.5014 21.6675 36.1847 22.3357 35.2743C22.8353 34.5908 23.7116 34.2644 24.5565 34.2581C25.3987 34.2476 26.2212 34.5174 27.0024 34.8304C30.1918 36.1184 33.0396 38.244 35.1877 40.9313" stroke="#0C0D0C" stroke-width="0.816"/>
<path fill-rule="evenodd" clip-rule="evenodd" d="M32.9357 110.176L38.4373 113.056C38.3109 113.214 38.1531 113.34 38.0266 113.465C37.4284 114.067 36.7637 114.638 36.0049 114.953C35.2139 115.267 34.264 115.301 33.5653 114.858C32.5877 114.257 32.236 112.991 32.4288 111.849C32.5239 111.282 32.7141 110.713 32.9357 110.176Z" fill="#FBD6A8"/>
<path fill-rule="evenodd" clip-rule="evenodd" d="M8.54016 103.562L12.6212 108.4L12.6848 108.498C12.2068 108.751 11.7673 108.938 11.2928 109.131C10.5017 109.447 9.67564 109.729 8.82447 109.701C8.00204 109.701 7.1159 109.384 6.61002 108.685C5.94539 107.77 6.13192 106.474 6.70421 105.492C7.14729 104.729 7.81178 104.131 8.50513 103.527L8.54016 103.562Z" fill="#FBD6A8"/>
<path d="M13.6023 94.1621C13.9504 97.6107 11.6686 100.774 9.04242 103.056C8.85588 103.215 8.66655 103.373 8.50513 103.527C7.81178 104.131 7.14729 104.73 6.70421 105.492C6.13192 106.474 5.94539 107.77 6.61002 108.685C7.1159 109.385 8.00204 109.701 8.82447 109.701C9.67564 109.729 10.5017 109.447 11.2928 109.131C11.7673 108.938 12.2068 108.751 12.6848 108.499C15.5926 107.074 18.1238 104.922 20.0575 102.265" stroke="#0C0D0C" stroke-width="0.816"/>
<path d="M34.4505 98.7524C36.0991 101.79 35.1815 105.619 33.6604 108.72C33.4065 109.192 33.1536 109.701 32.9357 110.176C32.7141 110.713 32.5239 111.283 32.4288 111.849C32.236 112.991 32.5877 114.257 33.5653 114.858C34.264 115.301 35.2139 115.267 36.0049 114.954C36.7637 114.638 37.4284 114.067 38.0266 113.466C38.1531 113.34 38.3109 113.214 38.4373 113.056C40.9057 110.492 42.6807 107.265 43.5032 103.784" stroke="#0C0D0C" stroke-width="0.816"/>
<path fill-rule="evenodd" clip-rule="evenodd" d="M42.4089 24.4719C42.4277 24.8227 41.6941 25.1491 40.7667 25.1994C39.8429 25.2424 39.0742 24.9967 39.058 24.6459C39.0419 24.2908 39.7765 23.9687 40.7003 23.9177C41.6268 23.8737 42.3901 24.1204 42.4089 24.4719Z" fill="#FFECCB"/>
<path fill-rule="evenodd" clip-rule="evenodd" d="M20.2441 24.6746C20.2593 25.0254 19.5257 25.3482 18.6019 25.3948C17.6781 25.446 16.9085 25.1993 16.8932 24.845C16.8743 24.4934 17.608 24.1679 18.5355 24.1204C19.4593 24.0728 20.2253 24.3195 20.2441 24.6746Z" fill="#FFECCB"/>
</svg>
