<svg width="88" height="132" viewBox="0 0 88 132" fill="none" xmlns="http://www.w3.org/2000/svg">
<path fill-rule="evenodd" clip-rule="evenodd" d="M47.9222 117.96L47.9103 118.042C22.1676 142.916 -0.176892 124.329 1.34858 120.119C2.86668 115.949 10.9396 121.832 10.9396 121.832C28.1934 131.767 42.688 116.078 42.688 116.078L42.7501 115.965C44.0407 116.706 45.8034 117.509 47.9222 117.96Z" fill="#FBD6A8"/>
<path d="M42.688 116.079C42.688 116.079 28.1934 131.767 10.9396 121.832C10.9396 121.832 2.86668 115.949 1.34858 120.12C-0.176891 124.33 22.1675 142.916 47.9103 118.042" stroke="#0C0D0C" stroke-width="0.816"/>
<path fill-rule="evenodd" clip-rule="evenodd" d="M85.3673 62.7278C80.647 44.03 68.4808 37.8194 68.4808 37.8194C69.5433 36.3754 70.1904 34.9 70.5457 33.4118C70.9019 31.926 70.9842 30.4505 70.7956 28.9481C70.7081 28.0511 70.5226 27.1144 70.242 26.2457C69.933 25.0763 69.5096 23.9495 68.9963 22.849C68.4845 21.7484 67.9167 20.7211 67.3002 19.7261C66.6612 18.6442 65.9631 17.6356 65.2696 16.7333C62.5604 13.0672 59.8827 10.6251 59.8827 10.6251C59.8827 10.6251 56.3101 1.13968 52.8093 1.00202C49.2936 0.841178 49.1493 10.3431 49.1493 10.3431C48.4258 10.6311 47.6364 10.9266 46.8321 11.3037C45.6852 11.8476 44.4821 12.4679 43.2775 13.1906C42.3632 13.7166 41.4662 14.265 40.5609 14.8539C39.2388 15.6612 37.9662 16.5403 36.7406 17.3879C35.8211 18.0584 34.924 18.713 34.0532 19.3512C32.7409 20.3283 31.5168 21.2785 30.4619 22.112C28.034 24.0393 26.4853 25.3928 26.4853 25.3928C26.4853 25.3928 18.5673 23.9443 16.711 25.8282C14.8555 27.7129 25.5284 36.6948 25.5284 36.6948C26.0438 38.0072 26.5908 39.2603 27.1452 40.3691C27.6038 41.2901 28.0542 42.1506 28.5218 42.9264C29.0478 43.8429 29.6112 44.6607 30.1424 45.4291C30.8277 46.3711 31.4906 47.2263 32.158 47.9363C32.9085 48.7653 33.6633 49.4514 34.3883 50.085C35.2824 50.8183 36.1586 51.4175 36.9988 51.8635C41.0794 54.2285 44.2517 53.7377 44.2517 53.7377C44.2517 53.7377 44.0077 55.5408 43.4712 58.357L43.4099 58.5762C43.4406 58.584 43.4788 58.5971 43.5125 58.6046L40.6102 69.157L40.7771 69.2633C40.602 69.8199 40.4606 70.3661 40.2668 70.9257C39.8366 72.2538 39.3166 73.6049 38.8033 74.9165C38.4607 75.7582 38.0949 76.6134 37.7185 77.4057C37.2202 78.5325 36.6636 79.6256 36.0808 80.6311C35.4911 81.6764 34.9158 82.7447 34.3434 83.8169C33.715 84.9594 33.0857 86.1049 32.4962 87.2533C29.0905 93.9128 26.5698 100.68 28.5832 106.701L28.5697 106.835C28.5697 106.835 30.916 119.969 52.2557 118.797C52.2557 118.797 60.7273 118.185 71.3867 108.321C74.5927 106.157 77.688 102.462 80.2452 97.8371C80.9051 96.6363 81.5164 95.3644 82.0858 94.0812C82.6866 92.7435 83.2297 91.3758 83.725 89.9348C84.1507 88.6494 84.5578 87.3401 84.9311 85.9813C85.2199 84.8568 85.4518 83.7062 85.6837 82.5495C85.9464 81.2357 86.1356 79.8657 86.2972 78.5085C86.8778 73.2855 86.6662 67.8955 85.3673 62.7278Z" fill="#FBD6A8"/>
<path d="M66.7831 19.159L73.3889 14.4424" stroke="#0C0D0C" stroke-width="0.816"/>
<path d="M68.3865 22.067L74.0667 19.1716" stroke="#0C0D0C" stroke-width="0.816"/>
<path d="M69.7804 24.9156L77.0311 22.606" stroke="#0C0D0C" stroke-width="0.816"/>
<path fill-rule="evenodd" clip-rule="evenodd" d="M46.7401 33.7022C46.7401 33.7022 43.2499 32.4116 44.6056 31.3081C45.9613 30.2053 46.8658 29.4713 47.8759 30.7139C48.8866 31.9575 48.3793 33.8713 46.7401 33.7022Z" fill="#0C0D0C"/>
<path d="M35.3109 35.1121C35.3109 35.1121 38.2355 36.8644 39.9938 34.869C41.7512 32.8766 40.6933 31.1108 40.6933 31.1108" stroke="#0C0D0C" stroke-width="0.816"/>
<path d="M49.1703 25.2694C49.1703 25.2694 50.9845 27.7346 53.3593 25.805C55.7326 23.8754 53.782 21.7087 53.782 21.7087" stroke="#0C0D0C" stroke-width="0.816"/>
<path d="M44.5591 39.7908C44.5591 39.7908 48.7475 40.3272 49.3124 36.8669C49.3124 36.8669 53.0705 37.5635 54.1576 34.053" stroke="#0C0D0C" stroke-width="0.816"/>
<path fill-rule="evenodd" clip-rule="evenodd" d="M65.2592 16.7353L65.2726 16.7249C65.9579 17.6459 66.659 18.6514 67.3091 19.7184C66.5715 20.2166 59.6844 24.6541 58.7926 22.661C57.8289 20.5518 65.2592 16.7353 65.2592 16.7353Z" fill="#B89373"/>
<path fill-rule="evenodd" clip-rule="evenodd" d="M68.9843 22.8461C69.5014 23.9414 69.9375 25.0817 70.2525 26.2458L70.2181 26.2506C70.2181 26.2506 61.9597 29.3437 61.2721 27.2614C60.6302 25.2848 68.2541 23.0653 68.9843 22.8461Z" fill="#B89373"/>
<path fill-rule="evenodd" clip-rule="evenodd" d="M70.7987 28.9514C70.9694 30.4478 70.9147 31.9284 70.5638 33.4143L70.5122 33.3964C70.5122 33.3964 63.5218 34.1961 62.5942 31.8207C61.7173 29.5792 69.8245 29.015 70.7987 28.9514Z" fill="#B89373"/>
<path fill-rule="evenodd" clip-rule="evenodd" d="M39.9683 44.4604C41.8545 45.5483 36.9988 51.8771 36.9988 51.8771C36.1459 51.4072 35.2719 50.8184 34.3928 50.0748C34.8335 49.2876 38.2048 43.4548 39.9683 44.4604Z" fill="#B89373"/>
<path fill-rule="evenodd" clip-rule="evenodd" d="M27.1526 40.3689C27.4595 40.1183 32.8935 35.8978 34.2463 37.7346C35.5226 39.4502 29.4668 42.4647 28.5188 42.9188C28.0543 42.1347 27.6008 41.2825 27.1526 40.3689Z" fill="#B89373"/>
<path fill-rule="evenodd" clip-rule="evenodd" d="M30.1372 45.4239C30.39 45.1014 34.5994 39.6696 36.8342 41.3777C38.8887 42.9376 33.4007 47.0624 32.1685 47.9467C31.4958 47.2135 30.8128 46.3711 30.1372 45.4239Z" fill="#B89373"/>
<path d="M28.4104 42.1536L21.0311 45.5346" stroke="#0C0D0C" stroke-width="0.816"/>
<path d="M30.132 44.9958L24.7944 48.4801" stroke="#0C0D0C" stroke-width="0.816"/>
<path d="M31.9082 47.6218L26.2946 52.7611" stroke="#0C0D0C" stroke-width="0.816"/>
<path d="M78.9232 61.875C78.9232 61.875 74.2321 63.1267 72.6699 67.8141C71.1047 72.5044 62.6637 70.9445 65.4754 64.689C68.29 58.4333 74.8576 55.6201 74.8576 55.6201" stroke="#0C0D0C" stroke-width="0.816"/>
<path fill-rule="evenodd" clip-rule="evenodd" d="M51.8076 9.69167C51.8076 9.69167 51.601 3.66584 52.8303 3.79224C54.0566 3.91865 56.6244 9.15295 56.6244 9.15295L51.8076 9.69167Z" fill="#B89373"/>
<path fill-rule="evenodd" clip-rule="evenodd" d="M24.6448 32.1444C24.6448 32.1444 19.2032 28.6847 19.9664 27.3149C20.7288 25.9449 25.568 28.2037 25.568 28.2037L24.6448 32.1444Z" fill="#B89373"/>
<path fill-rule="evenodd" clip-rule="evenodd" d="M46.8344 11.3174L46.8392 11.3488C46.8392 11.3488 50.9737 18.1296 48.5249 19.1165C46.0664 20.1094 43.4372 13.4871 43.4372 13.4871L43.2719 13.1856C44.4765 12.4838 45.6695 11.8478 46.8344 11.3174Z" fill="#B89373"/>
<path fill-rule="evenodd" clip-rule="evenodd" d="M43.0972 22.899C41.0584 24.5563 36.8678 17.5855 36.8678 17.5855L36.7354 17.3984C37.9662 16.538 39.2493 15.6694 40.5504 14.8486C40.8168 15.2235 45.0642 21.2994 43.0972 22.899Z" fill="#B89373"/>
<path fill-rule="evenodd" clip-rule="evenodd" d="M34.0681 19.3491L34.1355 19.4306C34.1355 19.4306 39.0764 26.2855 37.0197 27.5813C34.9525 28.8907 30.601 22.3052 30.601 22.3052L30.4567 22.1286C31.5115 21.2913 32.7409 20.3308 34.0681 19.3491Z" fill="#B89373"/>
<path fill-rule="evenodd" clip-rule="evenodd" d="M86.2846 78.5035C86.1357 79.8659 85.9389 81.2246 85.6816 82.5557C85.0703 82.6028 72.866 83.7191 74.1498 80.1166C75.4232 76.5245 85.7092 78.401 86.2846 78.5035Z" fill="#B89373"/>
<path fill-rule="evenodd" clip-rule="evenodd" d="M84.9153 85.9757C84.56 87.3298 84.1523 88.6444 83.7176 89.9245L83.5888 89.8879C83.5888 89.8879 73.5879 90.5186 73.763 86.8099C73.9283 83.3076 83.8484 85.7018 84.9153 85.9757Z" fill="#B89373"/>
<path fill-rule="evenodd" clip-rule="evenodd" d="M71.1959 92.638C72.9198 89.6027 81.5883 93.8202 82.0836 94.0656C81.5135 95.3749 80.9051 96.6393 80.24 97.8296C79.5577 97.692 69.4706 95.6757 71.1959 92.638Z" fill="#B89373"/>
<path fill-rule="evenodd" clip-rule="evenodd" d="M40.2669 70.9395C41.0764 71.401 50.508 76.8276 49.0356 78.5537C47.5647 80.3067 39.28 75.2258 38.7907 74.9145C39.3189 73.5969 39.827 72.2615 40.2669 70.9395Z" fill="#B89373"/>
<path fill-rule="evenodd" clip-rule="evenodd" d="M37.7185 77.4216C38.9912 77.8227 48.74 81.1222 46.4251 83.8695C43.9479 86.8285 36.0942 80.6313 36.0942 80.6313C36.6665 79.6153 37.203 78.5304 37.7185 77.4216Z" fill="#B89373"/>
<path fill-rule="evenodd" clip-rule="evenodd" d="M34.3316 83.8169C34.883 83.959 45.9793 86.7123 43.9202 90.0403C41.8215 93.44 32.4985 87.2534 32.4985 87.2534C33.0753 86.0974 33.7024 84.9541 34.3316 83.8169Z" fill="#B89373"/>
<path fill-rule="evenodd" clip-rule="evenodd" d="M59.846 100.448C61.1277 101.678 61.6125 103.549 61.4576 105.333C60.4887 105.143 55.55 103.755 54.632 103.499C54.8047 102.578 55.0464 101.696 55.4983 100.881C55.6891 100.501 55.9488 100.152 56.2771 99.8932C57.3336 99.1121 58.9107 99.5476 59.846 100.448Z" fill="#B89373"/>
<path fill-rule="evenodd" clip-rule="evenodd" d="M41.5178 95.5411C42.9303 95.8501 44.322 97.03 44.2651 98.4815C44.2449 98.9461 44.0698 99.4107 43.8581 99.8356C43.5095 100.514 43.0456 101.111 42.5435 101.673L42.4268 101.556C41.71 100.416 37.0504 97.2619 36.4107 96.837C37.9011 95.7551 39.7394 95.1536 41.5178 95.5411Z" fill="#B89373"/>
<path d="M37.842 108.424C37.94 106.643 39.1206 105.117 40.3753 103.858C41.0921 103.124 41.865 102.427 42.5436 101.673C43.0456 101.111 43.5095 100.514 43.8581 99.8356C44.0698 99.4107 44.2449 98.9461 44.2651 98.4815C44.322 97.03 42.9303 95.8501 41.5178 95.5411C39.7394 95.1536 37.9011 95.7551 36.4107 96.837C36.1017 97.0487 35.792 97.2806 35.5226 97.5552C33.9342 99.0411 32.9107 101.033 31.962 103.008C31.885 103.182 31.7899 103.375 31.73 103.568" stroke="#0C0D0C" stroke-width="0.816"/>
<path d="M52.1734 109.665C53.4536 108.712 53.99 107.047 54.284 105.489C54.4075 104.832 54.5108 104.156 54.632 103.499C54.8048 102.578 55.0464 101.696 55.4984 100.881C55.6891 100.501 55.9488 100.152 56.2772 99.8932C57.3336 99.1121 58.9108 99.5476 59.8461 100.448C61.1278 101.678 61.6125 103.549 61.4577 105.333C61.439 105.505 61.4218 105.698 61.3873 105.888C61.076 107.828 60.1401 109.593 59.1532 111.275C59.0321 111.483 58.9108 111.673 58.753 111.848" stroke="#0C0D0C" stroke-width="0.816"/>
<path d="M85.3673 62.7278C80.647 44.03 68.4808 37.8194 68.4808 37.8194C69.5433 36.3754 70.1904 34.9 70.5457 33.4118C70.9019 31.926 70.9842 30.4505 70.7956 28.9481C70.7081 28.0511 70.5226 27.1144 70.242 26.2457C69.933 25.0763 69.5096 23.9495 68.9963 22.849C68.4845 21.7484 67.9167 20.7211 67.3002 19.7261C66.6612 18.6442 65.9631 17.6356 65.2696 16.7333C62.5604 13.0672 59.8827 10.6251 59.8827 10.6251C59.8827 10.6251 56.3101 1.13968 52.8093 1.00202C49.2936 0.841178 49.1493 10.3431 49.1493 10.3431C48.4258 10.6311 47.6364 10.9266 46.8321 11.3037C45.6852 11.8476 44.4821 12.4679 43.2775 13.1906C42.3632 13.7166 41.4662 14.265 40.5609 14.8539C39.2388 15.6612 37.9662 16.5403 36.7406 17.3879C35.8211 18.0584 34.924 18.713 34.0532 19.3512C32.7409 20.3283 31.5168 21.2785 30.4619 22.112C28.034 24.0393 26.4853 25.3928 26.4853 25.3928C26.4853 25.3928 18.5673 23.9443 16.711 25.8282C14.8555 27.7129 25.5284 36.6948 25.5284 36.6948C26.0438 38.0072 26.5908 39.2603 27.1452 40.3691C27.6038 41.2901 28.0542 42.1506 28.5218 42.9264C29.0478 43.843 29.6112 44.6607 30.1424 45.4291C30.8277 46.3711 31.4906 47.2263 32.158 47.9363C32.9085 48.7653 33.6633 49.4513 34.3883 50.085C35.2824 50.8183 36.1586 51.4175 36.9988 51.8635C41.0794 54.2285 44.2517 53.7377 44.2517 53.7377C44.2517 53.7377 44.0077 55.5408 43.4712 58.357L43.4099 58.5762C43.4406 58.584 43.4788 58.5971 43.5125 58.6046L40.6102 69.157L40.7771 69.2633C40.602 69.8199 40.4606 70.3661 40.2668 70.9257C39.8366 72.2538 39.3166 73.6049 38.8033 74.9165C38.4607 75.7582 38.0949 76.6134 37.7185 77.4057C37.2202 78.5325 36.6636 79.6256 36.0808 80.6311C35.4911 81.6764 34.9158 82.7447 34.3434 83.8169C33.715 84.9593 33.0857 86.1049 32.4962 87.2533C29.0905 93.9128 26.5698 100.68 28.5832 106.701L28.5697 106.835C28.5697 106.835 30.916 119.969 52.2557 118.797C52.2557 118.797 60.7273 118.185 71.3867 108.321C74.5927 106.157 77.688 102.462 80.2452 97.8371C80.9051 96.6363 81.5164 95.3644 82.0858 94.0812C82.6866 92.7435 83.2297 91.3758 83.725 89.9348C84.1507 88.6494 84.5578 87.3401 84.9311 85.9813C85.2199 84.8568 85.4518 83.7062 85.6837 82.5495C85.9464 81.2357 86.1356 79.8657 86.2972 78.5085C86.8778 73.2855 86.6662 67.8955 85.3673 62.7278Z" stroke="#0C0D0C" stroke-width="0.816"/>
<path fill-rule="evenodd" clip-rule="evenodd" d="M49.3737 62.3447C49.3737 62.3447 44.6826 63.5933 43.1212 68.2837C41.556 72.9741 33.115 71.4089 35.9297 65.1556C38.7413 58.9031 45.3088 56.0891 45.3088 56.0891L49.3737 62.3447Z" fill="#FBD6A8"/>
<path d="M49.3737 62.3447C49.3737 62.3447 44.6826 63.5933 43.1212 68.2837C41.556 72.9741 33.115 71.4089 35.9297 65.1556C38.7413 58.9031 45.3088 56.0891 45.3088 56.0891" stroke="#0C0D0C" stroke-width="0.816"/>
<path fill-rule="evenodd" clip-rule="evenodd" d="M40.5123 37.6162C40.7285 38.0382 40.0073 38.8432 38.8991 39.4133C37.7926 39.9857 36.7183 40.1076 36.499 39.6849C36.282 39.263 37.004 38.4579 38.1121 37.8848C39.2187 37.3125 40.293 37.1934 40.5123 37.6162Z" fill="#FFECCB"/>
<path fill-rule="evenodd" clip-rule="evenodd" d="M58.4057 26.6895C58.6243 27.1085 57.903 27.9136 56.7942 28.4866C55.6862 29.059 54.6117 29.181 54.3956 28.7583C54.1786 28.3363 54.8976 27.5313 56.0056 26.9582C57.1144 26.388 58.1896 26.2645 58.4057 26.6895Z" fill="#FFECCB"/>
</svg>
