<svg width="76" height="111" viewBox="0 0 76 111" fill="none" xmlns="http://www.w3.org/2000/svg">
<path fill-rule="evenodd" clip-rule="evenodd" d="M24.3707 90.6434L24.3175 90.6156L14.5203 88.3304H14.4671C15.4751 83.5417 16.9436 79.161 16.9436 79.161L14.956 76.1686C9.0259 67.7882 7.6099 54.2119 7.8567 41.9405C7.8567 40.7166 7.9099 39.5196 7.9361 38.3496C7.9924 37.7781 8.0187 37.2336 8.0457 36.6899C8.6989 24.4733 10.6301 14.6784 10.6301 14.6784C10.6301 14.6784 6.6582 2.38092 8.9704 2.70712C11.3104 3.03332 18.2755 7.03072 18.2755 7.03072C18.2755 7.03072 30.9278 5.04402 43.5509 6.70682C43.5509 6.70682 51.1978 0.394122 53.183 1.04742C55.1705 1.72762 51.8518 11.359 51.8518 11.359C51.8518 11.359 54.2458 24.147 53.7537 33.2887C53.7275 33.8332 53.7005 34.3499 53.6457 34.8666C53.5925 35.3564 53.5393 35.7921 53.483 36.2541C53.321 37.2336 53.1298 38.1591 52.8591 38.9481C52.8591 38.9481 52.8853 38.9751 52.9655 39.0568C54.434 40.4991 72.1758 58.2925 72.1488 80.1405C72.1488 80.712 72.1488 81.2565 72.1195 81.828C71.386 99.6215 43.6889 97.7442 30.1119 95.7583C26.1399 95.1868 23.3627 94.5883 22.8475 94.4795C23.1745 93.7993 23.5007 93.0643 23.7722 92.3301C23.9897 91.7586 24.2079 91.1871 24.3707 90.6434Z" fill="white"/>
<path fill-rule="evenodd" clip-rule="evenodd" d="M32.7472 19.2851C32.6817 19.8859 30.8237 20.172 30.8237 20.172C30.8237 20.172 29.0699 19.4887 29.137 18.8902C29.2033 18.2917 30.064 17.8945 31.0605 18.0064C32.06 18.1151 32.8143 18.6889 32.7472 19.2851Z" fill="#0C0D0C"/>
<path d="M26.7885 21.8503C27.141 23.1568 28.2146 24.1416 29.5411 24.2172C30.2283 24.2581 30.8769 24.0406 31.4137 23.6542C31.9004 24.1008 32.5189 24.3892 33.21 24.4301C34.5334 24.5057 35.7127 23.6519 36.2155 22.3948" stroke="#0C0D0C" stroke-width="0.816"/>
<path fill-rule="evenodd" clip-rule="evenodd" d="M29.1478 6.1082C22.8151 6.3257 18.2824 7.036 18.2824 7.036C18.2824 7.036 11.3034 3.044 8.97579 2.7124C6.64819 2.3808 10.6386 14.6783 10.6386 14.6783C10.6386 14.6783 9.36599 21.0558 8.52919 29.939C19.0799 26.3396 27.0808 17.2767 29.1478 6.1082Z" fill="#AFB0B0"/>
<path fill-rule="evenodd" clip-rule="evenodd" d="M53.1853 1.04973C51.1901 0.383328 43.5455 6.70143 43.5455 6.70143C40.8384 6.34513 38.1413 6.16543 35.5584 6.08903C37.4642 16.4114 44.4278 24.9491 53.8015 29.0337C53.5871 20.6394 51.8564 11.3567 51.8564 11.3567C51.8564 11.3567 55.1813 1.71683 53.1853 1.04973Z" fill="#AFB0B0"/>
<path d="M22.077 17.7449C21.8533 16.7407 21.1021 15.9842 20.1689 15.9494C19.2396 15.9163 18.4344 16.6127 18.1336 17.5953" stroke="#0C0D0C" stroke-width="0.816"/>
<path d="M47.0084 17.7449C46.7855 16.7407 46.0327 15.9842 45.1003 15.9494C44.1702 15.9163 43.3627 16.6127 43.0619 17.5953" stroke="#0C0D0C" stroke-width="0.816"/>
<path fill-rule="evenodd" clip-rule="evenodd" d="M45.8731 7.36775C45.8731 7.36775 51.8564 1.21625 52.5213 2.21425C53.1853 3.21065 50.526 9.85965 50.526 9.85965L45.8731 7.36775Z" fill="#0C0D0C"/>
<path fill-rule="evenodd" clip-rule="evenodd" d="M15.7296 8.5292C15.7296 8.5292 9.7463 2.3808 9.0822 3.3764C8.4174 4.3744 11.0767 11.0218 11.0767 11.0218L15.7296 8.5292Z" fill="#0C0D0C"/>
<path fill-rule="evenodd" clip-rule="evenodd" d="M53.5177 55.2321C53.5177 61.6582 58.7275 66.8657 65.1528 66.8657C66.7979 66.8657 68.3604 66.5201 69.7787 65.9054C67.0207 57.4873 62.3925 50.3779 58.6643 45.573C55.5608 47.6623 53.5177 51.2108 53.5177 55.2321Z" fill="#AFB0B0"/>
<path fill-rule="evenodd" clip-rule="evenodd" d="M18.2824 65.2038C18.2824 59.3076 13.8909 54.4487 8.2014 53.6868C8.8747 61.3753 10.5113 68.7839 13.7953 74.3701C16.524 72.2422 18.2824 68.9343 18.2824 65.2038Z" fill="#AFB0B0"/>
<path fill-rule="evenodd" clip-rule="evenodd" d="M46.2055 87.6423C40.7821 87.6423 36.2387 91.3582 34.9507 96.3813C41.723 97.1102 50.1882 97.4372 57.3462 95.9325C55.9094 91.1384 51.467 87.6423 46.2055 87.6423Z" fill="#AFB0B0"/>
<path fill-rule="evenodd" clip-rule="evenodd" d="M48.9743 19.8859C48.9743 20.3756 47.9331 20.7728 46.649 20.7728C45.3633 20.7728 44.3213 20.3756 44.3213 19.8859C44.3213 19.3962 45.3633 18.999 46.649 18.999C47.9331 18.999 48.9743 19.3962 48.9743 19.8859Z" fill="#EAEAEB"/>
<path fill-rule="evenodd" clip-rule="evenodd" d="M19.6113 19.8859C19.6113 20.3756 18.5693 20.7728 17.2868 20.7728C16.0003 20.7728 14.9591 20.3756 14.9591 19.8859C14.9591 19.3962 16.0003 18.999 17.2868 18.999C18.5693 18.999 19.6113 19.3962 19.6113 19.8859Z" fill="#EAEAEB"/>
<path d="M53.1853 19.4456L62.9362 17.4512" stroke="#0C0D0C" stroke-width="0.816"/>
<path d="M53.6295 22.5466H63.3812" stroke="#0C0D0C" stroke-width="0.816"/>
<path d="M53.6295 25.6487L62.7133 28.5301" stroke="#0C0D0C" stroke-width="0.816"/>
<path d="M10.1944 19.4456L0.443497 17.4512" stroke="#0C0D0C" stroke-width="0.816"/>
<path d="M9.7517 22.5466H0" stroke="#0C0D0C" stroke-width="0.816"/>
<path d="M8.89021 26.0513L0.666306 28.5301" stroke="#0C0D0C" stroke-width="0.816"/>
<path fill-rule="evenodd" clip-rule="evenodd" d="M73.5625 92.5745C71.4122 96.4654 67.4141 99.0499 63.1684 100.41C58.9242 101.744 54.4077 102.016 49.9738 102.234C43.5509 102.588 37.1318 102.938 30.7103 103.268C28.0156 103.404 25.1589 103.619 23.0102 105.227C21.187 106.614 19.9915 108.954 17.8127 109.634C15.6926 110.287 13.1598 108.818 12.6708 106.668C11.8556 102.968 16.6991 101.199 19.2288 99.6761C22.4379 97.7171 26.2479 95.8399 30.1119 95.7582C43.6889 97.7441 71.386 99.6214 72.1195 81.8279C72.1488 81.2564 72.1488 80.7119 72.1488 80.1404H72.4203C75.5199 83.3511 75.7112 88.6542 73.5625 92.5745Z" fill="white"/>
<path fill-rule="evenodd" clip-rule="evenodd" d="M53.483 36.2542C53.5393 35.8192 53.5925 35.3565 53.6457 34.8667C53.5925 35.3565 53.5393 35.7922 53.483 36.2542Z" fill="black"/>
<path fill-rule="evenodd" clip-rule="evenodd" d="M8.0187 36.6899H8.0457C8.0187 37.2336 7.9924 37.7781 7.9361 38.3496C7.9662 37.7781 7.9924 37.2336 8.0187 36.6899Z" fill="black"/>
<path d="M53.483 36.2542C53.5393 35.8192 53.5925 35.3565 53.6457 34.8667" stroke="#0C0D0C" stroke-width="0.816"/>
<path fill-rule="evenodd" clip-rule="evenodd" d="M62.384 100.606C62.6447 100.536 62.91 100.492 63.1684 100.411C66.5958 99.3115 69.8427 97.4019 72.1064 94.6647C71.3575 94.4141 70.5731 94.2483 69.7386 94.2483C65.995 94.2483 62.9208 97.0124 62.384 100.606Z" fill="#AFB0B0"/>
<path fill-rule="evenodd" clip-rule="evenodd" d="M13.5508 108.303C14.5928 109.473 16.3003 110.1 17.8127 109.635C19.9915 108.954 21.187 106.614 23.0102 105.227C23.5377 104.832 24.11 104.524 24.7108 104.28C23.5377 103.515 22.1456 103.063 20.6425 103.063C17.2999 103.063 14.5018 105.275 13.5508 108.303Z" fill="#AFB0B0"/>
<path d="M72.2714 80.1274C75.3711 83.3381 75.7112 88.6543 73.5625 92.5746C71.4122 96.4655 67.4141 99.05 63.1684 100.411C58.9242 101.744 54.4077 102.016 49.9738 102.234C43.5509 102.588 37.1318 102.939 30.7103 103.268C28.0156 103.404 25.1589 103.619 23.0102 105.227C21.187 106.614 19.9915 108.954 17.8127 109.635C15.6926 110.287 13.1598 108.818 12.6708 106.668C11.8556 102.968 16.6991 101.199 19.2288 99.6762C22.4379 97.7172 26.2479 95.84 30.1119 95.7583C30.3826 95.7583 30.452 95.8123 30.7227 95.84" stroke="#0C0D0C" stroke-width="0.816"/>
<path fill-rule="evenodd" clip-rule="evenodd" d="M14.5203 88.3303L24.3175 90.6155L24.3707 90.6433C24.2079 91.187 23.9897 91.7585 23.7722 92.33C23.5007 93.0642 23.1745 93.7992 22.8475 94.4794C21.2425 97.7711 19.12 100.218 16.3728 100.383C12.7271 100.574 13.2431 94.1524 14.4671 88.3303H14.5203Z" fill="#DFDFDF"/>
<path d="M26.2479 83.8139C26.2479 83.8139 25.6216 86.9969 24.3707 90.6434C24.2079 91.1871 23.9897 91.7586 23.7722 92.3301C23.5007 93.0643 23.1745 93.7993 22.8475 94.4795M22.8475 94.4795C21.2425 97.7712 19.12 100.218 16.3728 100.384C12.7271 100.574 13.2431 94.1525 14.4671 88.3304C15.4751 83.5417 16.9436 79.161 16.9436 79.161L14.956 76.1686C9.0259 67.7882 7.6099 54.2119 7.8567 41.9405C7.8567 40.7166 7.9099 39.5196 7.9361 38.3496C7.9924 37.7781 8.0187 37.2336 8.0457 36.6899C8.6989 24.4733 10.6301 14.6784 10.6301 14.6784C10.6301 14.6784 6.6582 2.38092 8.9704 2.70712C11.3104 3.03332 18.2755 7.03072 18.2755 7.03072C18.2755 7.03072 30.9278 5.04402 43.5509 6.70682C43.5509 6.70682 51.1978 0.394122 53.183 1.04742C55.1705 1.72762 51.8518 11.359 51.8518 11.359C51.8518 11.359 54.2458 24.147 53.7537 33.2887C53.7275 33.8332 53.7005 34.3499 53.6457 34.8666C53.5925 35.3564 53.5393 35.7921 53.483 36.2541C53.321 37.2336 53.1298 38.1591 52.8591 38.9481C52.8591 38.9481 52.8853 38.9751 52.9655 39.0568C54.434 40.4991 72.1758 58.2925 72.1488 80.1405C72.1488 80.712 72.1488 81.2565 72.1195 81.828C71.386 99.6215 43.6889 97.7442 30.1119 95.7583C26.1399 95.1868 23.3627 94.5883 22.8475 94.4795ZM22.8475 94.4795C22.7919 94.4526 22.7657 94.4526 22.7657 94.4526" stroke="#0C0D0C" stroke-width="0.816"/>
</svg>
