<svg width="94" height="116" viewBox="0 0 94 116" fill="none" xmlns="http://www.w3.org/2000/svg">
<path d="M78.6621 25.5277L86.0556 21.2478" stroke="#0C0D0C" stroke-width="0.816"/>
<path d="M80.2163 32.7727L88.7155 33.6382" stroke="#0C0D0C" stroke-width="0.816"/>
<path d="M79.8812 28.9352L87.5948 27.2808" stroke="#0C0D0C" stroke-width="0.816"/>
<path fill-rule="evenodd" clip-rule="evenodd" d="M69.9176 11.1359C69.8781 7.74868 69.564 1.81866 67.9008 1.10715C66.213 0.388566 62.4739 3.45385 60.4914 5.24809C57.7112 4.21999 54.6081 3.5374 51.118 3.31137C12.0404 0.763196 3.96778 54.7071 3.96778 54.7071C-4.95264 84.0174 9.06479 115.024 42.2002 112.476C75.3295 109.926 80.8522 83.5916 81.6992 73.3985C82.3729 65.3251 87.2818 27.7277 69.9176 11.1359Z" fill="#FFC866"/>
<path d="M56.9045 33.0242C57.7797 34.5687 59.5019 35.4351 61.196 35.0041C62.1916 34.749 62.9831 34.0946 63.4766 33.2379C64.3201 33.7533 65.329 33.9522 66.3246 33.7006C68.0186 33.2696 69.1171 31.6899 69.1515 29.9124" stroke="#0C0D0C" stroke-width="0.816"/>
<path fill-rule="evenodd" clip-rule="evenodd" d="M65.7257 25.7847C65.8876 27.0415 62.2198 28.5596 62.2198 28.5596C62.2198 28.5596 58.2882 28.032 58.1273 26.7716C57.9628 25.512 59.5328 24.271 61.627 23.9983C63.7283 23.7283 65.5613 24.5261 65.7257 25.7847Z" fill="#0C0D0C"/>
<path d="M68.9122 24.46C69.3159 22.7757 70.601 21.5224 72.1675 21.4846C73.7375 21.4512 75.0779 22.6386 75.5625 24.3088" stroke="#0C0D0C" stroke-width="0.816"/>
<path d="M46.0729 29.266C46.0042 27.5386 46.9005 25.9801 48.4028 25.5217C49.9016 25.0626 51.5182 25.8472 52.4303 27.3187" stroke="#0C0D0C" stroke-width="0.816"/>
<path fill-rule="evenodd" clip-rule="evenodd" d="M35.5104 24.1901C35.5104 24.1901 31.4082 11.565 34.5639 10.9308C37.7198 10.3019 44.9805 14.4041 44.9805 14.4041L35.5104 24.1901Z" fill="#FFC866"/>
<path fill-rule="evenodd" clip-rule="evenodd" d="M37.9029 21.2796C37.9029 21.2796 33.6237 13.0075 35.9045 13.2934C38.1878 13.5818 41.896 15.8616 41.896 15.8616L37.9029 21.2796Z" fill="#906D47"/>
<path fill-rule="evenodd" clip-rule="evenodd" d="M63.7996 8.37841C63.7996 8.37841 66.0767 -0.427616 67.5288 1.481C68.981 3.38871 69.5456 11.5114 69.5456 11.5114L63.7996 8.37841Z" fill="#906D47"/>
<path fill-rule="evenodd" clip-rule="evenodd" d="M34.5235 40.0861C36.2642 40.0861 37.6917 38.6868 37.7199 36.9427C37.7506 35.1774 36.3477 33.7191 34.5798 33.6874C26.0306 33.5362 18.0584 30.8527 12.6649 28.498C11.6586 30.4516 10.7642 32.4007 9.96204 34.3154C15.9131 36.9339 24.757 39.9129 34.4681 40.0861C34.4831 40.0861 34.5016 40.0861 34.5235 40.0861Z" fill="#906D47"/>
<path fill-rule="evenodd" clip-rule="evenodd" d="M31.0395 56.1908C32.7987 56.0474 34.1109 54.5047 33.9685 52.742C33.8251 50.9838 32.2674 49.7085 30.5206 49.8106C19.5912 50.7033 11.1195 48.7682 5.70142 46.8508C4.97406 49.581 4.50694 51.7754 4.24658 53.1396C9.25477 54.8468 16.2428 56.4379 24.9997 56.4379C26.9302 56.4379 28.9454 56.3606 31.0395 56.1908Z" fill="#906D47"/>
<path fill-rule="evenodd" clip-rule="evenodd" d="M27.0359 71.6893C28.7757 71.3753 29.927 69.7085 29.6096 67.9741C29.2964 66.2334 27.6296 65.0699 25.8943 65.4023C16.1735 67.165 7.60489 66.1218 1.81038 64.8157C1.53417 66.9873 1.37406 69.1536 1.3468 71.2892C5.15617 72.0931 9.88907 72.7474 15.2763 72.7474C18.9274 72.7474 22.8827 72.4458 27.0359 71.6893Z" fill="#906D47"/>
<path d="M49.0792 49.5618C49.563 53.6033 52.4119 57.1427 56.0206 59.0196C57.2741 59.6713 58.7139 60.237 59.399 61.4719C60.1501 62.8343 59.6506 64.6549 58.4931 65.6885C57.3329 66.721 55.6662 67.0438 54.1243 66.8521C52.5825 66.6559 51.1427 66.0015 49.7679 65.2786C45.8275 63.2028 42.1167 60.3697 40.0093 56.4443" stroke="#0C0D0C" stroke-width="0.816"/>
<path d="M46.8083 33.6356L38.4736 31.7639" stroke="#0C0D0C" stroke-width="0.816"/>
<path d="M47.4873 41.0168L39.6338 44.3803" stroke="#0C0D0C" stroke-width="0.816"/>
<path d="M46.6587 37.2498L38.8052 37.9753" stroke="#0C0D0C" stroke-width="0.816"/>
<path fill-rule="evenodd" clip-rule="evenodd" d="M75.9839 26.2975C76.0745 26.7479 75.187 27.2985 74.005 27.5315C72.8193 27.762 71.7893 27.5807 71.7022 27.1313C71.6152 26.6783 72.5026 26.127 73.6847 25.8965C74.8669 25.6678 75.8977 25.8472 75.9839 26.2975Z" fill="#FFECCB"/>
<path fill-rule="evenodd" clip-rule="evenodd" d="M53.8325 30.3936C53.9195 30.8431 53.032 31.3954 51.8473 31.625C50.6652 31.8537 49.6343 31.6787 49.5481 31.2274C49.4611 30.7771 50.3485 30.2265 51.5333 29.9961C52.7128 29.763 53.7427 29.9433 53.8325 30.3936Z" fill="#FFECCB"/>
<path d="M69.9176 11.1359C69.8781 7.74868 69.564 1.81866 67.9008 1.10715C66.213 0.388566 62.4739 3.45385 60.4914 5.24809C57.7112 4.21999 54.6081 3.5374 51.118 3.31137C12.0404 0.763196 3.96778 54.7071 3.96778 54.7071C-4.95264 84.0174 9.06479 115.024 42.2002 112.476C75.3295 109.926 80.8522 83.5916 81.6992 73.3985C82.3729 65.325 87.2818 27.7277 69.9176 11.1359Z" stroke="#0C0D0C" stroke-width="0.816"/>
<path fill-rule="evenodd" clip-rule="evenodd" d="M17.5614 106.952C17.5614 106.952 52.3934 115.024 65.9869 92.5119C79.5804 69.9988 80.8522 36.4439 91.0454 39.4159C94.5081 40.4239 93.0684 48.5255 92.7271 50.6135C91.4455 58.3835 88.3092 65.9266 85.1691 73.0914C79.0589 87.0384 73.7376 101.687 59.7526 109.283C54.0127 112.402 47.6395 114.471 41.0736 114.679C37.0839 114.803 33.0996 114.239 29.2938 113.025C25.297 111.752 21.3514 107.834 17.5614 106.952Z" fill="#FFC866"/>
<path d="M17.5614 106.952C17.5614 106.952 52.3934 115.024 65.9869 92.5119C79.5804 69.9988 80.8522 36.4439 91.0454 39.4159C94.5081 40.4239 93.0684 48.5255 92.7271 50.6135C91.4455 58.3835 88.3092 65.9266 85.1691 73.0914C79.0589 87.0384 73.7376 101.687 59.7526 109.283C54.0128 112.402 47.6395 114.471 41.0736 114.679C37.0839 114.803 33.0996 114.239 29.2938 113.025C25.297 111.752 21.3514 107.834 17.5614 106.952Z" stroke="#0C0D0C" stroke-width="0.816"/>
</svg>
