<svg width="89" height="115" viewBox="0 0 89 115" fill="none" xmlns="http://www.w3.org/2000/svg">
<path fill-rule="evenodd" clip-rule="evenodd" d="M72.5115 87.5838C72.5115 87.5838 81.2978 69.0385 79.3449 53.7433C77.3929 38.4542 75.1122 27.3881 82.5967 27.0656C90.0822 26.7395 94.3105 74.571 69.9083 98.3237L72.5115 87.5838Z" fill="#FBD6A8"/>
<path fill-rule="evenodd" clip-rule="evenodd" d="M83.514 50.4765C83.8923 53.1773 85.5349 55.6839 87.8992 57.0308C88.5801 50.7964 88.5566 44.9657 88.0491 40.1245C84.9037 42.4898 82.9813 46.6997 83.514 50.4765Z" fill="#FDEBD5"/>
<path d="M72.5115 87.5838C72.5115 87.5838 81.2978 69.0385 79.3449 53.7433C77.3929 38.4542 75.1122 27.3881 82.5967 27.0656C90.0822 26.7395 94.3105 74.571 69.9083 98.3237L72.5115 87.5838Z" stroke="#0C0D0C" stroke-width="0.816"/>
<path fill-rule="evenodd" clip-rule="evenodd" d="M43.7834 12.6744L52.6263 2.76884C52.6263 2.76884 54.3943 5.9518 56.1641 14.4434C56.1641 14.4434 59.702 25.0543 63.2407 29.6522C69.5056 37.7994 72.3774 50.861 74.1812 60.6664C77.0382 76.1795 76.3258 94.4084 63.6191 105.576C52.0796 115.723 31.7358 116.553 19.6532 106.964C6.95523 96.8817 2.84634 78.8551 0.978018 63.6131C0.978018 63.6131 -1.85194 40.2693 9.46777 21.5173L11.2376 15.8583L18.3107 1L22.9121 11.9649C22.9121 11.9649 37.4165 10.903 43.7834 12.6744Z" fill="#FBD6A8"/>
<path d="M11.4537 43.2649C11.4537 43.2649 12.5139 60.9524 20.2966 58.4799C28.0776 56.0004 18.8808 40.4351 18.8808 40.4351" stroke="#0C0D0C" stroke-width="0.816"/>
<path d="M35.9448 105.942C35.9448 105.942 25.8283 94.0919 30.7427 90.044C35.6529 85.9997 43.7476 103.051 43.7476 103.051" stroke="#0C0D0C" stroke-width="0.816"/>
<path d="M61.9217 100.132C61.9217 100.132 62.7019 84.5727 56.3402 84.3669C49.9795 84.1611 53.9777 102.605 53.9777 102.605" stroke="#0C0D0C" stroke-width="0.816"/>
<path fill-rule="evenodd" clip-rule="evenodd" d="M46.6124 13.0285L51.7431 6.83765L53.1572 14.9727L46.6124 13.0285Z" fill="#0C0D0C"/>
<path fill-rule="evenodd" clip-rule="evenodd" d="M21.4936 12.851L17.689 5.771L14.6943 13.4657L21.4936 12.851Z" fill="#0C0D0C"/>
<path fill-rule="evenodd" clip-rule="evenodd" d="M33.8927 22.7258L32.8274 24.574C32.3583 25.383 32.9407 26.3953 33.8744 26.3953H36.0104C36.9441 26.3953 37.5265 25.383 37.0617 24.574L35.993 22.7258C35.5264 21.9202 34.3591 21.9202 33.8927 22.7258L32.8274 24.574C32.3583 25.383 32.9407 26.3953 33.8744 26.3953H36.0104C36.9441 26.3953 37.5265 25.383 37.0617 24.574L35.993 22.7258C35.5264 21.9202 34.3591 21.9202 33.8927 22.7258Z" fill="#0C0D0C"/>
<path d="M28.8379 27.9757C28.8379 29.9347 30.4298 31.5285 32.3949 31.5285C33.5501 31.5285 34.5649 30.9652 35.2144 30.11C35.863 30.9652 36.8821 31.5285 38.0373 31.5285C40.0016 31.5285 41.5909 29.9347 41.5909 27.9757C41.5909 27.9513 41.5856 27.9269 41.5856 27.9026" stroke="#0C0D0C" stroke-width="0.816"/>
<path fill-rule="evenodd" clip-rule="evenodd" d="M49.5925 16.6515C47.0363 15.8058 43.7626 15.9287 42.2065 18.1248C40.9266 19.9269 41.3512 22.5475 42.7164 24.2817C44.0869 26.0165 46.195 27.0034 48.3091 27.6373C50.3431 28.2432 52.5383 28.5788 54.5722 27.9816C57.6804 27.068 59.9811 23.3558 57.7204 20.4403C56.254 18.5494 51.731 17.3559 49.5925 16.6515Z" fill="#FDEBD5"/>
<path fill-rule="evenodd" clip-rule="evenodd" d="M70.8334 71.2921C69.6076 71.5328 68.5083 72.184 67.4359 72.8274C66.6408 73.3008 65.8195 73.7995 65.2947 74.565C64.6583 75.4996 64.5554 76.6869 64.4744 77.816C64.3785 79.1141 64.2877 80.4358 64.6426 81.6851C64.9948 82.9397 65.8858 84.1149 67.1447 84.4409C68.3191 84.7452 69.5562 84.2561 70.5693 83.5953C73.8813 81.4139 78.3538 69.8135 70.8334 71.2921Z" fill="#FDEBD5"/>
<path fill-rule="evenodd" clip-rule="evenodd" d="M45.5619 83.3765C37.386 86.1018 28.6339 81.3286 26.4622 72.987C23.6357 62.1338 22.0952 48.6903 30.0479 44.5074C41.7974 38.3226 49.9228 45.0889 55.2871 65.6768C57.2417 73.1901 52.9227 80.9224 45.5619 83.3765Z" fill="#FDEBD5"/>
<path fill-rule="evenodd" clip-rule="evenodd" d="M18.1519 84.3548C20.2121 80.3932 20.0282 75.3864 17.791 71.5268C17.1903 70.4868 16.4458 69.512 16.0823 68.3709C15.3133 65.9568 16.3683 63.2289 15.5408 60.8358C14.0431 56.4836 6.78081 53.5961 0.733854 53.6877C0.511617 59.636 0.97802 63.6134 0.97802 63.6134C2.07394 72.5503 3.95357 82.429 7.86803 91.1148C12.139 90.8168 16.1694 88.162 18.1519 84.3548Z" fill="#FDEBD5"/>
<path fill-rule="evenodd" clip-rule="evenodd" d="M26.1535 100.824C25.8789 98.4314 24.8555 96.1891 23.7927 94.027C23.4038 93.2362 22.9932 92.4272 22.3324 91.8431C18.9175 88.8232 13.5384 92.3078 10.6553 96.4689C13.0457 100.455 15.9795 104.047 19.6533 106.963C20.4345 107.581 21.2539 108.156 22.0988 108.688C22.8371 108.405 23.5102 108.008 24.0751 107.479C25.8345 105.831 26.4238 103.219 26.1535 100.824Z" fill="#FDEBD5"/>
<path fill-rule="evenodd" clip-rule="evenodd" d="M34.2047 17.1433C35.7723 17.0325 37.2666 16.1904 38.8307 16.3377C40.6266 16.5103 42.426 17.9558 44.0537 17.1772C45.1653 16.6455 45.6003 15.2889 45.7024 14.0588C45.7904 12.976 45.6883 11.8871 45.4234 10.8357L43.7834 12.6743C39.7347 11.5489 32.4089 11.5706 27.6007 11.7302C27.7594 12.2445 27.9574 12.7702 28.2319 13.3116C29.3575 15.553 31.7035 17.3246 34.2047 17.1433Z" fill="#FDEBD5"/>
<path fill-rule="evenodd" clip-rule="evenodd" d="M58.1048 55.1582C56.3682 58.9009 56.4851 63.7909 59.4039 66.7098C61.7351 69.0445 65.4334 69.6626 68.6129 68.789C70.9861 68.1395 73.0862 66.7585 74.8639 65.0332C74.6677 63.5633 74.4454 62.0996 74.1813 60.6663C73.1847 55.2506 71.836 48.8557 69.7943 42.8306C68.4664 44.1131 67.2293 45.3745 66.3279 46.0694C63.0629 48.5942 59.8363 51.4146 58.1048 55.1582Z" fill="#FDEBD5"/>
<path d="M43.7834 12.6744L52.6263 2.76884C52.6263 2.76884 54.3943 5.9518 56.1641 14.4434C56.1641 14.4434 59.702 25.0543 63.2407 29.6522C69.5056 37.7994 72.3774 50.861 74.1812 60.6664C77.0382 76.1795 76.3258 94.4084 63.6191 105.576C52.0796 115.723 31.7358 116.553 19.6532 106.963C6.95523 96.8817 2.84634 78.8551 0.978018 63.6131C0.978018 63.6131 -1.85194 40.2693 9.46777 21.5173L11.2376 15.8583L18.3107 1L22.9121 11.9649C22.9121 11.9649 37.4165 10.903 43.7834 12.6744Z" stroke="#0C0D0C" stroke-width="0.816"/>
<path d="M27.5972 23.9809C27.068 22.5999 25.5467 21.6035 23.7386 21.6279C21.9304 21.6497 20.4344 22.6854 19.9418 24.0786" stroke="#0C0D0C" stroke-width="0.816"/>
<path d="M52.0073 23.9809C51.4807 22.5999 49.955 21.6035 48.1468 21.6279C46.3388 21.6497 44.8436 22.6854 44.351 24.0786" stroke="#0C0D0C" stroke-width="0.816"/>
<path d="M55.0847 24.264L63.735 22.4924" stroke="#0C0D0C" stroke-width="0.816"/>
<path d="M55.4789 27.0171H64.1291" stroke="#0C0D0C" stroke-width="0.816"/>
<path d="M55.594 29.7715L63.6548 32.3276" stroke="#0C0D0C" stroke-width="0.816"/>
<path d="M16.887 24.264L8.23682 22.4924" stroke="#0C0D0C" stroke-width="0.816"/>
<path d="M16.4938 27.0171H7.84363" stroke="#0C0D0C" stroke-width="0.816"/>
<path d="M16.3796 29.7715L8.31873 32.3276" stroke="#0C0D0C" stroke-width="0.816"/>
<path fill-rule="evenodd" clip-rule="evenodd" d="M24.3272 27.342C24.3272 27.7517 23.09 28.084 21.5599 28.084C20.0325 28.084 18.7911 27.7517 18.7911 27.342C18.7911 26.9366 20.0325 26.6045 21.5599 26.6045C23.09 26.6045 24.3272 26.9366 24.3272 27.342Z" fill="#FDEBD5"/>
<path d="M51.2104 40.0963C51.2104 40.0963 48.7362 57.4308 54.0404 57.0767C59.3479 56.7228 62.1771 48.9418 60.0568 39.7424" stroke="#0C0D0C" stroke-width="0.816"/>
</svg>
