<svg width="100" height="91" viewBox="0 0 100 91" fill="none" xmlns="http://www.w3.org/2000/svg">
<path fill-rule="evenodd" clip-rule="evenodd" d="M99.0949 51.184C97.8527 58.6095 94.1999 65.4807 89.5426 71.3996C84.8788 77.3147 79.2253 82.369 73.4777 87.2358C72.2124 88.3097 70.896 89.4002 69.3207 89.9262C67.7453 90.4531 65.8289 90.2922 64.6698 89.1047C63.5053 87.91 63.3981 85.9797 63.9663 84.4181C64.5343 82.8492 65.6577 81.5585 66.7611 80.306C71.712 74.6818 76.6885 69.0301 82.4326 64.2119C83.9174 62.9631 85.4662 61.7592 86.6636 60.2333C87.7258 58.884 88.4841 57.3188 89.0586 55.6986C90.8141 50.777 90.8819 45.5003 90.8856 40.3335C90.8856 37.2195 89.6203 27.7576 92.3601 25.5658C96.4621 22.2871 97.9177 32.5009 98.3558 34.4988C99.5596 39.963 100.022 45.6367 99.0949 51.184Z" fill="white"/>
<path fill-rule="evenodd" clip-rule="evenodd" d="M88.968 72.0676C88.8647 71.9962 88.7714 71.9094 88.6553 71.8453C87.5255 71.2059 86.199 71.0091 84.899 70.925C82.5141 70.7668 80.0414 70.957 77.8824 71.977C74.7391 73.4618 72.5253 76.7404 72.3286 80.2066C72.1704 82.9172 72.9351 85.035 74.2259 86.5902C79.4897 82.1103 84.6245 77.4348 88.968 72.0676Z" fill="#494645"/>
<path d="M99.0949 51.184C97.8527 58.6095 94.1999 65.4807 89.5426 71.3996C84.8788 77.3147 79.2253 82.369 73.4777 87.2358C72.2124 88.3097 70.896 89.4002 69.3207 89.9262C67.7453 90.4531 65.8289 90.2922 64.6698 89.1047C63.5053 87.91 63.3981 85.9797 63.9663 84.4181C64.5343 82.8492 65.6577 81.5585 66.7611 80.306C71.712 74.6818 76.6885 69.0301 82.4326 64.2119C83.9174 62.9631 85.4662 61.7592 86.6636 60.2333C87.7258 58.884 88.4841 57.3188 89.0586 55.6986C90.8141 50.777 90.8819 45.5003 90.8856 40.3335C90.8856 37.2195 89.6203 27.7576 92.3601 25.5658C96.4621 22.2871 97.9177 32.5009 98.3558 34.4988C99.5596 39.963 100.022 45.6367 99.0949 51.184Z" stroke="#0C0D0C" stroke-width="0.816"/>
<path fill-rule="evenodd" clip-rule="evenodd" d="M41.3175 17.1651C46.811 17.553 53.049 18.4083 59.9905 19.9634C59.9905 19.9634 65.2187 10.4339 68.5075 12.0888C71.7962 13.719 69.1533 24.5467 69.1533 24.5467C69.1533 24.5467 71.5857 37.4135 70.1367 48.9602C69.5952 53.2845 68.5075 57.403 66.5387 60.6167C54.059 81.0452 7.42567 77.783 2.16822 52.559C1.6258 49.9993 1.31289 47.4077 1.18396 44.7941C0.974367 41.5054 1.08053 38.1655 1.3129 34.9023C1.47113 32.6244 2.58445 29.4126 2.24605 27.1602C2.24605 27.1602 -0.371324 9.44961 2.89092 10.1201C6.18329 10.7687 13.4057 19.2892 13.4057 19.2892C13.4057 19.2892 20.6281 16.778 33.8627 16.8558C36.1672 16.8815 38.6517 16.9556 41.3175 17.1651Z" fill="white"/>
<path fill-rule="evenodd" clip-rule="evenodd" d="M83.8626 8.49098C92.0694 14.8874 95.2035 23.2002 95.7972 31.1234C96.6259 42.4862 92.3017 53.1044 90.3623 56.2642C86.8668 61.9369 71.5638 71.1252 68.0684 73.3006C64.5738 75.5045 58.8745 84.2308 52.7617 84.6699C46.6819 85.109 47.069 76.9534 52.6072 71.2834C58.5388 69.1053 63.5346 65.5358 66.5387 60.6168C68.5075 57.4031 69.5952 53.2846 70.1368 48.9603C71.5858 37.4136 69.1533 24.5468 69.1533 24.5468C69.1533 24.5468 71.7962 13.7191 68.5075 12.0889C65.2187 10.434 59.9905 19.9635 59.9905 19.9635C53.049 18.4084 46.811 17.5531 41.3175 17.1652C38.6517 16.9557 36.1672 16.8816 33.8627 16.856C31.0652 16.8267 28.5285 16.9301 26.3018 17.114C28.9191 14.6779 54.9656 -8.60035 79.4348 5.51235C81.0678 6.44453 82.5425 7.45453 83.8626 8.49098Z" fill="white"/>
<path fill-rule="evenodd" clip-rule="evenodd" d="M10.8691 66.0518L10.8947 66.0261C16.152 70.1437 23.1677 72.6549 30.4972 73.588C30.4972 73.6136 30.4972 73.6392 30.4972 73.6649C32.3588 74.2329 33.3724 76.5118 32.8272 78.4027C32.3076 80.268 30.5713 81.6137 28.7087 82.1332C26.8178 82.6236 24.8235 82.3912 22.9353 81.8981C19.3886 80.965 16.0231 79.1035 13.6894 76.2794C11.3594 73.4846 10.1427 69.6278 10.8691 66.0518Z" fill="white"/>
<path d="M26.0951 17.3207C26.0951 17.3207 26.1729 17.2429 26.3018 17.114C28.9191 14.6779 54.9656 -8.60035 79.4349 5.51235C81.0678 6.44453 82.5426 7.45453 83.8626 8.49098C92.0694 14.8874 95.2036 23.2002 95.7972 31.1234C96.626 42.4862 92.3017 53.1044 90.3623 56.2642C86.8668 61.9369 71.5639 71.1252 68.0684 73.3006C64.5738 75.5045 58.8745 84.2308 52.7618 84.6699C46.682 85.109 47.069 76.9534 52.6072 71.2834C52.6621 71.2314 52.7134 71.1801 52.7618 71.1252" stroke="#0C0D0C" stroke-width="0.816"/>
<path d="M30.4972 73.588C30.4972 73.6136 30.4972 73.6392 30.4972 73.6649C32.3588 74.2329 33.3724 76.5118 32.8272 78.4027C32.3076 80.268 30.5713 81.6137 28.7087 82.1332C26.8177 82.6236 24.8235 82.3912 22.9353 81.8981C19.3886 80.965 16.0231 79.1035 13.6893 76.2794C11.5789 73.7426 10.3814 70.3312 10.7171 67.0553L10.8946 66.0261" stroke="#0C0D0C" stroke-width="0.816"/>
<path fill-rule="evenodd" clip-rule="evenodd" d="M70.1368 48.9604C37.5906 45.1302 41.3175 17.2687 41.3175 17.2687V17.1654C46.811 17.5532 53.0491 18.4085 59.9906 19.9637C59.9906 19.9637 65.2187 10.4341 68.5075 12.089C71.7962 13.7193 69.1534 24.5469 69.1534 24.5469C69.1534 24.5469 71.5858 37.4137 70.1368 48.9604Z" fill="#494645"/>
<path fill-rule="evenodd" clip-rule="evenodd" d="M77.0463 47.2404C76.2723 48.6309 75.5269 50.0607 75.1975 51.6168C74.8682 53.1719 74.9944 54.8827 75.8625 56.2156C76.6338 57.3993 77.9209 58.1769 79.2803 58.5711C83.3301 59.7394 88.0835 57.2932 89.485 53.3175C90.1007 51.5619 90.1171 49.6545 89.9589 47.8048C89.849 46.5396 89.5654 45.1262 88.4933 44.452C84.4178 41.8795 79.3379 43.5189 77.0463 47.2404Z" fill="#494645"/>
<path fill-rule="evenodd" clip-rule="evenodd" d="M61.7919 7.23841C63.3699 7.41954 65.0093 7.1057 66.5324 7.55489C70.2566 8.65812 71.2346 13.3347 73.355 16.5877C75.7272 20.225 80.1192 22.352 84.46 22.2678C87.4349 22.2092 90.3303 21.1508 92.7728 19.4409C90.8921 15.4973 88.0387 11.7439 83.8626 8.49076C82.5426 7.45431 81.0678 6.44431 79.4349 5.51213C71.4478 0.909784 63.3023 0.296781 55.8502 1.63238C55.9114 2.02949 55.9627 2.42375 56.1054 2.8491C56.9123 5.24036 59.2808 6.95113 61.7919 7.23841Z" fill="#494645"/>
<path fill-rule="evenodd" clip-rule="evenodd" d="M63.2538 21.267C63.2538 21.267 64.8959 15.361 67.1911 15.6903C69.4881 16.0197 66.8618 23.5622 66.8618 23.5622L63.2538 21.267Z" fill="#0C0D0C"/>
<path fill-rule="evenodd" clip-rule="evenodd" d="M32.7787 43.9324L31.6946 45.8142C31.2199 46.6366 31.8108 47.663 32.7623 47.663H34.934C35.8836 47.663 36.4735 46.6366 36.0025 45.8142L34.9147 43.9324C34.4436 43.1091 33.2535 43.1091 32.7787 43.9324L31.6946 45.8142C31.2199 46.6366 31.8108 47.663 32.7623 47.663H34.934C35.8836 47.663 36.4735 46.6366 36.0025 45.8142L34.9147 43.9324C34.4436 43.1091 33.2535 43.1091 32.7787 43.9324Z" fill="#0C0D0C"/>
<path d="M27.6375 49.2668C27.6375 51.2647 29.2575 52.8812 31.2519 52.8812C32.4301 52.8812 33.4657 52.3103 34.1244 51.4421C34.7858 52.3103 35.8186 52.8812 36.9969 52.8812C38.9939 52.8812 40.6113 51.2647 40.6113 49.2668C40.6113 49.2448 40.6054 49.2182 40.6054 49.1963" stroke="#0C0D0C" stroke-width="0.816"/>
<path d="M26.3786 45.2041C25.8399 43.7998 24.2873 42.7871 22.4513 42.8127C20.6117 42.8347 19.0885 43.8868 18.5882 45.3037" stroke="#0C0D0C" stroke-width="0.816"/>
<path d="M51.2066 45.2041C50.6706 43.7998 49.1181 42.7871 47.2784 42.8127C45.4424 42.8347 43.9192 43.8868 43.4189 45.3037" stroke="#0C0D0C" stroke-width="0.816"/>
<path d="M33.8627 17.2683C33.8627 17.2683 33.8627 39.6427 1.69982 44.7648L1 44.8516" stroke="#0C0D0C" stroke-width="0.816"/>
<path d="M41.3175 17.2683C41.3175 17.2683 37.5906 45.1298 70.1368 48.9601C70.166 48.9601 70.1916 48.9601 70.2182 48.9601" stroke="#0C0D0C" stroke-width="0.816"/>
<path d="M54.7533 47.5504L63.7121 45.5332" stroke="#0C0D0C" stroke-width="0.816"/>
<path d="M54.0206 55.4829L62.4625 59.0973" stroke="#0C0D0C" stroke-width="0.816"/>
<path d="M54.9079 51.4321L63.357 52.2106" stroke="#0C0D0C" stroke-width="0.816"/>
<path d="M14.5703 47.5504L5.61157 45.5332" stroke="#0C0D0C" stroke-width="0.816"/>
<path d="M15.3031 55.4829L6.8604 59.0973" stroke="#0C0D0C" stroke-width="0.816"/>
<path d="M14.4157 51.4321L5.96646 52.2106" stroke="#0C0D0C" stroke-width="0.816"/>
<path fill-rule="evenodd" clip-rule="evenodd" d="M13.4057 19.2892C13.4057 19.2892 20.6281 16.778 33.8627 16.8558V17.2684C33.8627 17.2684 33.8627 39.6428 1.69982 44.7649L1.18396 44.7941C0.974367 41.5054 1.08053 38.1655 1.3129 34.9023C1.47113 32.6244 2.58445 29.4126 2.24605 27.1602C2.24605 27.1602 -0.371324 9.44961 2.89092 10.1201C6.18329 10.7687 13.4057 19.2892 13.4057 19.2892Z" fill="#494645"/>
<path fill-rule="evenodd" clip-rule="evenodd" d="M9.13908 21.267C9.13908 21.267 7.49616 15.361 5.20181 15.6903C2.90378 16.0197 5.53107 23.5622 5.53107 23.5622L9.13908 21.267Z" fill="#0C0D0C"/>
<path d="M26.3018 17.1138C28.5285 16.93 31.0652 16.8265 33.8627 16.8558C36.1672 16.8815 38.6517 16.9556 41.3175 17.1651C46.811 17.553 53.049 18.4083 59.9905 19.9634C59.9905 19.9634 65.2187 10.4339 68.5075 12.0888C71.7962 13.719 69.1533 24.5467 69.1533 24.5467C69.1533 24.5467 71.5857 37.4135 70.1368 48.9602C69.5952 53.2845 68.5075 57.403 66.5387 60.6167C63.5346 65.5356 58.5388 69.1052 52.6072 71.2833C45.9263 73.7679 38.0325 74.5199 30.4972 73.5878C23.1676 72.6546 16.152 70.1434 10.8946 66.0259C6.51815 62.6339 3.33277 58.1293 2.16822 52.559C1.6258 49.9993 1.31289 47.4077 1.18396 44.7941C0.974367 41.5054 1.08053 38.1655 1.3129 34.9023C1.47113 32.6244 2.58445 29.4126 2.24605 27.1602C2.24605 27.1602 -0.371324 9.44961 2.89092 10.1201C6.18329 10.7687 13.4057 19.2892 13.4057 19.2892C13.4057 19.2892 17.914 17.7331 26.3018 17.1138Z" stroke="#0C0D0C" stroke-width="0.816"/>
<path fill-rule="evenodd" clip-rule="evenodd" d="M55.2144 47.8634C55.1659 48.6766 53.7626 49.2576 52.071 49.1606C50.386 49.0608 49.0541 48.3245 49.1017 47.5111C49.1473 46.6979 50.5543 46.117 52.2422 46.2176C53.93 46.3137 55.2628 47.0501 55.2144 47.8634Z" fill="#FBE6D8"/>
<path fill-rule="evenodd" clip-rule="evenodd" d="M23.0707 48.254C23.0259 49.0637 21.6189 49.6446 19.9312 49.5475C18.2433 49.4506 16.9104 48.7124 16.9589 47.8992C17.0038 47.0858 18.4106 46.5077 20.0985 46.6046C21.7863 46.7016 23.1193 47.4408 23.0707 48.254Z" fill="#FBE6D8"/>
</svg>
